{
.appVersion = "1192";
DisplayStrings = (
"/ra_xa-ethiopic.liga",
"/lu-ethiopic",
" ",
"/laa-ethiopic",
"/oGlottal-ethiopic",
"/iGlottal-ethiopic",
"/waGlottal-ethiopic",
"/aaGlottal-ethiopic",
"/da-ethiopic",
"/la-ethiopic",
"/lwa-ethiopic",
"/ti-ethiopic",
"/aGlottal-ethiopic",
"/za-ethiopic",
"/ye-ethiopic",
"/du-ethiopic",
"/ya-ethiopic",
"/yu-ethiopic",
"/yi-ethiopic",
"/yaa-ethiopic",
"/yee-ethiopic",
"/yo-ethiopic",
"/yoa-ethiopic",
"/di-ethiopic",
"/daa-ethiopic",
"/dee-ethiopic",
"/de-ethiopic",
"/do-ethiopic",
"/dwa-ethiopic",
"/dda-ethiopic",
"/ddu-ethiopic",
"/ddi-ethiopic",
"/ddaa-ethiopic",
"/ddee-ethiopic",
"/dde-ethiopic",
"/ddo-ethiopic",
"/ddwa-ethiopic",
"/ja-ethiopic",
"/ju-ethiopic",
"/ji-ethiopic",
"/jaa-ethiopic",
"/jee-ethiopic",
"/je-ethiopic",
"/jo-ethiopic",
"/jwa-ethiopic",
"/pha-ethiopic",
"/fe-ethiopic",
"/caa-ethiopic",
"/taa-ethiopic",
"/le-ethiopic",

glyphs = (
{
glyphname = A;
lastChange = "2019-03-09 00:04:35 +0000";
layers = (
{
layerId = "994FE389-9D54-4FAA-B055-C46A67020E78";
paths = (
{
closed = 1;
nodes = (
"165 0 LINE",
"239 203 LINE",
"509 203 LINE",
"578 0 LINE",
"680 0 LINE",
"431 682 LINE",
"327 682 LINE",
"70 0 LINE"
);
},
{
closed = 1;
nodes = (
"377 579 LINE",
"479 278 LINE",
"265 278 LINE"
);
}
);
width = 750;
},
{
layerId = "5DC7B242-CF95-40E7-B7B6-33B4F09A6622";
paths = (
{
closed = 1;
nodes = (
"132 0 LINE",
"191 203 LINE",
"407 203 LINE",
"462 0 LINE",
"544 0 LINE",
"345 682 LINE",
"262 682 LINE",
"56 0 LINE"
);
},
{
closed = 1;
nodes = (
"302 579 LINE",
"383 278 LINE",
"212 278 LINE"
);
}
);
width = 600;
}
);
note = A;
unicode = 0041;
},
{
glyphname = B;
lastChange = "2019-03-09 00:04:35 +0000";
layers = (
{
layerId = "994FE389-9D54-4FAA-B055-C46A67020E78";
paths = (
{
closed = 1;
nodes = (
"358 0 LINE SMOOTH",
"448 0 OFFCURVE",
"513 24 OFFCURVE",
"553 77 CURVE SMOOTH",
"581 115 OFFCURVE",
"596 153 OFFCURVE",
"596 198 CURVE SMOOTH",
"596 250 OFFCURVE",
"580 291 OFFCURVE",
"549 321 CURVE SMOOTH",
"535 335 OFFCURVE",
"507 352 OFFCURVE",
"472 366 CURVE",
"495 378 OFFCURVE",
"513 392 OFFCURVE",
"526 406 CURVE SMOOTH",
"551 433 OFFCURVE",
"563 468 OFFCURVE",
"563 511 CURVE SMOOTH",
"563 547 OFFCURVE",
"555 580 OFFCURVE",
"532 608 CURVE SMOOTH",
"496 653 OFFCURVE",
"442 679 OFFCURVE",
"363 679 CURVE SMOOTH",
"70 679 LINE",
"70 0 LINE"
);
},
{
closed = 1;
nodes = (
"161 318 LINE",
"343 318 LINE SMOOTH",
"382 318 OFFCURVE",
"414 313 OFFCURVE",
"437 304 CURVE SMOOTH",
"481 286 OFFCURVE",
"503 252 OFFCURVE",
"503 202 CURVE SMOOTH",
"503 173 OFFCURVE",
"496 147 OFFCURVE",
"479 127 CURVE SMOOTH",
"450 92 OFFCURVE",
"412 77 OFFCURVE",
"358 77 CURVE SMOOTH",
"161 77 LINE"
);
},
{
closed = 1;
nodes = (
"161 603 LINE",
"327 603 LINE SMOOTH",
"365 603 OFFCURVE",
"396 598 OFFCURVE",
"417 590 CURVE SMOOTH",
"453 576 OFFCURVE",
"471 545 OFFCURVE",
"471 500 CURVE SMOOTH",
"471 456 OFFCURVE",
"452 425 OFFCURVE",
"419 408 CURVE SMOOTH",
"398 397 OFFCURVE",
"367 392 OFFCURVE",
"329 392 CURVE SMOOTH",
"161 392 LINE"
);
}
);
width = 666;
},
{
layerId = "5DC7B242-CF95-40E7-B7B6-33B4F09A6622";
paths = (
{
closed = 1;
nodes = (
"286 0 LINE SMOOTH",
"354 0 OFFCURVE",
"409 21 OFFCURVE",
"443 78 CURVE SMOOTH",
"465 115 OFFCURVE",
"477 154 OFFCURVE",
"477 198 CURVE SMOOTH",
"477 249 OFFCURVE",
"464 291 OFFCURVE",
"440 320 CURVE SMOOTH",
"426 337 OFFCURVE",
"405 352 OFFCURVE",
"378 366 CURVE",
"396 378 OFFCURVE",
"412 394 OFFCURVE",
"421 406 CURVE SMOOTH",
"441 433 OFFCURVE",
"450 470 OFFCURVE",
"450 511 CURVE SMOOTH",
"450 548 OFFCURVE",
"444 580 OFFCURVE",
"425 609 CURVE SMOOTH",
"397 653 OFFCURVE",
"353 679 OFFCURVE",
"290 679 CURVE SMOOTH",
"56 679 LINE",
"56 0 LINE"
);
},
{
closed = 1;
nodes = (
"129 318 LINE",
"274 318 LINE SMOOTH",
"307 318 OFFCURVE",
"334 312 OFFCURVE",
"350 304 CURVE SMOOTH",
"385 286 OFFCURVE",
"402 251 OFFCURVE",
"402 202 CURVE SMOOTH",
"402 173 OFFCURVE",
"397 147 OFFCURVE",
"383 127 CURVE SMOOTH",
"355 85 OFFCURVE",
"321 77 OFFCURVE",
"286 77 CURVE SMOOTH",
"129 77 LINE"
);
},
{
closed = 1;
nodes = (
"129 603 LINE",
"262 603 LINE SMOOTH",
"291 603 OFFCURVE",
"317 598 OFFCURVE",
"334 590 CURVE SMOOTH",
"362 576 OFFCURVE",
"377 545 OFFCURVE",
"377 500 CURVE SMOOTH",
"377 457 OFFCURVE",
"362 425 OFFCURVE",
"335 408 CURVE SMOOTH",
"318 397 OFFCURVE",
"295 392 OFFCURVE",
"263 392 CURVE SMOOTH",
"129 392 LINE"
);
}
);
width = 533;
}
);
note = B;
unicode = 0042;
},
{
glyphname = C;
lastChange = "2019-03-09 00:04:35 +0000";
layers = (
{
layerId = "994FE389-9D54-4FAA-B055-C46A67020E78";
paths = (
{
closed = 1;
nodes = (
"455 -7 OFFCURVE",
"526 22 OFFCURVE",
"579 77 CURVE SMOOTH",
"623 124 OFFCURVE",
"648 183 OFFCURVE",
"655 253 CURVE",
"569 253 LINE",
"560 209 OFFCURVE",
"546 174 OFFCURVE",
"527 147 CURVE SMOOTH",
"491 97 OFFCURVE",
"443 71 OFFCURVE",
"377 71 CURVE SMOOTH",
"306 71 OFFCURVE",
"253 96 OFFCURVE",
"216 144 CURVE SMOOTH",
"180 191 OFFCURVE",
"161 254 OFFCURVE",
"161 332 CURVE SMOOTH",
"161 426 OFFCURVE",
"182 496 OFFCURVE",
"222 542 CURVE SMOOTH",
"262 587 OFFCURVE",
"314 609 OFFCURVE",
"378 609 CURVE SMOOTH",
"433 609 OFFCURVE",
"473 597 OFFCURVE",
"503 573 CURVE SMOOTH",
"532 549 OFFCURVE",
"553 514 OFFCURVE",
"563 471 CURVE",
"650 471 LINE",
"644 527 OFFCURVE",
"620 577 OFFCURVE",
"573 622 CURVE SMOOTH",
"525 667 OFFCURVE",
"458 687 OFFCURVE",
"377 687 CURVE SMOOTH",
"283 687 OFFCURVE",
"208 658 OFFCURVE",
"147 586 CURVE SMOOTH",
"91 520 OFFCURVE",
"70 439 OFFCURVE",
"70 347 CURVE SMOOTH",
"70 218 OFFCURVE",
"105 124 OFFCURVE",
"173 63 CURVE SMOOTH",
"225 16 OFFCURVE",
"290 -7 OFFCURVE",
"366 -7 CURVE SMOOTH"
);
}
);
width = 725;
},
{
layerId = "5DC7B242-CF95-40E7-B7B6-33B4F09A6622";
paths = (
{
closed = 1;
nodes = (
"364 -7 OFFCURVE",
"421 22 OFFCURVE",
"463 77 CURVE SMOOTH",
"498 124 OFFCURVE",
"518 180 OFFCURVE",
"524 253 CURVE",
"455 253 LINE",
"448 209 OFFCURVE",
"437 174 OFFCURVE",
"421 146 CURVE SMOOTH",
"393 97 OFFCURVE",
"354 71 OFFCURVE",
"302 71 CURVE SMOOTH",
"245 71 OFFCURVE",
"202 96 OFFCURVE",
"172 145 CURVE SMOOTH",
"144 191 OFFCURVE",
"129 256 OFFCURVE",
"129 332 CURVE SMOOTH",
"129 427 OFFCURVE",
"146 496 OFFCURVE",
"177 541 CURVE SMOOTH",
"210 587 OFFCURVE",
"250 609 OFFCURVE",
"302 609 CURVE SMOOTH",
"348 609 OFFCURVE",
"378 597 OFFCURVE",
"402 573 CURVE SMOOTH",
"426 549 OFFCURVE",
"442 515 OFFCURVE",
"450 471 CURVE",
"520 471 LINE",
"515 527 OFFCURVE",
"496 577 OFFCURVE",
"459 621 CURVE SMOOTH",
"420 667 OFFCURVE",
"368 687 OFFCURVE",
"302 687 CURVE SMOOTH",
"226 687 OFFCURVE",
"166 658 OFFCURVE",
"117 585 CURVE SMOOTH",
"73 520 OFFCURVE",
"56 439 OFFCURVE",
"56 347 CURVE SMOOTH",
"56 217 OFFCURVE",
"84 124 OFFCURVE",
"138 64 CURVE SMOOTH",
"180 16 OFFCURVE",
"230 -7 OFFCURVE",
"293 -7 CURVE SMOOTH"
);
}
);
width = 580;
}
);
note = C;
unicode = 0043;
},
{
glyphname = D;
lastChange = "2019-03-09 00:04:35 +0000";
layers = (
{
layerId = "994FE389-9D54-4FAA-B055-C46A67020E78";
paths = (
{
closed = 1;
nodes = (
"346 1 LINE SMOOTH",
"461 1 OFFCURVE",
"543 53 OFFCURVE",
"592 156 CURVE SMOOTH",
"620 213 OFFCURVE",
"633 279 OFFCURVE",
"633 351 CURVE SMOOTH",
"633 449 OFFCURVE",
"609 523 OFFCURVE",
"562 581 CURVE SMOOTH",
"501 657 OFFCURVE",
"427 681 OFFCURVE",
"347 681 CURVE SMOOTH",
"70 681 LINE",
"70 1 LINE"
);
},
{
closed = 1;
nodes = (
"163 603 LINE",
"327 603 LINE SMOOTH",
"400 603 OFFCURVE",
"457 579 OFFCURVE",
"489 533 CURVE SMOOTH",
"521 486 OFFCURVE",
"539 420 OFFCURVE",
"539 336 CURVE SMOOTH",
"539 314 OFFCURVE",
"537 290 OFFCURVE",
"532 265 CURVE SMOOTH",
"524 220 OFFCURVE",
"510 186 OFFCURVE",
"492 159 CURVE SMOOTH",
"469 124 OFFCURVE",
"440 101 OFFCURVE",
"404 89 CURVE SMOOTH",
"385 83 OFFCURVE",
"357 78 OFFCURVE",
"328 78 CURVE SMOOTH",
"163 78 LINE"
);
}
);
width = 703;
},
{
layerId = "5DC7B242-CF95-40E7-B7B6-33B4F09A6622";
paths = (
{
closed = 1;
nodes = (
"277 1 LINE SMOOTH",
"368 1 OFFCURVE",
"434 53 OFFCURVE",
"473 154 CURVE SMOOTH",
"496 213 OFFCURVE",
"506 279 OFFCURVE",
"506 351 CURVE SMOOTH",
"506 451 OFFCURVE",
"487 523 OFFCURVE",
"449 582 CURVE SMOOTH",
"401 657 OFFCURVE",
"341 681 OFFCURVE",
"278 681 CURVE SMOOTH",
"56 681 LINE",
"56 1 LINE"
);
},
{
closed = 1;
nodes = (
"130 603 LINE",
"262 603 LINE SMOOTH",
"320 603 OFFCURVE",
"366 579 OFFCURVE",
"391 533 CURVE SMOOTH",
"417 486 OFFCURVE",
"431 420 OFFCURVE",
"431 336 CURVE SMOOTH",
"431 311 OFFCURVE",
"429 287 OFFCURVE",
"426 267 CURVE SMOOTH",
"419 218 OFFCURVE",
"408 186 OFFCURVE",
"393 158 CURVE SMOOTH",
"375 124 OFFCURVE",
"352 101 OFFCURVE",
"323 89 CURVE SMOOTH",
"308 83 OFFCURVE",
"286 78 OFFCURVE",
"262 78 CURVE SMOOTH",
"130 78 LINE"
);
}
);
width = 562;
}
);
note = D;
unicode = 0044;
},
{
glyphname = E;
lastChange = "2019-03-09 00:04:35 +0000";
layers = (
{
layerId = "994FE389-9D54-4FAA-B055-C46A67020E78";
paths = (
{
closed = 1;
nodes = (
"575 0 LINE",
"575 80 LINE",
"160 80 LINE",
"160 313 LINE",
"536 313 LINE",
"536 391 LINE",
"160 391 LINE",
"160 598 LINE",
"568 598 LINE",
"568 682 LINE",
"70 682 LINE",
"70 0 LINE"
);
}
);
width = 645;
},
{
layerId = "5DC7B242-CF95-40E7-B7B6-33B4F09A6622";
paths = (
{
closed = 1;
nodes = (
"460 0 LINE",
"460 80 LINE",
"128 80 LINE",
"128 313 LINE",
"429 313 LINE",
"429 391 LINE",
"128 391 LINE",
"128 598 LINE",
"454 598 LINE",
"454 682 LINE",
"56 682 LINE",
"56 0 LINE"
);
}
);
width = 516;
}
);
note = E;
unicode = 0045;
},
{
glyphname = F;
lastChange = "2019-03-09 00:04:35 +0000";
layers = (
{
layerId = "994FE389-9D54-4FAA-B055-C46A67020E78";
paths = (
{
closed = 1;
nodes = (
"162 0 LINE",
"162 309 LINE",
"496 309 LINE",
"496 391 LINE",
"162 391 LINE",
"162 597 LINE",
"542 597 LINE",
"542 681 LINE",
"70 681 LINE",
"70 0 LINE"
);
}
);
width = 612;
},
{
layerId = "5DC7B242-CF95-40E7-B7B6-33B4F09A6622";
paths = (
{
closed = 1;
nodes = (
"130 0 LINE",
"130 309 LINE",
"397 309 LINE",
"397 391 LINE",
"130 391 LINE",
"130 597 LINE",
"434 597 LINE",
"434 681 LINE",
"56 681 LINE",
"56 0 LINE"
);
}
);
width = 490;
}
);
note = F;
unicode = 0046;
},
{
glyphname = G;
lastChange = "2019-03-09 00:04:35 +0000";
layers = (
{
layerId = "994FE389-9D54-4FAA-B055-C46A67020E78";
paths = (
{
closed = 1;
nodes = (
"429 -11 OFFCURVE",
"478 -2 OFFCURVE",
"520 23 CURVE SMOOTH",
"541 36 OFFCURVE",
"569 59 OFFCURVE",
"600 92 CURVE",
"622 6 LINE",
"680 6 LINE",
"680 364 LINE",
"386 364 LINE",
"386 288 LINE",
"595 288 LINE",
"594 210 OFFCURVE",
"574 155 OFFCURVE",
"535 118 CURVE SMOOTH",
"496 82 OFFCURVE",
"445 66 OFFCURVE",
"385 66 CURVE SMOOTH",
"306 66 OFFCURVE",
"249 93 OFFCURVE",
"215 142 CURVE SMOOTH",
"180 192 OFFCURVE",
"162 256 OFFCURVE",
"162 336 CURVE SMOOTH",
"162 430 OFFCURVE",
"184 499 OFFCURVE",
"226 543 CURVE SMOOTH",
"269 588 OFFCURVE",
"324 613 OFFCURVE",
"382 613 CURVE SMOOTH",
"434 613 OFFCURVE",
"477 601 OFFCURVE",
"511 579 CURVE SMOOTH",
"546 557 OFFCURVE",
"568 521 OFFCURVE",
"580 472 CURVE",
"669 472 LINE",
"654 560 OFFCURVE",
"614 621 OFFCURVE",
"548 655 CURVE SMOOTH",
"501 679 OFFCURVE",
"450 692 OFFCURVE",
"385 692 CURVE SMOOTH",
"292 692 OFFCURVE",
"218 661 OFFCURVE",
"161 597 CURVE SMOOTH",
"101 530 OFFCURVE",
"70 443 OFFCURVE",
"70 331 CURVE SMOOTH",
"70 217 OFFCURVE",
"101 130 OFFCURVE",
"163 66 CURVE",
"220 15 OFFCURVE",
"288 -11 OFFCURVE",
"368 -11 CURVE SMOOTH"
);
}
);
width = 750;
},
{
layerId = "5DC7B242-CF95-40E7-B7B6-33B4F09A6622";
paths = (
{
closed = 1;
nodes = (
"343 -11 OFFCURVE",
"382 -2 OFFCURVE",
"416 23 CURVE SMOOTH",
"433 36 OFFCURVE",
"456 61 OFFCURVE",
"480 92 CURVE",
"498 6 LINE",
"544 6 LINE",
"544 364 LINE",
"309 364 LINE",
"309 288 LINE",
"476 288 LINE",
"475 210 OFFCURVE",
"459 155 OFFCURVE",
"428 118 CURVE SMOOTH",
"397 82 OFFCURVE",
"355 66 OFFCURVE",
"308 66 CURVE SMOOTH",
"245 66 OFFCURVE",
"199 93 OFFCURVE",
"172 142 CURVE SMOOTH",
"144 192 OFFCURVE",
"130 256 OFFCURVE",
"130 336 CURVE SMOOTH",
"130 428 OFFCURVE",
"147 499 OFFCURVE",
"180 542 CURVE SMOOTH",
"215 588 OFFCURVE",
"259 613 OFFCURVE",
"306 613 CURVE SMOOTH",
"346 613 OFFCURVE",
"382 601 OFFCURVE",
"409 579 CURVE SMOOTH",
"437 557 OFFCURVE",
"455 519 OFFCURVE",
"464 472 CURVE",
"535 472 LINE",
"524 557 OFFCURVE",
"491 621 OFFCURVE",
"440 654 CURVE SMOOTH",
"401 679 OFFCURVE",
"361 692 OFFCURVE",
"308 692 CURVE SMOOTH",
"236 692 OFFCURVE",
"177 664 OFFCURVE",
"129 597 CURVE SMOOTH",
"81 530 OFFCURVE",
"56 445 OFFCURVE",
"56 331 CURVE SMOOTH",
"56 217 OFFCURVE",
"81 130 OFFCURVE",
"130 66 CURVE",
"176 15 OFFCURVE",
"231 -11 OFFCURVE",
"294 -11 CURVE SMOOTH"
);
}
);
width = 600;
}
);
note = G;
unicode = 0047;
},
{
glyphname = H;
lastChange = "2019-03-09 00:04:35 +0000";
layers = (
{
layerId = "994FE389-9D54-4FAA-B055-C46A67020E78";
paths = (
{
closed = 1;
nodes = (
"163 0 LINE",
"163 317 LINE",
"516 317 LINE",
"516 0 LINE",
"610 0 LINE",
"610 680 LINE",
"516 680 LINE",
"516 399 LINE",
"163 399 LINE",
"163 680 LINE",
"70 680 LINE",
"70 0 LINE"
);
}
);
width = 680;
},
{
layerId = "5DC7B242-CF95-40E7-B7B6-33B4F09A6622";
paths = (
{
closed = 1;
nodes = (
"130 0 LINE",
"130 317 LINE",
"413 317 LINE",
"413 0 LINE",
"488 0 LINE",
"488 680 LINE",
"413 680 LINE",
"413 399 LINE",
"130 399 LINE",
"130 680 LINE",
"56 680 LINE",
"56 0 LINE"
);
}
);
width = 544;
}
);
note = H;
unicode = 0048;
},
{
glyphname = I;
lastChange = "2019-03-09 00:04:35 +0000";
layers = (
{
layerId = "994FE389-9D54-4FAA-B055-C46A67020E78";
paths = (
{
closed = 1;
nodes = (
"163 0 LINE",
"163 683 LINE",
"70 683 LINE",
"70 0 LINE"
);
}
);
width = 233;
},
{
layerId = "5DC7B242-CF95-40E7-B7B6-33B4F09A6622";
paths = (
{
closed = 1;
nodes = (
"130 0 LINE",
"130 683 LINE",
"56 683 LINE",
"56 0 LINE"
);
}
);
width = 186;
}
);
note = I;
unicode = 0049;
},
{
glyphname = J;
lastChange = "2019-03-09 00:04:35 +0000";
layers = (
{
layerId = "994FE389-9D54-4FAA-B055-C46A67020E78";
paths = (
{
closed = 1;
nodes = (
"335 -8 OFFCURVE",
"395 16 OFFCURVE",
"430 77 CURVE SMOOTH",
"450 112 OFFCURVE",
"456 156 OFFCURVE",
"456 210 CURVE SMOOTH",
"456 682 LINE",
"366 682 LINE",
"366 234 LINE SMOOTH",
"366 177 OFFCURVE",
"360 137 OFFCURVE",
"352 118 CURVE SMOOTH",
"338 84 OFFCURVE",
"305 67 OFFCURVE",
"257 67 CURVE SMOOTH",
"222 67 OFFCURVE",
"197 77 OFFCURVE",
"180 96 CURVE SMOOTH",
"163 115 OFFCURVE",
"156 142 OFFCURVE",
"156 179 CURVE SMOOTH",
"156 227 LINE",
"70 227 LINE",
"70 179 LINE SMOOTH",
"70 109 OFFCURVE",
"89 61 OFFCURVE",
"124 33 CURVE SMOOTH",
"160 5 OFFCURVE",
"202 -8 OFFCURVE",
"252 -8 CURVE SMOOTH"
);
}
);
width = 526;
},
{
layerId = "5DC7B242-CF95-40E7-B7B6-33B4F09A6622";
paths = (
{
closed = 1;
nodes = (
"268 -8 OFFCURVE",
"316 16 OFFCURVE",
"344 77 CURVE SMOOTH",
"360 112 OFFCURVE",
"365 156 OFFCURVE",
"365 210 CURVE SMOOTH",
"365 682 LINE",
"293 682 LINE",
"293 234 LINE SMOOTH",
"293 179 OFFCURVE",
"288 137 OFFCURVE",
"282 119 CURVE SMOOTH",
"270 84 OFFCURVE",
"245 67 OFFCURVE",
"206 67 CURVE SMOOTH",
"178 67 OFFCURVE",
"158 77 OFFCURVE",
"144 96 CURVE SMOOTH",
"130 115 OFFCURVE",
"125 145 OFFCURVE",
"125 179 CURVE SMOOTH",
"125 227 LINE",
"56 227 LINE",
"56 179 LINE SMOOTH",
"56 110 OFFCURVE",
"71 61 OFFCURVE",
"99 33 CURVE SMOOTH",
"128 5 OFFCURVE",
"162 -8 OFFCURVE",
"202 -8 CURVE SMOOTH"
);
}
);
width = 421;
}
);
note = J;
unicode = 004A;
},
{
glyphname = K;
lastChange = "2019-03-09 00:04:35 +0000";
layers = (
{
layerId = "994FE389-9D54-4FAA-B055-C46A67020E78";
paths = (
{
closed = 1;
nodes = (
"160 0 LINE",
"160 237 LINE",
"268 342 LINE",
"508 0 LINE",
"628 0 LINE",
"337 406 LINE",
"620 681 LINE",
"493 681 LINE",
"160 349 LINE",
"160 681 LINE",
"70 681 LINE",
"70 0 LINE"
);
}
);
width = 698;
},
{
layerId = "5DC7B242-CF95-40E7-B7B6-33B4F09A6622";
paths = (
{
closed = 1;
nodes = (
"128 0 LINE",
"128 237 LINE",
"214 342 LINE",
"406 0 LINE",
"502 0 LINE",
"270 406 LINE",
"496 681 LINE",
"394 681 LINE",
"128 349 LINE",
"128 681 LINE",
"56 681 LINE",
"56 0 LINE"
);
}
);
width = 558;
}
);
note = K;
unicode = 004B;
},
{
glyphname = L;
lastChange = "2019-03-09 00:04:35 +0000";
layers = (
{
layerId = "994FE389-9D54-4FAA-B055-C46A67020E78";
paths = (
{
closed = 1;
nodes = (
"506 0 LINE",
"506 82 LINE",
"162 82 LINE",
"162 679 LINE",
"70 679 LINE",
"70 0 LINE"
);
}
);
width = 576;
},
{
layerId = "5DC7B242-CF95-40E7-B7B6-33B4F09A6622";
paths = (
{
closed = 1;
nodes = (
"405 0 LINE",
"405 82 LINE",
"130 82 LINE",
"130 679 LINE",
"56 679 LINE",
"56 0 LINE"
);
}
);
width = 461;
}
);
note = L;
unicode = 004C;
},
{
glyphname = M;
lastChange = "2019-03-09 00:04:35 +0000";
layers = (
{
layerId = "994FE389-9D54-4FAA-B055-C46A67020E78";
paths = (
{
closed = 1;
nodes = (
"158 1 LINE",
"158 402 LINE SMOOTH",
"158 418 OFFCURVE",
"158 444 OFFCURVE",
"157 478 CURVE SMOOTH",
"156 512 OFFCURVE",
"155 537 OFFCURVE",
"155 554 CURVE SMOOTH",
"155 576 LINE",
"352 1 LINE",
"443 1 LINE",
"638 576 LINE",
"638 472 LINE SMOOTH",
"638 439 OFFCURVE",
"637 416 OFFCURVE",
"637 402 CURVE SMOOTH",
"637 1 LINE",
"723 1 LINE",
"723 681 LINE",
"593 681 LINE",
"398 106 LINE",
"202 681 LINE",
"70 681 LINE",
"70 1 LINE"
);
}
);
width = 793;
},
{
layerId = "5DC7B242-CF95-40E7-B7B6-33B4F09A6622";
paths = (
{
closed = 1;
nodes = (
"126 1 LINE",
"126 402 LINE SMOOTH",
"126 418 OFFCURVE",
"126 444 OFFCURVE",
"126 478 CURVE SMOOTH",
"126 512 OFFCURVE",
"124 537 OFFCURVE",
"124 554 CURVE SMOOTH",
"124 576 LINE",
"282 1 LINE",
"354 1 LINE",
"510 576 LINE",
"510 472 LINE SMOOTH",
"510 439 OFFCURVE",
"510 416 OFFCURVE",
"510 402 CURVE SMOOTH",
"510 1 LINE",
"578 1 LINE",
"578 681 LINE",
"474 681 LINE",
"318 106 LINE",
"162 681 LINE",
"56 681 LINE",
"56 1 LINE"
);
}
);
width = 634;
}
);
note = M;
unicode = 004D;
},
{
glyphname = N;
lastChange = "2019-03-09 00:04:35 +0000";
layers = (
{
layerId = "994FE389-9D54-4FAA-B055-C46A67020E78";
paths = (
{
closed = 1;
nodes = (
"159 -2 LINE",
"159 551 LINE",
"509 -2 LINE",
"612 -2 LINE",
"612 682 LINE",
"525 682 LINE",
"525 128 LINE",
"180 682 LINE",
"70 682 LINE",
"70 -2 LINE"
);
}
);
width = 682;
},
{
layerId = "5DC7B242-CF95-40E7-B7B6-33B4F09A6622";
paths = (
{
closed = 1;
nodes = (
"127 -2 LINE",
"127 551 LINE",
"407 -2 LINE",
"490 -2 LINE",
"490 682 LINE",
"420 682 LINE",
"420 128 LINE",
"144 682 LINE",
"56 682 LINE",
"56 -2 LINE"
);
}
);
width = 546;
}
);
note = N;
unicode = 004E;
},
{
glyphname = O;
lastChange = "2019-03-09 00:04:35 +0000";
layers = (
{
layerId = "994FE389-9D54-4FAA-B055-C46A67020E78";
paths = (
{
closed = 1;
nodes = (
"492 -10 OFFCURVE",
"576 29 OFFCURVE",
"634 104 CURVE SMOOTH",
"686 171 OFFCURVE",
"709 252 OFFCURVE",
"710 349 CURVE SMOOTH",
"711 423 OFFCURVE",
"688 515 OFFCURVE",
"645 572 CURVE SMOOTH",
"588 646 OFFCURVE",
"503 685 OFFCURVE",
"387 685 CURVE SMOOTH",
"279 685 OFFCURVE",
"193 644 OFFCURVE",
"135 562 CURVE SMOOTH",
"91 499 OFFCURVE",
"70 423 OFFCURVE",
"70 335 CURVE SMOOTH",
"70 236 OFFCURVE",
"95 156 OFFCURVE",
"147 90 CURVE",
"205 24 OFFCURVE",
"285 -10 OFFCURVE",
"385 -10 CURVE SMOOTH"
);
},
{
closed = 1;
nodes = (
"314 70 OFFCURVE",
"255 95 OFFCURVE",
"217 144 CURVE SMOOTH",
"179 194 OFFCURVE",
"162 254 OFFCURVE",
"162 328 CURVE SMOOTH",
"162 415 OFFCURVE",
"182 488 OFFCURVE",
"226 536 CURVE SMOOTH",
"269 583 OFFCURVE",
"328 606 OFFCURVE",
"393 606 CURVE SMOOTH",
"463 606 OFFCURVE",
"517 581 OFFCURVE",
"558 535 CURVE SMOOTH",
"599 488 OFFCURVE",
"618 426 OFFCURVE",
"618 348 CURVE SMOOTH",
"618 275 OFFCURVE",
"601 211 OFFCURVE",
"566 155 CURVE SMOOTH",
"531 97 OFFCURVE",
"474 70 OFFCURVE",
"396 70 CURVE SMOOTH"
);
}
);
width = 780;
},
{
layerId = "5DC7B242-CF95-40E7-B7B6-33B4F09A6622";
paths = (
{
closed = 1;
nodes = (
"394 -10 OFFCURVE",
"461 29 OFFCURVE",
"507 104 CURVE SMOOTH",
"550 174 OFFCURVE",
"567 252 OFFCURVE",
"568 349 CURVE SMOOTH",
"569 423 OFFCURVE",
"549 516 OFFCURVE",
"516 572 CURVE SMOOTH",
"469 649 OFFCURVE",
"398 685 OFFCURVE",
"310 685 CURVE SMOOTH",
"224 685 OFFCURVE",
"154 644 OFFCURVE",
"108 562 CURVE SMOOTH",
"73 499 OFFCURVE",
"56 424 OFFCURVE",
"56 335 CURVE SMOOTH",
"56 236 OFFCURVE",
"76 156 OFFCURVE",
"118 90 CURVE",
"164 24 OFFCURVE",
"228 -10 OFFCURVE",
"308 -10 CURVE SMOOTH"
);
},
{
closed = 1;
nodes = (
"251 70 OFFCURVE",
"204 95 OFFCURVE",
"173 145 CURVE SMOOTH",
"143 194 OFFCURVE",
"130 256 OFFCURVE",
"130 328 CURVE SMOOTH",
"130 418 OFFCURVE",
"146 488 OFFCURVE",
"181 536 CURVE SMOOTH",
"215 583 OFFCURVE",
"262 606 OFFCURVE",
"314 606 CURVE SMOOTH",
"371 606 OFFCURVE",
"414 581 OFFCURVE",
"447 534 CURVE SMOOTH",
"479 488 OFFCURVE",
"494 426 OFFCURVE",
"494 348 CURVE SMOOTH",
"494 277 OFFCURVE",
"481 211 OFFCURVE",
"453 155 CURVE SMOOTH",
"425 97 OFFCURVE",
"378 70 OFFCURVE",
"317 70 CURVE SMOOTH"
);
}
);
width = 624;
}
);
note = O;
unicode = 004F;
},
{
glyphname = P;
lastChange = "2019-03-09 00:04:35 +0000";
layers = (
{
layerId = "994FE389-9D54-4FAA-B055-C46A67020E78";
paths = (
{
closed = 1;
nodes = (
"162 0 LINE",
"162 288 LINE",
"377 288 LINE SMOOTH",
"446 288 OFFCURVE",
"497 307 OFFCURVE",
"530 347 CURVE SMOOTH",
"562 386 OFFCURVE",
"580 433 OFFCURVE",
"580 486 CURVE SMOOTH",
"580 548 OFFCURVE",
"561 596 OFFCURVE",
"524 631 CURVE SMOOTH",
"487 666 OFFCURVE",
"438 682 OFFCURVE",
"377 682 CURVE SMOOTH",
"70 682 LINE",
"70 0 LINE"
);
},
{
closed = 1;
nodes = (
"162 603 LINE",
"346 603 LINE SMOOTH",
"382 603 OFFCURVE",
"410 597 OFFCURVE",
"431 588 CURVE SMOOTH",
"468 572 OFFCURVE",
"486 536 OFFCURVE",
"486 486 CURVE SMOOTH",
"486 441 OFFCURVE",
"472 410 OFFCURVE",
"448 392 CURVE SMOOTH",
"423 374 OFFCURVE",
"388 366 OFFCURVE",
"346 366 CURVE SMOOTH",
"162 366 LINE"
);
}
);
width = 650;
},
{
layerId = "5DC7B242-CF95-40E7-B7B6-33B4F09A6622";
paths = (
{
closed = 1;
nodes = (
"130 0 LINE",
"130 288 LINE",
"302 288 LINE SMOOTH",
"356 288 OFFCURVE",
"398 307 OFFCURVE",
"424 347 CURVE SMOOTH",
"450 386 OFFCURVE",
"464 435 OFFCURVE",
"464 486 CURVE SMOOTH",
"464 547 OFFCURVE",
"449 596 OFFCURVE",
"420 630 CURVE SMOOTH",
"389 667 OFFCURVE",
"350 682 OFFCURVE",
"302 682 CURVE SMOOTH",
"56 682 LINE",
"56 0 LINE"
);
},
{
closed = 1;
nodes = (
"130 603 LINE",
"277 603 LINE SMOOTH",
"305 603 OFFCURVE",
"328 597 OFFCURVE",
"345 588 CURVE SMOOTH",
"374 572 OFFCURVE",
"389 537 OFFCURVE",
"389 486 CURVE SMOOTH",
"389 441 OFFCURVE",
"378 410 OFFCURVE",
"358 392 CURVE SMOOTH",
"338 374 OFFCURVE",
"312 366 OFFCURVE",
"277 366 CURVE SMOOTH",
"130 366 LINE"
);
}
);
width = 520;
}
);
note = P;
unicode = 0050;
},
{
glyphname = Q;
lastChange = "2019-03-09 00:04:35 +0000";
layers = (
{
layerId = "994FE389-9D54-4FAA-B055-C46A67020E78";
paths = (
{
closed = 1;
nodes = (
"705 15 LINE",
"615 84 LINE",
"652 122 OFFCURVE",
"679 170 OFFCURVE",
"695 230 CURVE SMOOTH",
"705 268 OFFCURVE",
"709 307 OFFCURVE",
"709 352 CURVE SMOOTH",
"709 447 OFFCURVE",
"684 521 OFFCURVE",
"646 573 CURVE SMOOTH",
"589 651 OFFCURVE",
"504 686 OFFCURVE",
"387 686 CURVE SMOOTH",
"276 686 OFFCURVE",
"193 646 OFFCURVE",
"136 565 CURVE SMOOTH",
"92 501 OFFCURVE",
"70 426 OFFCURVE",
"70 337 CURVE SMOOTH",
"70 239 OFFCURVE",
"96 157 OFFCURVE",
"146 93 CURVE",
"204 26 OFFCURVE",
"285 -7 OFFCURVE",
"386 -7 CURVE SMOOTH",
"419 -7 OFFCURVE",
"451 -4 OFFCURVE",
"479 6 CURVE SMOOTH",
"506 15 OFFCURVE",
"534 24 OFFCURVE",
"558 37 CURVE",
"660 -40 LINE"
);
},
{
closed = 1;
nodes = (
"319 72 OFFCURVE",
"261 96 OFFCURVE",
"222 143 CURVE SMOOTH",
"183 190 OFFCURVE",
"162 252 OFFCURVE",
"163 331 CURVE SMOOTH",
"164 425 OFFCURVE",
"183 494 OFFCURVE",
"224 539 CURVE SMOOTH",
"266 585 OFFCURVE",
"322 607 OFFCURVE",
"393 607 CURVE SMOOTH",
"466 607 OFFCURVE",
"519 582 OFFCURVE",
"558 536 CURVE SMOOTH",
"598 490 OFFCURVE",
"619 427 OFFCURVE",
"619 350 CURVE SMOOTH",
"619 315 OFFCURVE",
"614 278 OFFCURVE",
"605 240 CURVE SMOOTH",
"595 201 OFFCURVE",
"576 166 OFFCURVE",
"549 136 CURVE",
"463 203 LINE",
"419 147 LINE",
"491 91 LINE",
"478 84 OFFCURVE",
"464 79 OFFCURVE",
"448 76 CURVE",
"433 74 OFFCURVE",
"414 72 OFFCURVE",
"396 72 CURVE SMOOTH"
);
}
);
width = 779;
},
{
layerId = "5DC7B242-CF95-40E7-B7B6-33B4F09A6622";
paths = (
{
closed = 1;
nodes = (
"564 15 LINE",
"492 84 LINE",
"522 123 OFFCURVE",
"543 170 OFFCURVE",
"556 230 CURVE SMOOTH",
"564 268 OFFCURVE",
"567 307 OFFCURVE",
"567 352 CURVE SMOOTH",
"567 447 OFFCURVE",
"547 521 OFFCURVE",
"517 573 CURVE SMOOTH",
"471 651 OFFCURVE",
"403 686 OFFCURVE",
"310 686 CURVE SMOOTH",
"221 686 OFFCURVE",
"154 646 OFFCURVE",
"109 565 CURVE SMOOTH",
"74 501 OFFCURVE",
"56 429 OFFCURVE",
"56 337 CURVE SMOOTH",
"56 238 OFFCURVE",
"77 157 OFFCURVE",
"117 93 CURVE",
"163 26 OFFCURVE",
"229 -7 OFFCURVE",
"309 -7 CURVE SMOOTH",
"335 -7 OFFCURVE",
"361 -4 OFFCURVE",
"383 6 CURVE SMOOTH",
"405 15 OFFCURVE",
"427 24 OFFCURVE",
"446 37 CURVE",
"528 -40 LINE"
);
},
{
closed = 1;
nodes = (
"254 72 OFFCURVE",
"209 96 OFFCURVE",
"177 144 CURVE SMOOTH",
"146 190 OFFCURVE",
"129 258 OFFCURVE",
"130 331 CURVE SMOOTH",
"131 425 OFFCURVE",
"148 497 OFFCURVE",
"179 539 CURVE SMOOTH",
"213 585 OFFCURVE",
"258 607 OFFCURVE",
"314 607 CURVE SMOOTH",
"374 607 OFFCURVE",
"415 582 OFFCURVE",
"447 535 CURVE SMOOTH",
"478 490 OFFCURVE",
"495 428 OFFCURVE",
"495 350 CURVE SMOOTH",
"495 313 OFFCURVE",
"491 278 OFFCURVE",
"484 240 CURVE SMOOTH",
"476 201 OFFCURVE",
"461 166 OFFCURVE",
"439 136 CURVE",
"370 203 LINE",
"335 147 LINE",
"393 91 LINE",
"382 84 OFFCURVE",
"373 79 OFFCURVE",
"358 76 CURVE",
"346 74 OFFCURVE",
"331 72 OFFCURVE",
"317 72 CURVE SMOOTH"
);
}
);
width = 623;
}
);
note = Q;
unicode = 0051;
},
{
glyphname = R;
lastChange = "2019-03-09 00:04:35 +0000";
layers = (
{
layerId = "994FE389-9D54-4FAA-B055-C46A67020E78";
paths = (
{
closed = 1;
nodes = (
"163 0 LINE",
"163 293 LINE",
"373 293 LINE SMOOTH",
"410 293 OFFCURVE",
"437 288 OFFCURVE",
"457 280 CURVE SMOOTH",
"489 267 OFFCURVE",
"504 234 OFFCURVE",
"506 190 CURVE SMOOTH",
"511 76 LINE SMOOTH",
"513 31 OFFCURVE",
"515 30 OFFCURVE",
"516 23 CURVE",
"517 14 OFFCURVE",
"520 6 OFFCURVE",
"523 0 CURVE",
"636 0 LINE",
"636 16 LINE",
"621 22 OFFCURVE",
"611 34 OFFCURVE",
"606 56 CURVE",
"602 69 OFFCURVE",
"600 89 OFFCURVE",
"599 116 CURVE SMOOTH",
"596 206 LINE",
"596 245 OFFCURVE",
"589 275 OFFCURVE",
"575 293 CURVE",
"561 309 OFFCURVE",
"541 324 OFFCURVE",
"514 334 CURVE",
"545 350 OFFCURVE",
"568 371 OFFCURVE",
"584 396 CURVE SMOOTH",
"601 423 OFFCURVE",
"610 457 OFFCURVE",
"610 496 CURVE SMOOTH",
"610 575 OFFCURVE",
"577 628 OFFCURVE",
"514 659 CURVE SMOOTH",
"480 676 OFFCURVE",
"433 680 OFFCURVE",
"386 680 CURVE SMOOTH",
"70 680 LINE",
"70 0 LINE"
);
},
{
closed = 1;
nodes = (
"163 601 LINE",
"388 601 LINE SMOOTH",
"419 601 OFFCURVE",
"445 596 OFFCURVE",
"465 587 CURVE",
"501 573 OFFCURVE",
"516 537 OFFCURVE",
"516 487 CURVE SMOOTH",
"516 444 OFFCURVE",
"504 412 OFFCURVE",
"479 394 CURVE SMOOTH",
"455 376 OFFCURVE",
"419 369 OFFCURVE",
"376 369 CURVE SMOOTH",
"163 369 LINE"
);
}
);
width = 706;
},
{
layerId = "5DC7B242-CF95-40E7-B7B6-33B4F09A6622";
paths = (
{
closed = 1;
nodes = (
"130 0 LINE",
"130 293 LINE",
"298 293 LINE SMOOTH",
"327 293 OFFCURVE",
"350 288 OFFCURVE",
"366 280 CURVE SMOOTH",
"391 267 OFFCURVE",
"403 234 OFFCURVE",
"405 190 CURVE SMOOTH",
"409 76 LINE SMOOTH",
"411 29 OFFCURVE",
"412 32 OFFCURVE",
"413 23 CURVE",
"414 10 OFFCURVE",
"417 5 OFFCURVE",
"418 0 CURVE",
"509 0 LINE",
"509 16 LINE",
"497 22 OFFCURVE",
"489 34 OFFCURVE",
"485 56 CURVE",
"481 70 OFFCURVE",
"480 86 OFFCURVE",
"479 116 CURVE SMOOTH",
"477 206 LINE",
"477 246 OFFCURVE",
"471 275 OFFCURVE",
"460 293 CURVE",
"449 309 OFFCURVE",
"432 324 OFFCURVE",
"411 334 CURVE",
"436 350 OFFCURVE",
"454 370 OFFCURVE",
"467 396 CURVE SMOOTH",
"481 423 OFFCURVE",
"488 457 OFFCURVE",
"488 496 CURVE SMOOTH",
"488 574 OFFCURVE",
"462 628 OFFCURVE",
"411 659 CURVE SMOOTH",
"383 677 OFFCURVE",
"342 680 OFFCURVE",
"309 680 CURVE SMOOTH",
"56 680 LINE",
"56 0 LINE"
);
},
{
closed = 1;
nodes = (
"130 601 LINE",
"310 601 LINE SMOOTH",
"335 601 OFFCURVE",
"356 596 OFFCURVE",
"372 587 CURVE",
"401 573 OFFCURVE",
"413 536 OFFCURVE",
"413 487 CURVE SMOOTH",
"413 443 OFFCURVE",
"403 412 OFFCURVE",
"383 394 CURVE SMOOTH",
"362 375 OFFCURVE",
"335 369 OFFCURVE",
"301 369 CURVE SMOOTH",
"130 369 LINE"
);
}
);
width = 565;
}
);
note = R;
unicode = 0052;
},
{
glyphname = S;
lastChange = "2019-03-09 00:04:35 +0000";
layers = (
{
layerId = "994FE389-9D54-4FAA-B055-C46A67020E78";
paths = (
{
closed = 1;
nodes = (
"406 -9 OFFCURVE",
"468 7 OFFCURVE",
"522 37 CURVE SMOOTH",
"576 68 OFFCURVE",
"603 123 OFFCURVE",
"603 197 CURVE SMOOTH",
"603 257 OFFCURVE",
"582 302 OFFCURVE",
"539 333 CURVE SMOOTH",
"513 352 OFFCURVE",
"480 366 OFFCURVE",
"434 376 CURVE SMOOTH",
"341 397 LINE SMOOTH",
"278 411 OFFCURVE",
"237 424 OFFCURVE",
"220 433 CURVE SMOOTH",
"192 447 OFFCURVE",
"178 473 OFFCURVE",
"178 505 CURVE SMOOTH",
"178 536 OFFCURVE",
"189 561 OFFCURVE",
"213 583 CURVE SMOOTH",
"239 606 OFFCURVE",
"275 617 OFFCURVE",
"329 617 CURVE SMOOTH",
"394 617 OFFCURVE",
"441 598 OFFCURVE",
"469 566 CURVE",
"484 547 OFFCURVE",
"493 519 OFFCURVE",
"498 483 CURVE",
"583 483 LINE",
"583 557 OFFCURVE",
"559 612 OFFCURVE",
"510 645 CURVE",
"460 676 OFFCURVE",
"402 696 OFFCURVE",
"332 696 CURVE SMOOTH",
"255 696 OFFCURVE",
"196 676 OFFCURVE",
"155 638 CURVE SMOOTH",
"112 598 OFFCURVE",
"92 549 OFFCURVE",
"92 489 CURVE SMOOTH",
"92 435 OFFCURVE",
"114 392 OFFCURVE",
"157 366 CURVE",
"181 350 OFFCURVE",
"222 333 OFFCURVE",
"281 320 CURVE SMOOTH",
"372 300 LINE SMOOTH",
"415 291 OFFCURVE",
"447 283 OFFCURVE",
"482 259 CURVE SMOOTH",
"501 247 OFFCURVE",
"515 220 OFFCURVE",
"515 183 CURVE SMOOTH",
"515 134 OFFCURVE",
"487 102 OFFCURVE",
"434 83 CURVE SMOOTH",
"406 73 OFFCURVE",
"374 67 OFFCURVE",
"341 67 CURVE SMOOTH",
"264 67 OFFCURVE",
"211 88 OFFCURVE",
"182 133 CURVE SMOOTH",
"166 158 OFFCURVE",
"158 188 OFFCURVE",
"156 226 CURVE",
"70 226 LINE",
"70 155 OFFCURVE",
"92 96 OFFCURVE",
"140 55 CURVE SMOOTH",
"187 14 OFFCURVE",
"252 -9 OFFCURVE",
"334 -9 CURVE SMOOTH"
);
}
);
width = 673;
},
{
layerId = "5DC7B242-CF95-40E7-B7B6-33B4F09A6622";
paths = (
{
closed = 1;
nodes = (
"329 -9 OFFCURVE",
"379 10 OFFCURVE",
"416 36 CURVE SMOOTH",
"461 68 OFFCURVE",
"482 122 OFFCURVE",
"482 197 CURVE SMOOTH",
"482 256 OFFCURVE",
"466 302 OFFCURVE",
"431 333 CURVE SMOOTH",
"407 355 OFFCURVE",
"379 367 OFFCURVE",
"347 376 CURVE SMOOTH",
"273 397 LINE SMOOTH",
"237 407 OFFCURVE",
"192 422 OFFCURVE",
"176 433 CURVE SMOOTH",
"154 447 OFFCURVE",
"142 472 OFFCURVE",
"142 505 CURVE SMOOTH",
"142 534 OFFCURVE",
"151 561 OFFCURVE",
"170 583 CURVE SMOOTH",
"191 606 OFFCURVE",
"221 617 OFFCURVE",
"263 617 CURVE SMOOTH",
"314 617 OFFCURVE",
"353 598 OFFCURVE",
"375 566 CURVE",
"387 547 OFFCURVE",
"394 520 OFFCURVE",
"398 483 CURVE",
"466 483 LINE",
"466 557 OFFCURVE",
"447 612 OFFCURVE",
"408 645 CURVE",
"368 676 OFFCURVE",
"321 696 OFFCURVE",
"266 696 CURVE SMOOTH",
"204 696 OFFCURVE",
"157 676 OFFCURVE",
"124 638 CURVE SMOOTH",
"90 598 OFFCURVE",
"74 550 OFFCURVE",
"74 489 CURVE SMOOTH",
"74 436 OFFCURVE",
"91 392 OFFCURVE",
"126 366 CURVE",
"145 350 OFFCURVE",
"173 335 OFFCURVE",
"225 320 CURVE SMOOTH",
"298 300 LINE SMOOTH",
"332 291 OFFCURVE",
"358 282 OFFCURVE",
"386 259 CURVE SMOOTH",
"401 247 OFFCURVE",
"412 218 OFFCURVE",
"412 183 CURVE SMOOTH",
"412 134 OFFCURVE",
"390 102 OFFCURVE",
"347 83 CURVE SMOOTH",
"325 73 OFFCURVE",
"299 67 OFFCURVE",
"273 67 CURVE SMOOTH",
"212 67 OFFCURVE",
"169 88 OFFCURVE",
"146 132 CURVE SMOOTH",
"133 158 OFFCURVE",
"126 187 OFFCURVE",
"125 226 CURVE",
"56 226 LINE",
"56 153 OFFCURVE",
"74 96 OFFCURVE",
"112 55 CURVE SMOOTH",
"150 14 OFFCURVE",
"201 -9 OFFCURVE",
"267 -9 CURVE SMOOTH"
);
}
);
width = 538;
}
);
note = S;
unicode = 0053;
},
{
glyphname = T;
lastChange = "2019-03-09 00:04:35 +0000";
layers = (
{
layerId = "994FE389-9D54-4FAA-B055-C46A67020E78";
paths = (
{
closed = 1;
nodes = (
"391 1 LINE",
"391 600 LINE",
"621 600 LINE",
"621 681 LINE",
"70 681 LINE",
"70 600 LINE",
"300 600 LINE",
"300 1 LINE"
);
}
);
width = 691;
},
{
layerId = "5DC7B242-CF95-40E7-B7B6-33B4F09A6622";
paths = (
{
closed = 1;
nodes = (
"313 1 LINE",
"313 600 LINE",
"497 600 LINE",
"497 681 LINE",
"56 681 LINE",
"56 600 LINE",
"240 600 LINE",
"240 1 LINE"
);
}
);
width = 553;
}
);
note = T;
unicode = 0054;
},
{
glyphname = U;
lastChange = "2019-03-09 00:04:35 +0000";
layers = (
{
layerId = "994FE389-9D54-4FAA-B055-C46A67020E78";
paths = (
{
closed = 1;
nodes = (
"428 -5 OFFCURVE",
"502 34 OFFCURVE",
"540 110 CURVE SMOOTH",
"561 152 OFFCURVE",
"571 212 OFFCURVE",
"571 291 CURVE SMOOTH",
"571 648 LINE",
"484 648 LINE",
"484 255 LINE SMOOTH",
"484 208 OFFCURVE",
"476 172 OFFCURVE",
"462 146 CURVE SMOOTH",
"435 96 OFFCURVE",
"386 70 OFFCURVE",
"314 70 CURVE SMOOTH",
"253 70 OFFCURVE",
"208 93 OFFCURVE",
"183 140 CURVE SMOOTH",
"166 170 OFFCURVE",
"157 208 OFFCURVE",
"157 255 CURVE SMOOTH",
"157 648 LINE",
"70 648 LINE",
"70 291 LINE SMOOTH",
"70 236 OFFCURVE",
"70 174 OFFCURVE",
"101 110 CURVE SMOOTH",
"138 33 OFFCURVE",
"214 -5 OFFCURVE",
"320 -5 CURVE SMOOTH"
);
}
);
width = 641;
},
{
layerId = "5DC7B242-CF95-40E7-B7B6-33B4F09A6622";
paths = (
{
closed = 1;
nodes = (
"342 -5 OFFCURVE",
"402 34 OFFCURVE",
"432 110 CURVE SMOOTH",
"449 152 OFFCURVE",
"457 214 OFFCURVE",
"457 291 CURVE SMOOTH",
"457 648 LINE",
"387 648 LINE",
"387 255 LINE SMOOTH",
"387 210 OFFCURVE",
"381 172 OFFCURVE",
"370 147 CURVE SMOOTH",
"348 96 OFFCURVE",
"309 70 OFFCURVE",
"251 70 CURVE SMOOTH",
"201 70 OFFCURVE",
"167 93 OFFCURVE",
"146 141 CURVE SMOOTH",
"131 175 OFFCURVE",
"126 214 OFFCURVE",
"126 255 CURVE SMOOTH",
"126 648 LINE",
"56 648 LINE",
"56 291 LINE SMOOTH",
"56 233 OFFCURVE",
"56 175 OFFCURVE",
"81 110 CURVE SMOOTH",
"110 35 OFFCURVE",
"168 -5 OFFCURVE",
"256 -5 CURVE SMOOTH"
);
}
);
width = 513;
}
);
note = U;
unicode = 0055;
},
{
glyphname = V;
lastChange = "2019-03-09 00:04:35 +0000";
layers = (
{
layerId = "994FE389-9D54-4FAA-B055-C46A67020E78";
paths = (
{
closed = 1;
nodes = (
"413 0 LINE",
"662 680 LINE",
"559 680 LINE",
"365 102 LINE",
"171 680 LINE",
"70 680 LINE",
"317 0 LINE"
);
}
);
width = 732;
},
{
layerId = "5DC7B242-CF95-40E7-B7B6-33B4F09A6622";
paths = (
{
closed = 1;
nodes = (
"330 0 LINE",
"530 680 LINE",
"447 680 LINE",
"292 102 LINE",
"137 680 LINE",
"56 680 LINE",
"254 0 LINE"
);
}
);
width = 586;
}
);
note = V;
unicode = 0056;
},
{
glyphname = W;
lastChange = "2019-03-09 00:04:35 +0000";
layers = (
{
layerId = "994FE389-9D54-4FAA-B055-C46A67020E78";
paths = (
{
closed = 1;
nodes = (
"346 0 LINE",
"504 566 LINE",
"662 0 LINE",
"760 0 LINE",
"940 684 LINE",
"838 684 LINE",
"709 128 LINE",
"555 684 LINE",
"453 684 LINE",
"300 128 LINE",
"170 684 LINE",
"70 684 LINE",
"250 0 LINE"
);
}
);
width = 1010;
},
{
layerId = "5DC7B242-CF95-40E7-B7B6-33B4F09A6622";
paths = (
{
closed = 1;
nodes = (
"277 0 LINE",
"403 566 LINE",
"530 0 LINE",
"608 0 LINE",
"752 684 LINE",
"670 684 LINE",
"567 128 LINE",
"444 684 LINE",
"362 684 LINE",
"240 128 LINE",
"136 684 LINE",
"56 684 LINE",
"200 0 LINE"
);
}
);
width = 808;
}
);
note = W;
unicode = 0057;
},
{
glyphname = X;
lastChange = "2019-03-09 00:04:35 +0000";
layers = (
{
layerId = "994FE389-9D54-4FAA-B055-C46A67020E78";
paths = (
{
closed = 1;
nodes = (
"182 0 LINE",
"373 283 LINE",
"557 0 LINE",
"673 0 LINE",
"431 351 LINE",
"661 686 LINE",
"551 686 LINE",
"377 424 LINE",
"201 686 LINE",
"85 686 LINE",
"317 351 LINE",
"70 0 LINE"
);
}
);
width = 743;
},
{
layerId = "5DC7B242-CF95-40E7-B7B6-33B4F09A6622";
paths = (
{
closed = 1;
nodes = (
"146 0 LINE",
"298 283 LINE",
"446 0 LINE",
"538 0 LINE",
"345 351 LINE",
"529 686 LINE",
"441 686 LINE",
"302 424 LINE",
"161 686 LINE",
"68 686 LINE",
"254 351 LINE",
"56 0 LINE"
);
}
);
width = 594;
}
);
note = X;
unicode = 0058;
},
{
glyphname = Y;
lastChange = "2019-03-09 00:04:35 +0000";
layers = (
{
layerId = "994FE389-9D54-4FAA-B055-C46A67020E78";
paths = (
{
closed = 1;
nodes = (
"402 0 LINE",
"402 262 LINE",
"648 649 LINE",
"544 649 LINE",
"359 337 LINE",
"173 649 LINE",
"70 649 LINE",
"314 262 LINE",
"314 0 LINE"
);
}
);
width = 718;
},
{
layerId = "5DC7B242-CF95-40E7-B7B6-33B4F09A6622";
paths = (
{
closed = 1;
nodes = (
"322 0 LINE",
"322 262 LINE",
"518 649 LINE",
"435 649 LINE",
"287 337 LINE",
"138 649 LINE",
"56 649 LINE",
"251 262 LINE",
"251 0 LINE"
);
}
);
width = 574;
}
);
note = Y;
unicode = 0059;
},
{
glyphname = Z;
lastChange = "2019-03-09 00:04:35 +0000";
layers = (
{
layerId = "994FE389-9D54-4FAA-B055-C46A67020E78";
paths = (
{
closed = 1;
nodes = (
"606 1 LINE",
"606 83 LINE",
"186 83 LINE",
"606 602 LINE",
"606 681 LINE",
"100 681 LINE",
"100 600 LINE",
"487 600 LINE",
"70 78 LINE",
"70 1 LINE"
);
}
);
width = 676;
},
{
layerId = "5DC7B242-CF95-40E7-B7B6-33B4F09A6622";
paths = (
{
closed = 1;
nodes = (
"485 1 LINE",
"485 83 LINE",
"149 83 LINE",
"485 602 LINE",
"485 681 LINE",
"80 681 LINE",
"80 600 LINE",
"390 600 LINE",
"56 78 LINE",
"56 1 LINE"
);
}
);
width = 541;
}
);
note = Z;
unicode = 005A;
},
{
glyphname = a;
lastChange = "2019-03-09 00:04:35 +0000";
layers = (
{
layerId = "994FE389-9D54-4FAA-B055-C46A67020E78";
paths = (
{
closed = 1;
nodes = (
"273 -11 OFFCURVE",
"308 -1 OFFCURVE",
"344 17 CURVE SMOOTH",
"359 25 OFFCURVE",
"404 53 OFFCURVE",
"419 76 CURVE",
"422 56 OFFCURVE",
"428 40 OFFCURVE",
"435 29 CURVE SMOOTH",
"449 8 OFFCURVE",
"470 -3 OFFCURVE",
"500 -3 CURVE SMOOTH",
"513 -3 OFFCURVE",
"522 -3 OFFCURVE",
"529 -2 CURVE SMOOTH",
"536 -1 OFFCURVE",
"549 1 OFFCURVE",
"561 6 CURVE",
"561 70 LINE",
"545 67 LINE SMOOTH",
"540 66 OFFCURVE",
"537 66 OFFCURVE",
"533 66 CURVE SMOOTH",
"520 66 OFFCURVE",
"512 70 OFFCURVE",
"507 75 CURVE SMOOTH",
"501 81 OFFCURVE",
"502 87 OFFCURVE",
"502 96 CURVE SMOOTH",
"502 395 LINE SMOOTH",
"502 446 OFFCURVE",
"485 483 OFFCURVE",
"446 505 CURVE SMOOTH",
"408 526 OFFCURVE",
"359 541 OFFCURVE",
"298 541 CURVE SMOOTH",
"243 541 OFFCURVE",
"198 526 OFFCURVE",
"158 502 CURVE SMOOTH",
"118 478 OFFCURVE",
"97 433 OFFCURVE",
"95 369 CURVE",
"177 369 LINE",
"180 394 OFFCURVE",
"187 415 OFFCURVE",
"198 429 CURVE SMOOTH",
"217 454 OFFCURVE",
"248 466 OFFCURVE",
"296 466 CURVE SMOOTH",
"335 466 OFFCURVE",
"365 459 OFFCURVE",
"387 446 CURVE",
"408 435 OFFCURVE",
"418 410 OFFCURVE",
"418 382 CURVE SMOOTH",
"418 368 OFFCURVE",
"415 356 OFFCURVE",
"411 348 CURVE",
"407 331 OFFCURVE",
"393 324 OFFCURVE",
"373 321 CURVE SMOOTH",
"233 303 LINE SMOOTH",
"193 298 OFFCURVE",
"152 292 OFFCURVE",
"114 256 CURVE SMOOTH",
"86 230 OFFCURVE",
"70 196 OFFCURVE",
"70 142 CURVE SMOOTH",
"70 100 OFFCURVE",
"84 62 OFFCURVE",
"115 36 CURVE",
"148 6 OFFCURVE",
"185 -11 OFFCURVE",
"234 -11 CURVE SMOOTH"
);
},
{
closed = 1;
nodes = (
"229 64 OFFCURVE",
"207 70 OFFCURVE",
"188 86 CURVE SMOOTH",
"169 101 OFFCURVE",
"159 120 OFFCURVE",
"159 145 CURVE SMOOTH",
"159 179 OFFCURVE",
"175 203 OFFCURVE",
"201 216 CURVE",
"217 225 OFFCURVE",
"241 232 OFFCURVE",
"271 237 CURVE SMOOTH",
"327 246 LINE",
"341 247 OFFCURVE",
"358 251 OFFCURVE",
"375 255 CURVE",
"392 258 OFFCURVE",
"407 265 OFFCURVE",
"415 273 CURVE",
"415 203 LINE SMOOTH",
"415 147 OFFCURVE",
"391 111 OFFCURVE",
"343 85 CURVE SMOOTH",
"316 70 OFFCURVE",
"285 64 OFFCURVE",
"253 64 CURVE SMOOTH"
);
}
);
width = 631;
},
{
layerId = "5DC7B242-CF95-40E7-B7B6-33B4F09A6622";
paths = (
{
closed = 1;
nodes = (
"219 -11 OFFCURVE",
"246 -1 OFFCURVE",
"275 17 CURVE SMOOTH",
"287 25 OFFCURVE",
"324 53 OFFCURVE",
"335 76 CURVE",
"338 54 OFFCURVE",
"343 39 OFFCURVE",
"348 29 CURVE SMOOTH",
"359 8 OFFCURVE",
"377 -3 OFFCURVE",
"400 -3 CURVE SMOOTH",
"410 -3 OFFCURVE",
"418 -3 OFFCURVE",
"423 -2 CURVE SMOOTH",
"429 -1 OFFCURVE",
"439 1 OFFCURVE",
"449 6 CURVE",
"449 70 LINE",
"436 67 LINE SMOOTH",
"432 66 OFFCURVE",
"429 66 OFFCURVE",
"426 66 CURVE SMOOTH",
"414 66 OFFCURVE",
"408 72 OFFCURVE",
"405 75 CURVE SMOOTH",
"401 80 OFFCURVE",
"402 89 OFFCURVE",
"402 96 CURVE SMOOTH",
"402 395 LINE SMOOTH",
"402 446 OFFCURVE",
"388 483 OFFCURVE",
"357 505 CURVE SMOOTH",
"327 526 OFFCURVE",
"286 541 OFFCURVE",
"238 541 CURVE SMOOTH",
"196 541 OFFCURVE",
"158 526 OFFCURVE",
"126 502 CURVE SMOOTH",
"94 478 OFFCURVE",
"77 430 OFFCURVE",
"76 369 CURVE",
"142 369 LINE",
"144 394 OFFCURVE",
"149 414 OFFCURVE",
"159 430 CURVE SMOOTH",
"174 454 OFFCURVE",
"199 466 OFFCURVE",
"237 466 CURVE SMOOTH",
"268 466 OFFCURVE",
"292 459 OFFCURVE",
"310 446 CURVE",
"326 435 OFFCURVE",
"334 411 OFFCURVE",
"334 382 CURVE SMOOTH",
"334 368 OFFCURVE",
"332 356 OFFCURVE",
"329 348 CURVE",
"326 331 OFFCURVE",
"313 324 OFFCURVE",
"299 321 CURVE SMOOTH",
"186 303 LINE SMOOTH",
"155 298 OFFCURVE",
"122 292 OFFCURVE",
"92 257 CURVE SMOOTH",
"69 230 OFFCURVE",
"56 197 OFFCURVE",
"56 142 CURVE SMOOTH",
"56 101 OFFCURVE",
"67 62 OFFCURVE",
"92 36 CURVE",
"118 6 OFFCURVE",
"148 -11 OFFCURVE",
"187 -11 CURVE SMOOTH"
);
},
{
closed = 1;
nodes = (
"183 64 OFFCURVE",
"166 70 OFFCURVE",
"150 86 CURVE SMOOTH",
"135 101 OFFCURVE",
"127 122 OFFCURVE",
"127 145 CURVE SMOOTH",
"127 179 OFFCURVE",
"140 203 OFFCURVE",
"161 216 CURVE",
"174 225 OFFCURVE",
"192 231 OFFCURVE",
"217 237 CURVE SMOOTH",
"262 246 LINE",
"273 247 OFFCURVE",
"287 252 OFFCURVE",
"300 255 CURVE",
"314 258 OFFCURVE",
"324 264 OFFCURVE",
"332 273 CURVE",
"332 203 LINE SMOOTH",
"332 149 OFFCURVE",
"313 111 OFFCURVE",
"276 86 CURVE SMOOTH",
"253 70 OFFCURVE",
"228 64 OFFCURVE",
"202 64 CURVE SMOOTH"
);
}
);
width = 505;
}
);
note = a;
unicode = 0061;
},
{
glyphname = b;
lastChange = "2019-03-09 00:04:35 +0000";
layers = (
{
layerId = "994FE389-9D54-4FAA-B055-C46A67020E78";
paths = (
{
closed = 1;
nodes = (
"381 -16 OFFCURVE",
"436 10 OFFCURVE",
"476 67 CURVE SMOOTH",
"514 123 OFFCURVE",
"536 190 OFFCURVE",
"536 274 CURVE SMOOTH",
"536 366 OFFCURVE",
"516 433 OFFCURVE",
"476 475 CURVE SMOOTH",
"433 520 OFFCURVE",
"380 542 OFFCURVE",
"316 542 CURVE SMOOTH",
"285 542 OFFCURVE",
"255 535 OFFCURVE",
"227 522 CURVE SMOOTH",
"200 509 OFFCURVE",
"176 491 OFFCURVE",
"158 465 CURVE",
"158 727 LINE",
"70 727 LINE",
"70 0 LINE",
"152 0 LINE",
"152 69 LINE",
"172 43 OFFCURVE",
"190 24 OFFCURVE",
"206 12 CURVE",
"235 -8 OFFCURVE",
"268 -16 OFFCURVE",
"309 -16 CURVE SMOOTH"
);
},
{
closed = 1;
nodes = (
"239 63 OFFCURVE",
"195 91 OFFCURVE",
"171 148 CURVE SMOOTH",
"158 179 OFFCURVE",
"152 219 OFFCURVE",
"152 270 CURVE SMOOTH",
"152 338 OFFCURVE",
"169 387 OFFCURVE",
"198 418 CURVE SMOOTH",
"228 450 OFFCURVE",
"265 464 OFFCURVE",
"306 464 CURVE SMOOTH",
"353 464 OFFCURVE",
"387 446 OFFCURVE",
"412 408 CURVE SMOOTH",
"436 372 OFFCURVE",
"446 326 OFFCURVE",
"446 270 CURVE SMOOTH",
"446 207 OFFCURVE",
"435 156 OFFCURVE",
"412 117 CURVE SMOOTH",
"389 79 OFFCURVE",
"352 63 OFFCURVE",
"304 63 CURVE SMOOTH"
);
}
);
width = 606;
},
{
layerId = "5DC7B242-CF95-40E7-B7B6-33B4F09A6622";
paths = (
{
closed = 1;
nodes = (
"304 -16 OFFCURVE",
"349 10 OFFCURVE",
"380 66 CURVE SMOOTH",
"411 123 OFFCURVE",
"429 187 OFFCURVE",
"429 274 CURVE SMOOTH",
"429 366 OFFCURVE",
"413 433 OFFCURVE",
"380 476 CURVE SMOOTH",
"346 520 OFFCURVE",
"304 542 OFFCURVE",
"253 542 CURVE SMOOTH",
"228 542 OFFCURVE",
"204 535 OFFCURVE",
"182 522 CURVE SMOOTH",
"160 509 OFFCURVE",
"142 493 OFFCURVE",
"126 465 CURVE",
"126 727 LINE",
"56 727 LINE",
"56 0 LINE",
"122 0 LINE",
"122 69 LINE",
"132 53 OFFCURVE",
"150 25 OFFCURVE",
"165 12 CURVE",
"188 -8 OFFCURVE",
"215 -16 OFFCURVE",
"247 -16 CURVE SMOOTH"
);
},
{
closed = 1;
nodes = (
"192 63 OFFCURVE",
"156 91 OFFCURVE",
"137 147 CURVE SMOOTH",
"126 179 OFFCURVE",
"122 223 OFFCURVE",
"122 270 CURVE SMOOTH",
"122 337 OFFCURVE",
"135 387 OFFCURVE",
"159 419 CURVE SMOOTH",
"182 450 OFFCURVE",
"214 464 OFFCURVE",
"245 464 CURVE SMOOTH",
"279 464 OFFCURVE",
"308 449 OFFCURVE",
"329 409 CURVE SMOOTH",
"349 372 OFFCURVE",
"357 326 OFFCURVE",
"357 270 CURVE SMOOTH",
"357 207 OFFCURVE",
"348 156 OFFCURVE",
"330 118 CURVE SMOOTH",
"311 79 OFFCURVE",
"283 63 OFFCURVE",
"243 63 CURVE SMOOTH"
);
}
);
width = 485;
}
);
leftKerningGroup = b;
note = b;
rightKerningGroup = o;
unicode = 0062;
},
{
glyphname = c;
lastChange = "2019-03-09 00:04:35 +0000";
layers = (
{
layerId = "994FE389-9D54-4FAA-B055-C46A67020E78";
paths = (
{
closed = 1;
nodes = (
"355 -9 OFFCURVE",
"404 6 OFFCURVE",
"442 38 CURVE SMOOTH",
"481 71 OFFCURVE",
"506 120 OFFCURVE",
"515 190 CURVE",
"430 190 LINE",
"422 152 OFFCURVE",
"406 121 OFFCURVE",
"386 99 CURVE SMOOTH",
"365 76 OFFCURVE",
"335 66 OFFCURVE",
"300 66 CURVE SMOOTH",
"258 66 OFFCURVE",
"217 81 OFFCURVE",
"195 118 CURVE SMOOTH",
"175 151 OFFCURVE",
"162 197 OFFCURVE",
"162 250 CURVE SMOOTH",
"162 302 OFFCURVE",
"171 346 OFFCURVE",
"186 381 CURVE SMOOTH",
"211 436 OFFCURVE",
"250 463 OFFCURVE",
"305 463 CURVE SMOOTH",
"345 463 OFFCURVE",
"375 451 OFFCURVE",
"395 430 CURVE SMOOTH",
"414 410 OFFCURVE",
"425 383 OFFCURVE",
"430 351 CURVE",
"515 351 LINE",
"508 421 OFFCURVE",
"484 469 OFFCURVE",
"448 499 CURVE SMOOTH",
"415 528 OFFCURVE",
"365 540 OFFCURVE",
"305 540 CURVE SMOOTH",
"239 540 OFFCURVE",
"181 517 OFFCURVE",
"135 466 CURVE SMOOTH",
"92 418 OFFCURVE",
"70 346 OFFCURVE",
"70 251 CURVE SMOOTH",
"70 176 OFFCURVE",
"89 114 OFFCURVE",
"130 66 CURVE SMOOTH",
"171 17 OFFCURVE",
"226 -9 OFFCURVE",
"294 -9 CURVE SMOOTH"
);
}
);
width = 585;
},
{
layerId = "5DC7B242-CF95-40E7-B7B6-33B4F09A6622";
paths = (
{
closed = 1;
nodes = (
"283 -9 OFFCURVE",
"323 6 OFFCURVE",
"354 38 CURVE SMOOTH",
"385 71 OFFCURVE",
"405 124 OFFCURVE",
"412 190 CURVE",
"344 190 LINE",
"338 154 OFFCURVE",
"325 121 OFFCURVE",
"309 99 CURVE SMOOTH",
"292 76 OFFCURVE",
"268 66 OFFCURVE",
"240 66 CURVE SMOOTH",
"205 66 OFFCURVE",
"174 81 OFFCURVE",
"156 118 CURVE SMOOTH",
"140 151 OFFCURVE",
"130 197 OFFCURVE",
"130 250 CURVE SMOOTH",
"130 305 OFFCURVE",
"137 346 OFFCURVE",
"149 381 CURVE SMOOTH",
"169 436 OFFCURVE",
"199 463 OFFCURVE",
"244 463 CURVE SMOOTH",
"276 463 OFFCURVE",
"300 451 OFFCURVE",
"316 430 CURVE SMOOTH",
"331 410 OFFCURVE",
"339 386 OFFCURVE",
"344 351 CURVE",
"412 351 LINE",
"406 422 OFFCURVE",
"389 466 OFFCURVE",
"358 499 CURVE SMOOTH",
"329 530 OFFCURVE",
"291 540 OFFCURVE",
"244 540 CURVE SMOOTH",
"191 540 OFFCURVE",
"145 517 OFFCURVE",
"108 466 CURVE SMOOTH",
"74 418 OFFCURVE",
"56 347 OFFCURVE",
"56 251 CURVE SMOOTH",
"56 176 OFFCURVE",
"71 114 OFFCURVE",
"104 66 CURVE SMOOTH",
"137 17 OFFCURVE",
"180 -9 OFFCURVE",
"235 -9 CURVE SMOOTH"
);
}
);
width = 468;
}
);
leftKerningGroup = o;
note = c;
rightKerningGroup = o;
unicode = 0063;
},
{
glyphname = d;
lastChange = "2019-03-09 00:04:35 +0000";
layers = (
{
layerId = "994FE389-9D54-4FAA-B055-C46A67020E78";
paths = (
{
closed = 1;
nodes = (
"325 -17 OFFCURVE",
"357 -12 OFFCURVE",
"385 5 CURVE",
"413 20 OFFCURVE",
"436 42 OFFCURVE",
"459 76 CURVE",
"459 0 LINE",
"537 0 LINE",
"537 726 LINE",
"452 726 LINE",
"452 460 LINE",
"436 479 OFFCURVE",
"416 500 OFFCURVE",
"398 513 CURVE SMOOTH",
"374 531 OFFCURVE",
"334 536 OFFCURVE",
"296 536 CURVE SMOOTH",
"225 536 OFFCURVE",
"170 510 OFFCURVE",
"130 454 CURVE SMOOTH",
"89 396 OFFCURVE",
"70 332 OFFCURVE",
"70 255 CURVE SMOOTH",
"70 173 OFFCURVE",
"94 106 OFFCURVE",
"135 57 CURVE SMOOTH",
"177 7 OFFCURVE",
"229 -17 OFFCURVE",
"287 -17 CURVE SMOOTH"
);
},
{
closed = 1;
nodes = (
"262 60 OFFCURVE",
"223 79 OFFCURVE",
"201 117 CURVE SMOOTH",
"178 157 OFFCURVE",
"163 203 OFFCURVE",
"163 259 CURVE SMOOTH",
"163 324 OFFCURVE",
"178 376 OFFCURVE",
"204 409 CURVE SMOOTH",
"233 446 OFFCURVE",
"270 460 OFFCURVE",
"315 460 CURVE SMOOTH",
"354 460 OFFCURVE",
"386 444 OFFCURVE",
"414 413 CURVE SMOOTH",
"443 381 OFFCURVE",
"456 332 OFFCURVE",
"456 265 CURVE SMOOTH",
"456 200 OFFCURVE",
"441 148 OFFCURVE",
"416 114 CURVE SMOOTH",
"390 77 OFFCURVE",
"356 60 OFFCURVE",
"315 60 CURVE SMOOTH"
);
}
);
width = 607;
},
{
layerId = "5DC7B242-CF95-40E7-B7B6-33B4F09A6622";
paths = (
{
closed = 1;
nodes = (
"259 -17 OFFCURVE",
"286 -12 OFFCURVE",
"308 5 CURVE",
"330 20 OFFCURVE",
"347 41 OFFCURVE",
"367 76 CURVE",
"367 0 LINE",
"430 0 LINE",
"430 726 LINE",
"362 726 LINE",
"362 460 LINE",
"347 481 OFFCURVE",
"334 498 OFFCURVE",
"318 513 CURVE SMOOTH",
"299 531 OFFCURVE",
"268 536 OFFCURVE",
"237 536 CURVE SMOOTH",
"181 536 OFFCURVE",
"136 510 OFFCURVE",
"104 454 CURVE SMOOTH",
"71 396 OFFCURVE",
"56 330 OFFCURVE",
"56 255 CURVE SMOOTH",
"56 174 OFFCURVE",
"75 106 OFFCURVE",
"108 57 CURVE SMOOTH",
"142 7 OFFCURVE",
"183 -17 OFFCURVE",
"230 -17 CURVE SMOOTH"
);
},
{
closed = 1;
nodes = (
"211 60 OFFCURVE",
"178 79 OFFCURVE",
"161 116 CURVE SMOOTH",
"142 157 OFFCURVE",
"130 206 OFFCURVE",
"130 259 CURVE SMOOTH",
"130 324 OFFCURVE",
"142 376 OFFCURVE",
"164 410 CURVE SMOOTH",
"186 446 OFFCURVE",
"217 460 OFFCURVE",
"252 460 CURVE SMOOTH",
"283 460 OFFCURVE",
"309 444 OFFCURVE",
"331 413 CURVE SMOOTH",
"354 381 OFFCURVE",
"365 335 OFFCURVE",
"365 265 CURVE SMOOTH",
"365 202 OFFCURVE",
"353 148 OFFCURVE",
"333 114 CURVE SMOOTH",
"312 77 OFFCURVE",
"284 60 OFFCURVE",
"252 60 CURVE SMOOTH"
);
}
);
width = 486;
}
);
leftKerningGroup = o;
note = d;
rightKerningGroup = d;
unicode = 0064;
},
{
glyphname = e;
lastChange = "2019-03-09 00:04:35 +0000";
layers = (
{
layerId = "994FE389-9D54-4FAA-B055-C46A67020E78";
paths = (
{
closed = 1;
nodes = (
"326 -9 OFFCURVE",
"349 -7 OFFCURVE",
"372 -2 CURVE SMOOTH",
"410 7 OFFCURVE",
"442 24 OFFCURVE",
"469 50 CURVE",
"484 66 OFFCURVE",
"499 84 OFFCURVE",
"511 106 CURVE SMOOTH",
"524 130 OFFCURVE",
"531 152 OFFCURVE",
"533 172 CURVE",
"448 172 LINE",
"442 148 OFFCURVE",
"431 127 OFFCURVE",
"416 110 CURVE SMOOTH",
"389 80 OFFCURVE",
"352 66 OFFCURVE",
"307 66 CURVE SMOOTH",
"259 66 OFFCURVE",
"222 82 OFFCURVE",
"200 113 CURVE SMOOTH",
"175 147 OFFCURVE",
"163 187 OFFCURVE",
"162 240 CURVE",
"540 240 LINE",
"540 291 OFFCURVE",
"538 329 OFFCURVE",
"532 353 CURVE",
"527 387 OFFCURVE",
"517 418 OFFCURVE",
"499 444 CURVE SMOOTH",
"480 472 OFFCURVE",
"455 495 OFFCURVE",
"420 511 CURVE SMOOTH",
"386 527 OFFCURVE",
"349 536 OFFCURVE",
"313 536 CURVE SMOOTH",
"240 536 OFFCURVE",
"182 511 OFFCURVE",
"137 459 CURVE SMOOTH",
"92 408 OFFCURVE",
"70 339 OFFCURVE",
"70 257 CURVE SMOOTH",
"70 173 OFFCURVE",
"92 106 OFFCURVE",
"136 61 CURVE SMOOTH",
"181 14 OFFCURVE",
"236 -9 OFFCURVE",
"300 -9 CURVE SMOOTH"
);
},
{
closed = 1;
nodes = (
"166 353 OFFCURVE",
"181 388 OFFCURVE",
"209 418 CURVE SMOOTH",
"236 447 OFFCURVE",
"268 460 OFFCURVE",
"308 460 CURVE SMOOTH",
"365 460 OFFCURVE",
"407 438 OFFCURVE",
"428 399 CURVE SMOOTH",
"439 378 OFFCURVE",
"448 347 OFFCURVE",
"452 309 CURVE",
"164 309 LINE"
);
}
);
width = 610;
},
{
layerId = "5DC7B242-CF95-40E7-B7B6-33B4F09A6622";
paths = (
{
closed = 1;
nodes = (
"262 -9 OFFCURVE",
"279 -7 OFFCURVE",
"297 -2 CURVE SMOOTH",
"328 7 OFFCURVE",
"352 23 OFFCURVE",
"375 50 CURVE",
"387 66 OFFCURVE",
"400 86 OFFCURVE",
"409 106 CURVE SMOOTH",
"419 130 OFFCURVE",
"425 154 OFFCURVE",
"426 172 CURVE",
"358 172 LINE",
"354 149 OFFCURVE",
"345 127 OFFCURVE",
"332 109 CURVE SMOOTH",
"311 80 OFFCURVE",
"281 66 OFFCURVE",
"246 66 CURVE SMOOTH",
"206 66 OFFCURVE",
"178 82 OFFCURVE",
"160 113 CURVE SMOOTH",
"140 147 OFFCURVE",
"130 187 OFFCURVE",
"130 240 CURVE",
"432 240 LINE",
"432 296 OFFCURVE",
"430 331 OFFCURVE",
"426 353 CURVE",
"421 391 OFFCURVE",
"414 418 OFFCURVE",
"399 444 CURVE SMOOTH",
"384 472 OFFCURVE",
"365 494 OFFCURVE",
"336 511 CURVE SMOOTH",
"309 527 OFFCURVE",
"279 536 OFFCURVE",
"250 536 CURVE SMOOTH",
"191 536 OFFCURVE",
"146 511 OFFCURVE",
"109 458 CURVE SMOOTH",
"74 408 OFFCURVE",
"56 340 OFFCURVE",
"56 257 CURVE SMOOTH",
"56 172 OFFCURVE",
"74 106 OFFCURVE",
"108 62 CURVE SMOOTH",
"145 14 OFFCURVE",
"188 -9 OFFCURVE",
"240 -9 CURVE SMOOTH"
);
},
{
closed = 1;
nodes = (
"133 355 OFFCURVE",
"145 388 OFFCURVE",
"168 419 CURVE SMOOTH",
"189 447 OFFCURVE",
"215 460 OFFCURVE",
"246 460 CURVE SMOOTH",
"291 460 OFFCURVE",
"326 438 OFFCURVE",
"342 400 CURVE SMOOTH",
"351 379 OFFCURVE",
"358 347 OFFCURVE",
"362 309 CURVE",
"131 309 LINE"
);
}
);
width = 488;
}
);
leftKerningGroup = o;
note = e;
rightKerningGroup = o;
unicode = 0065;
},
{
glyphname = f;
lastChange = "2019-03-09 00:04:35 +0000";
layers = (
{
layerId = "994FE389-9D54-4FAA-B055-C46A67020E78";
paths = (
{
closed = 1;
nodes = (
"229 0 LINE",
"229 448 LINE",
"318 448 LINE",
"318 518 LINE",
"230 518 LINE",
"230 575 OFFCURVE",
"232 608 OFFCURVE",
"239 624 CURVE",
"247 639 OFFCURVE",
"259 646 OFFCURVE",
"286 646 CURVE SMOOTH",
"297 646 LINE SMOOTH",
"302 646 OFFCURVE",
"309 645 OFFCURVE",
"318 644 CURVE",
"318 724 LINE",
"309 725 OFFCURVE",
"303 724 OFFCURVE",
"297 726 CURVE",
"291 727 OFFCURVE",
"286 726 OFFCURVE",
"279 726 CURVE SMOOTH",
"221 726 OFFCURVE",
"182 710 OFFCURVE",
"162 680 CURVE SMOOTH",
"151 664 OFFCURVE",
"145 637 OFFCURVE",
"143 599 CURVE",
"143 518 LINE",
"70 518 LINE",
"70 448 LINE",
"143 448 LINE",
"143 0 LINE"
);
}
);
width = 388;
},
{
layerId = "5DC7B242-CF95-40E7-B7B6-33B4F09A6622";
paths = (
{
closed = 1;
nodes = (
"183 0 LINE",
"183 448 LINE",
"254 448 LINE",
"254 518 LINE",
"184 518 LINE",
"184 580 OFFCURVE",
"186 609 OFFCURVE",
"191 624 CURVE",
"198 639 OFFCURVE",
"207 646 OFFCURVE",
"229 646 CURVE SMOOTH",
"238 646 LINE SMOOTH",
"242 646 OFFCURVE",
"247 645 OFFCURVE",
"254 644 CURVE",
"254 724 LINE",
"247 725 OFFCURVE",
"242 724 OFFCURVE",
"238 726 CURVE",
"233 727 OFFCURVE",
"229 726 OFFCURVE",
"223 726 CURVE SMOOTH",
"176 726 OFFCURVE",
"146 710 OFFCURVE",
"129 679 CURVE SMOOTH",
"121 664 OFFCURVE",
"116 636 OFFCURVE",
"114 599 CURVE",
"114 518 LINE",
"56 518 LINE",
"56 448 LINE",
"114 448 LINE",
"114 0 LINE"
);
}
);
width = 310;
}
);
note = f;
unicode = 0066;
},
{
glyphname = g;
lastChange = "2019-03-09 00:04:35 +0000";
layers = (
{
layerId = "994FE389-9D54-4FAA-B055-C46A67020E78";
paths = (
{
closed = 1;
nodes = (
"385 -189 OFFCURVE",
"450 -154 OFFCURVE",
"486 -84 CURVE SMOOTH",
"514 -30 OFFCURVE",
"514 25 OFFCURVE",
"514 66 CURVE SMOOTH",
"514 527 LINE",
"436 527 LINE",
"436 465 LINE",
"418 485 OFFCURVE",
"404 504 OFFCURVE",
"388 514 CURVE SMOOTH",
"358 533 OFFCURVE",
"322 541 OFFCURVE",
"284 541 CURVE SMOOTH",
"225 541 OFFCURVE",
"174 518 OFFCURVE",
"134 471 CURVE SMOOTH",
"94 423 OFFCURVE",
"70 356 OFFCURVE",
"70 272 CURVE SMOOTH",
"70 181 OFFCURVE",
"91 120 OFFCURVE",
"134 78 CURVE SMOOTH",
"174 38 OFFCURVE",
"222 19 OFFCURVE",
"276 19 CURVE SMOOTH",
"316 19 OFFCURVE",
"348 26 OFFCURVE",
"370 39 CURVE SMOOTH",
"393 53 OFFCURVE",
"416 72 OFFCURVE",
"434 98 CURVE",
"435 26 OFFCURVE",
"428 -21 OFFCURVE",
"417 -48 CURVE SMOOTH",
"398 -94 OFFCURVE",
"354 -119 OFFCURVE",
"286 -119 CURVE SMOOTH",
"247 -119 OFFCURVE",
"216 -110 OFFCURVE",
"196 -88 CURVE",
"185 -77 OFFCURVE",
"178 -60 OFFCURVE",
"173 -35 CURVE",
"87 -35 LINE",
"90 -88 OFFCURVE",
"112 -129 OFFCURVE",
"148 -152 CURVE SMOOTH",
"185 -175 OFFCURVE",
"229 -189 OFFCURVE",
"286 -189 CURVE SMOOTH"
);
},
{
closed = 1;
nodes = (
"247 90 OFFCURVE",
"215 104 OFFCURVE",
"193 133 CURVE SMOOTH",
"171 163 OFFCURVE",
"156 204 OFFCURVE",
"156 266 CURVE SMOOTH",
"156 313 OFFCURVE",
"163 353 OFFCURVE",
"176 382 CURVE SMOOTH",
"200 436 OFFCURVE",
"239 468 OFFCURVE",
"298 468 CURVE SMOOTH",
"337 468 OFFCURVE",
"369 451 OFFCURVE",
"398 421 CURVE SMOOTH",
"426 392 OFFCURVE",
"436 345 OFFCURVE",
"436 283 CURVE SMOOTH",
"436 241 OFFCURVE",
"429 203 OFFCURVE",
"416 172 CURVE SMOOTH",
"393 115 OFFCURVE",
"347 90 OFFCURVE",
"286 90 CURVE SMOOTH"
);
}
);
width = 584;
},
{
layerId = "5DC7B242-CF95-40E7-B7B6-33B4F09A6622";
paths = (
{
closed = 1;
nodes = (
"308 -189 OFFCURVE",
"360 -154 OFFCURVE",
"389 -84 CURVE SMOOTH",
"411 -31 OFFCURVE",
"411 28 OFFCURVE",
"411 66 CURVE SMOOTH",
"411 527 LINE",
"349 527 LINE",
"349 465 LINE",
"332 489 OFFCURVE",
"323 504 OFFCURVE",
"310 514 CURVE SMOOTH",
"286 533 OFFCURVE",
"259 541 OFFCURVE",
"227 541 CURVE SMOOTH",
"181 541 OFFCURVE",
"139 518 OFFCURVE",
"108 472 CURVE SMOOTH",
"75 423 OFFCURVE",
"56 356 OFFCURVE",
"56 272 CURVE SMOOTH",
"56 181 OFFCURVE",
"73 120 OFFCURVE",
"107 78 CURVE SMOOTH",
"139 38 OFFCURVE",
"178 19 OFFCURVE",
"221 19 CURVE SMOOTH",
"253 19 OFFCURVE",
"278 26 OFFCURVE",
"296 39 CURVE SMOOTH",
"314 53 OFFCURVE",
"332 71 OFFCURVE",
"347 98 CURVE",
"348 26 OFFCURVE",
"342 -22 OFFCURVE",
"334 -47 CURVE SMOOTH",
"318 -94 OFFCURVE",
"284 -119 OFFCURVE",
"229 -119 CURVE SMOOTH",
"198 -119 OFFCURVE",
"173 -110 OFFCURVE",
"157 -88 CURVE",
"148 -77 OFFCURVE",
"142 -60 OFFCURVE",
"138 -35 CURVE",
"70 -35 LINE",
"72 -88 OFFCURVE",
"91 -131 OFFCURVE",
"118 -152 CURVE SMOOTH",
"148 -175 OFFCURVE",
"184 -189 OFFCURVE",
"229 -189 CURVE SMOOTH"
);
},
{
closed = 1;
nodes = (
"198 90 OFFCURVE",
"172 104 OFFCURVE",
"155 132 CURVE SMOOTH",
"137 163 OFFCURVE",
"125 202 OFFCURVE",
"125 266 CURVE SMOOTH",
"125 314 OFFCURVE",
"130 351 OFFCURVE",
"141 382 CURVE SMOOTH",
"160 436 OFFCURVE",
"191 468 OFFCURVE",
"238 468 CURVE SMOOTH",
"269 468 OFFCURVE",
"295 451 OFFCURVE",
"318 422 CURVE SMOOTH",
"341 392 OFFCURVE",
"349 344 OFFCURVE",
"349 283 CURVE SMOOTH",
"349 241 OFFCURVE",
"343 203 OFFCURVE",
"333 172 CURVE SMOOTH",
"314 115 OFFCURVE",
"278 90 OFFCURVE",
"229 90 CURVE SMOOTH"
);
}
);
width = 467;
}
);
leftKerningGroup = o;
note = g;
unicode = 0067;
},
{
glyphname = h;
lastChange = "2019-03-09 00:04:35 +0000";
layers = (
{
layerId = "994FE389-9D54-4FAA-B055-C46A67020E78";
paths = (
{
closed = 1;
nodes = (
"158 1 LINE",
"158 280 LINE SMOOTH",
"158 352 OFFCURVE",
"173 398 OFFCURVE",
"204 423 CURVE SMOOTH",
"234 446 OFFCURVE",
"265 461 OFFCURVE",
"303 461 CURVE SMOOTH",
"347 461 OFFCURVE",
"380 445 OFFCURVE",
"394 417 CURVE SMOOTH",
"404 398 OFFCURVE",
"409 372 OFFCURVE",
"409 334 CURVE SMOOTH",
"409 1 LINE",
"499 1 LINE",
"499 339 LINE SMOOTH",
"499 380 OFFCURVE",
"495 425 OFFCURVE",
"477 460 CURVE SMOOTH",
"448 516 OFFCURVE",
"397 540 OFFCURVE",
"322 540 CURVE SMOOTH",
"279 540 OFFCURVE",
"244 530 OFFCURVE",
"214 514 CURVE SMOOTH",
"198 505 OFFCURVE",
"179 483 OFFCURVE",
"158 456 CURVE",
"158 727 LINE",
"70 727 LINE",
"70 1 LINE"
);
}
);
width = 569;
},
{
layerId = "5DC7B242-CF95-40E7-B7B6-33B4F09A6622";
paths = (
{
closed = 1;
nodes = (
"126 1 LINE",
"126 280 LINE SMOOTH",
"126 350 OFFCURVE",
"138 398 OFFCURVE",
"163 423 CURVE SMOOTH",
"187 446 OFFCURVE",
"213 461 OFFCURVE",
"242 461 CURVE SMOOTH",
"278 461 OFFCURVE",
"304 445 OFFCURVE",
"315 417 CURVE SMOOTH",
"324 394 OFFCURVE",
"327 372 OFFCURVE",
"327 334 CURVE SMOOTH",
"327 1 LINE",
"399 1 LINE",
"399 339 LINE SMOOTH",
"399 379 OFFCURVE",
"396 425 OFFCURVE",
"382 459 CURVE SMOOTH",
"358 516 OFFCURVE",
"319 540 OFFCURVE",
"258 540 CURVE SMOOTH",
"224 540 OFFCURVE",
"195 530 OFFCURVE",
"171 514 CURVE SMOOTH",
"160 507 OFFCURVE",
"141 480 OFFCURVE",
"126 456 CURVE",
"126 727 LINE",
"56 727 LINE",
"56 1 LINE"
);
}
);
width = 455;
}
);
note = h;
unicode = 0068;
},
{
glyphname = i;
lastChange = "2019-03-09 00:04:35 +0000";
layers = (
{
layerId = "994FE389-9D54-4FAA-B055-C46A67020E78";
paths = (
{
closed = 1;
nodes = (
"160 -1 LINE",
"160 526 LINE",
"70 526 LINE",
"70 -1 LINE"
);
},
{
closed = 1;
nodes = (
"160 626 LINE",
"160 727 LINE",
"70 727 LINE",
"70 626 LINE"
);
}
);
width = 230;
},
{
layerId = "5DC7B242-CF95-40E7-B7B6-33B4F09A6622";
paths = (
{
closed = 1;
nodes = (
"128 -1 LINE",
"128 526 LINE",
"56 526 LINE",
"56 -1 LINE"
);
},
{
closed = 1;
nodes = (
"128 626 LINE",
"128 727 LINE",
"56 727 LINE",
"56 626 LINE"
);
}
);
width = 184;
}
);
leftKerningGroup = b;
note = i;
rightKerningGroup = b;
unicode = 0069;
},
{
glyphname = j;
lastChange = "2019-03-09 00:04:35 +0000";
layers = (
{
layerId = "994FE389-9D54-4FAA-B055-C46A67020E78";
paths = (
{
closed = 1;
nodes = (
"161 -182 OFFCURVE",
"199 -165 OFFCURVE",
"219 -134 CURVE SMOOTH",
"231 -114 OFFCURVE",
"238 -89 OFFCURVE",
"238 -50 CURVE SMOOTH",
"238 535 LINE",
"151 535 LINE",
"151 -42 LINE SMOOTH",
"151 -72 OFFCURVE",
"148 -89 OFFCURVE",
"140 -94 CURVE",
"132 -100 OFFCURVE",
"109 -104 OFFCURVE",
"70 -104 CURVE",
"70 -179 LINE",
"80 -180 OFFCURVE",
"88 -181 OFFCURVE",
"92 -181 CURVE SMOOTH",
"98 -181 OFFCURVE",
"102 -182 OFFCURVE",
"106 -182 CURVE SMOOTH"
);
},
{
closed = 1;
nodes = (
"238 627 LINE",
"238 727 LINE",
"151 727 LINE",
"151 627 LINE"
);
}
);
width = 308;
},
{
layerId = "5DC7B242-CF95-40E7-B7B6-33B4F09A6622";
paths = (
{
closed = 1;
nodes = (
"129 -182 OFFCURVE",
"159 -165 OFFCURVE",
"175 -134 CURVE SMOOTH",
"185 -114 OFFCURVE",
"190 -89 OFFCURVE",
"190 -50 CURVE SMOOTH",
"190 535 LINE",
"121 535 LINE",
"121 -42 LINE SMOOTH",
"121 -72 OFFCURVE",
"118 -89 OFFCURVE",
"112 -94 CURVE",
"106 -100 OFFCURVE",
"86 -104 OFFCURVE",
"56 -104 CURVE",
"56 -179 LINE",
"64 -180 OFFCURVE",
"70 -181 OFFCURVE",
"74 -181 CURVE SMOOTH",
"78 -181 OFFCURVE",
"82 -182 OFFCURVE",
"85 -182 CURVE SMOOTH"
);
},
{
closed = 1;
nodes = (
"190 627 LINE",
"190 727 LINE",
"121 727 LINE",
"121 627 LINE"
);
}
);
width = 246;
}
);
note = j;
unicode = 006A;
},
{
glyphname = k;
lastChange = "2019-03-09 00:04:35 +0000";
layers = (
{
layerId = "994FE389-9D54-4FAA-B055-C46A67020E78";
paths = (
{
closed = 1;
nodes = (
"156 0 LINE",
"156 199 LINE",
"231 268 LINE",
"395 0 LINE",
"509 0 LINE",
"295 332 LINE",
"498 530 LINE",
"385 530 LINE",
"156 305 LINE",
"156 727 LINE",
"70 727 LINE",
"70 0 LINE"
);
}
);
width = 579;
},
{
layerId = "5DC7B242-CF95-40E7-B7B6-33B4F09A6622";
paths = (
{
closed = 1;
nodes = (
"125 0 LINE",
"125 199 LINE",
"185 268 LINE",
"316 0 LINE",
"407 0 LINE",
"236 332 LINE",
"398 530 LINE",
"308 530 LINE",
"125 305 LINE",
"125 727 LINE",
"56 727 LINE",
"56 0 LINE"
);
}
);
width = 463;
}
);
note = k;
rightKerningGroup = k;
unicode = 006B;
},
{
glyphname = l;
lastChange = "2019-03-09 00:04:35 +0000";
layers = (
{
layerId = "994FE389-9D54-4FAA-B055-C46A67020E78";
paths = (
{
closed = 1;
nodes = (
"159 0 LINE",
"159 722 LINE",
"70 722 LINE",
"70 0 LINE"
);
}
);
width = 229;
},
{
layerId = "5DC7B242-CF95-40E7-B7B6-33B4F09A6622";
paths = (
{
closed = 1;
nodes = (
"127 0 LINE",
"127 722 LINE",
"56 722 LINE",
"56 0 LINE"
);
}
);
width = 183;
}
);
leftKerningGroup = b;
note = l;
unicode = 006C;
},
{
glyphname = m;
lastChange = "2019-03-09 00:04:35 +0000";
layers = (
{
layerId = "994FE389-9D54-4FAA-B055-C46A67020E78";
paths = (
{
closed = 1;
nodes = (
"158 0 LINE",
"158 279 LINE SMOOTH",
"158 347 OFFCURVE",
"173 394 OFFCURVE",
"200 420 CURVE SMOOTH",
"227 446 OFFCURVE",
"257 459 OFFCURVE",
"291 459 CURVE SMOOTH",
"327 459 OFFCURVE",
"353 446 OFFCURVE",
"366 422 CURVE SMOOTH",
"375 406 OFFCURVE",
"379 379 OFFCURVE",
"379 344 CURVE SMOOTH",
"379 0 LINE",
"469 0 LINE",
"469 306 LINE SMOOTH",
"469 361 OFFCURVE",
"481 400 OFFCURVE",
"506 423 CURVE SMOOTH",
"532 446 OFFCURVE",
"561 458 OFFCURVE",
"596 458 CURVE SMOOTH",
"621 458 OFFCURVE",
"643 451 OFFCURVE",
"660 438 CURVE",
"677 426 OFFCURVE",
"686 401 OFFCURVE",
"686 366 CURVE SMOOTH",
"686 0 LINE",
"778 0 LINE",
"778 351 LINE SMOOTH",
"778 397 OFFCURVE",
"772 435 OFFCURVE",
"757 462 CURVE SMOOTH",
"729 514 OFFCURVE",
"683 538 OFFCURVE",
"613 538 CURVE SMOOTH",
"580 538 OFFCURVE",
"550 532 OFFCURVE",
"524 518 CURVE",
"497 505 OFFCURVE",
"474 484 OFFCURVE",
"454 456 CURVE",
"443 478 OFFCURVE",
"430 496 OFFCURVE",
"415 507 CURVE",
"390 528 OFFCURVE",
"355 538 OFFCURVE",
"314 538 CURVE SMOOTH",
"277 538 OFFCURVE",
"244 528 OFFCURVE",
"214 508 CURVE SMOOTH",
"198 497 OFFCURVE",
"181 481 OFFCURVE",
"157 452 CURVE",
"157 526 LINE",
"70 526 LINE",
"70 0 LINE"
);
}
);
width = 848;
},
{
layerId = "5DC7B242-CF95-40E7-B7B6-33B4F09A6622";
paths = (
{
closed = 1;
nodes = (
"126 0 LINE",
"126 279 LINE SMOOTH",
"126 345 OFFCURVE",
"138 394 OFFCURVE",
"160 420 CURVE SMOOTH",
"182 446 OFFCURVE",
"205 459 OFFCURVE",
"233 459 CURVE SMOOTH",
"262 459 OFFCURVE",
"282 446 OFFCURVE",
"293 422 CURVE SMOOTH",
"300 406 OFFCURVE",
"303 377 OFFCURVE",
"303 344 CURVE SMOOTH",
"303 0 LINE",
"375 0 LINE",
"375 306 LINE SMOOTH",
"375 363 OFFCURVE",
"385 400 OFFCURVE",
"405 423 CURVE SMOOTH",
"426 446 OFFCURVE",
"448 458 OFFCURVE",
"477 458 CURVE SMOOTH",
"497 458 OFFCURVE",
"514 451 OFFCURVE",
"528 438 CURVE",
"542 426 OFFCURVE",
"549 399 OFFCURVE",
"549 366 CURVE SMOOTH",
"549 0 LINE",
"622 0 LINE",
"622 351 LINE SMOOTH",
"622 397 OFFCURVE",
"618 434 OFFCURVE",
"606 461 CURVE SMOOTH",
"583 514 OFFCURVE",
"547 538 OFFCURVE",
"490 538 CURVE SMOOTH",
"464 538 OFFCURVE",
"440 532 OFFCURVE",
"419 518 CURVE",
"398 505 OFFCURVE",
"381 485 OFFCURVE",
"363 456 CURVE",
"354 478 OFFCURVE",
"345 494 OFFCURVE",
"332 507 CURVE",
"312 528 OFFCURVE",
"284 538 OFFCURVE",
"251 538 CURVE SMOOTH",
"222 538 OFFCURVE",
"195 528 OFFCURVE",
"171 508 CURVE SMOOTH",
"158 497 OFFCURVE",
"143 478 OFFCURVE",
"126 452 CURVE",
"126 526 LINE",
"56 526 LINE",
"56 0 LINE"
);
}
);
width = 678;
}
);
note = m;
unicode = 006D;
},
{
glyphname = n;
lastChange = "2019-03-09 00:04:35 +0000";
layers = (
{
layerId = "994FE389-9D54-4FAA-B055-C46A67020E78";
paths = (
{
closed = 1;
nodes = (
"158 0 LINE",
"158 276 LINE SMOOTH",
"158 310 OFFCURVE",
"161 337 OFFCURVE",
"165 356 CURVE",
"170 374 OFFCURVE",
"179 392 OFFCURVE",
"194 409 CURVE SMOOTH",
"213 431 OFFCURVE",
"234 446 OFFCURVE",
"258 453 CURVE",
"271 456 OFFCURVE",
"288 459 OFFCURVE",
"309 459 CURVE SMOOTH",
"351 459 OFFCURVE",
"378 443 OFFCURVE",
"394 410 CURVE SMOOTH",
"404 390 OFFCURVE",
"409 365 OFFCURVE",
"409 332 CURVE SMOOTH",
"409 0 LINE",
"499 0 LINE",
"499 338 LINE SMOOTH",
"499 389 OFFCURVE",
"493 429 OFFCURVE",
"477 460 CURVE SMOOTH",
"450 513 OFFCURVE",
"401 538 OFFCURVE",
"326 538 CURVE SMOOTH",
"292 538 OFFCURVE",
"261 532 OFFCURVE",
"234 518 CURVE",
"205 505 OFFCURVE",
"179 483 OFFCURVE",
"154 452 CURVE",
"154 526 LINE",
"70 526 LINE",
"70 0 LINE"
);
}
);
width = 569;
},
{
layerId = "5DC7B242-CF95-40E7-B7B6-33B4F09A6622";
paths = (
{
closed = 1;
nodes = (
"126 0 LINE",
"126 276 LINE SMOOTH",
"126 312 OFFCURVE",
"129 337 OFFCURVE",
"132 356 CURVE",
"136 374 OFFCURVE",
"142 390 OFFCURVE",
"156 410 CURVE SMOOTH",
"170 431 OFFCURVE",
"188 446 OFFCURVE",
"206 453 CURVE",
"217 456 OFFCURVE",
"231 459 OFFCURVE",
"247 459 CURVE SMOOTH",
"282 459 OFFCURVE",
"302 443 OFFCURVE",
"315 410 CURVE SMOOTH",
"324 386 OFFCURVE",
"327 365 OFFCURVE",
"327 332 CURVE SMOOTH",
"327 0 LINE",
"399 0 LINE",
"399 338 LINE SMOOTH",
"399 389 OFFCURVE",
"394 429 OFFCURVE",
"382 459 CURVE SMOOTH",
"360 513 OFFCURVE",
"321 538 OFFCURVE",
"261 538 CURVE SMOOTH",
"233 538 OFFCURVE",
"209 532 OFFCURVE",
"187 518 CURVE",
"164 505 OFFCURVE",
"143 483 OFFCURVE",
"123 452 CURVE",
"123 526 LINE",
"56 526 LINE",
"56 0 LINE"
);
}
);
width = 455;
}
);
note = n;
unicode = 006E;
},
{
glyphname = o;
lastChange = "2019-03-09 00:04:35 +0000";
layers = (
{
layerId = "994FE389-9D54-4FAA-B055-C46A67020E78";
paths = (
{
closed = 1;
nodes = (
"392 -18 OFFCURVE",
"457 10 OFFCURVE",
"499 67 CURVE SMOOTH",
"539 120 OFFCURVE",
"560 193 OFFCURVE",
"560 276 CURVE SMOOTH",
"560 366 OFFCURVE",
"534 433 OFFCURVE",
"490 475 CURVE SMOOTH",
"444 519 OFFCURVE",
"385 543 OFFCURVE",
"318 543 CURVE SMOOTH",
"245 543 OFFCURVE",
"182 517 OFFCURVE",
"137 465 CURVE SMOOTH",
"91 412 OFFCURVE",
"70 337 OFFCURVE",
"70 253 CURVE SMOOTH",
"70 170 OFFCURVE",
"91 105 OFFCURVE",
"133 56 CURVE SMOOTH",
"176 6 OFFCURVE",
"233 -18 OFFCURVE",
"306 -18 CURVE SMOOTH"
);
},
{
closed = 1;
nodes = (
"261 58 OFFCURVE",
"222 77 OFFCURVE",
"197 115 CURVE SMOOTH",
"172 152 OFFCURVE",
"161 198 OFFCURVE",
"161 255 CURVE SMOOTH",
"161 313 OFFCURVE",
"172 363 OFFCURVE",
"197 404 CURVE SMOOTH",
"222 445 OFFCURVE",
"262 466 OFFCURVE",
"315 466 CURVE SMOOTH",
"376 466 OFFCURVE",
"419 441 OFFCURVE",
"444 393 CURVE SMOOTH",
"461 362 OFFCURVE",
"468 322 OFFCURVE",
"468 273 CURVE SMOOTH",
"468 218 OFFCURVE",
"457 169 OFFCURVE",
"435 125 CURVE SMOOTH",
"413 80 OFFCURVE",
"372 58 OFFCURVE",
"314 58 CURVE SMOOTH"
);
}
);
width = 630;
},
{
layerId = "5DC7B242-CF95-40E7-B7B6-33B4F09A6622";
paths = (
{
closed = 1;
nodes = (
"318 -18 OFFCURVE",
"367 13 OFFCURVE",
"400 68 CURVE SMOOTH",
"431 120 OFFCURVE",
"448 194 OFFCURVE",
"448 276 CURVE SMOOTH",
"448 367 OFFCURVE",
"427 433 OFFCURVE",
"392 475 CURVE SMOOTH",
"355 519 OFFCURVE",
"309 543 OFFCURVE",
"254 543 CURVE SMOOTH",
"195 543 OFFCURVE",
"146 517 OFFCURVE",
"109 464 CURVE SMOOTH",
"73 412 OFFCURVE",
"56 337 OFFCURVE",
"56 253 CURVE SMOOTH",
"56 169 OFFCURVE",
"73 105 OFFCURVE",
"107 55 CURVE SMOOTH",
"141 6 OFFCURVE",
"187 -18 OFFCURVE",
"245 -18 CURVE SMOOTH"
);
},
{
closed = 1;
nodes = (
"208 58 OFFCURVE",
"178 77 OFFCURVE",
"157 116 CURVE SMOOTH",
"138 152 OFFCURVE",
"129 197 OFFCURVE",
"129 255 CURVE SMOOTH",
"129 316 OFFCURVE",
"138 363 OFFCURVE",
"158 405 CURVE SMOOTH",
"178 445 OFFCURVE",
"210 466 OFFCURVE",
"252 466 CURVE SMOOTH",
"300 466 OFFCURVE",
"335 441 OFFCURVE",
"355 394 CURVE SMOOTH",
"369 362 OFFCURVE",
"374 320 OFFCURVE",
"374 273 CURVE SMOOTH",
"374 220 OFFCURVE",
"366 169 OFFCURVE",
"348 125 CURVE SMOOTH",
"330 80 OFFCURVE",
"299 58 OFFCURVE",
"251 58 CURVE SMOOTH"
);
}
);
width = 504;
}
);
leftKerningGroup = o;
note = o;
unicode = 006F;
},
{
glyphname = p;
lastChange = "2019-03-09 00:04:35 +0000";
layers = (
{
layerId = "994FE389-9D54-4FAA-B055-C46A67020E78";
paths = (
{
closed = 1;
nodes = (
"156 -182 LINE",
"156 77 LINE",
"175 56 OFFCURVE",
"191 38 OFFCURVE",
"207 30 CURVE SMOOTH",
"233 16 OFFCURVE",
"265 4 OFFCURVE",
"303 4 CURVE SMOOTH",
"351 4 OFFCURVE",
"395 20 OFFCURVE",
"431 49 CURVE SMOOTH",
"489 96 OFFCURVE",
"517 176 OFFCURVE",
"517 286 CURVE SMOOTH",
"517 369 OFFCURVE",
"497 432 OFFCURVE",
"457 476 CURVE SMOOTH",
"417 521 OFFCURVE",
"368 542 OFFCURVE",
"311 542 CURVE SMOOTH",
"271 542 OFFCURVE",
"238 533 OFFCURVE",
"209 515 CURVE SMOOTH",
"188 502 OFFCURVE",
"171 483 OFFCURVE",
"153 461 CURVE",
"153 528 LINE",
"70 528 LINE",
"70 -182 LINE"
);
},
{
closed = 1;
nodes = (
"233 78 OFFCURVE",
"190 106 OFFCURVE",
"169 157 CURVE SMOOTH",
"158 185 OFFCURVE",
"152 219 OFFCURVE",
"152 258 CURVE SMOOTH",
"152 306 OFFCURVE",
"158 347 OFFCURVE",
"169 378 CURVE SMOOTH",
"190 437 OFFCURVE",
"233 467 OFFCURVE",
"291 467 CURVE SMOOTH",
"350 467 OFFCURVE",
"390 439 OFFCURVE",
"413 383 CURVE SMOOTH",
"425 354 OFFCURVE",
"431 318 OFFCURVE",
"431 278 CURVE SMOOTH",
"431 213 OFFCURVE",
"417 163 OFFCURVE",
"391 129 CURVE SMOOTH",
"365 96 OFFCURVE",
"331 78 OFFCURVE",
"291 78 CURVE SMOOTH"
);
}
);
width = 587;
},
{
layerId = "5DC7B242-CF95-40E7-B7B6-33B4F09A6622";
paths = (
{
closed = 1;
nodes = (
"125 -182 LINE",
"125 77 LINE",
"141 54 OFFCURVE",
"153 38 OFFCURVE",
"167 29 CURVE SMOOTH",
"186 16 OFFCURVE",
"213 4 OFFCURVE",
"242 4 CURVE SMOOTH",
"280 4 OFFCURVE",
"316 20 OFFCURVE",
"345 49 CURVE SMOOTH",
"391 96 OFFCURVE",
"414 176 OFFCURVE",
"414 286 CURVE SMOOTH",
"414 369 OFFCURVE",
"398 431 OFFCURVE",
"365 477 CURVE SMOOTH",
"334 521 OFFCURVE",
"293 542 OFFCURVE",
"249 542 CURVE SMOOTH",
"216 542 OFFCURVE",
"190 533 OFFCURVE",
"166 514 CURVE SMOOTH",
"152 503 OFFCURVE",
"138 485 OFFCURVE",
"122 461 CURVE",
"122 528 LINE",
"56 528 LINE",
"56 -182 LINE"
);
},
{
closed = 1;
nodes = (
"186 78 OFFCURVE",
"152 106 OFFCURVE",
"135 158 CURVE SMOOTH",
"126 185 OFFCURVE",
"122 223 OFFCURVE",
"122 258 CURVE SMOOTH",
"122 301 OFFCURVE",
"126 347 OFFCURVE",
"135 378 CURVE SMOOTH",
"152 437 OFFCURVE",
"187 467 OFFCURVE",
"233 467 CURVE SMOOTH",
"280 467 OFFCURVE",
"312 439 OFFCURVE",
"330 384 CURVE SMOOTH",
"340 354 OFFCURVE",
"345 319 OFFCURVE",
"345 278 CURVE SMOOTH",
"345 216 OFFCURVE",
"334 163 OFFCURVE",
"313 129 CURVE SMOOTH",
"292 96 OFFCURVE",
"264 78 OFFCURVE",
"233 78 CURVE SMOOTH"
);
}
);
width = 470;
}
);
leftKerningGroup = b;
note = p;
rightKerningGroup = o;
unicode = 0070;
},
{
glyphname = q;
lastChange = "2019-03-09 00:04:35 +0000";
layers = (
{
layerId = "994FE389-9D54-4FAA-B055-C46A67020E78";
paths = (
{
closed = 1;
nodes = (
"521 -182 LINE",
"521 531 LINE",
"440 531 LINE",
"440 461 LINE",
"425 483 OFFCURVE",
"409 499 OFFCURVE",
"394 511 CURVE SMOOTH",
"365 533 OFFCURVE",
"329 543 OFFCURVE",
"287 543 CURVE SMOOTH",
"223 543 OFFCURVE",
"170 516 OFFCURVE",
"131 465 CURVE SMOOTH",
"92 413 OFFCURVE",
"70 346 OFFCURVE",
"70 263 CURVE SMOOTH",
"70 176 OFFCURVE",
"92 112 OFFCURVE",
"135 69 CURVE SMOOTH",
"178 26 OFFCURVE",
"226 6 OFFCURVE",
"281 6 CURVE SMOOTH",
"319 6 OFFCURVE",
"350 13 OFFCURVE",
"375 26 CURVE",
"401 38 OFFCURVE",
"420 57 OFFCURVE",
"435 80 CURVE",
"435 -182 LINE"
);
},
{
closed = 1;
nodes = (
"239 79 OFFCURVE",
"199 106 OFFCURVE",
"178 159 CURVE SMOOTH",
"166 189 OFFCURVE",
"160 226 OFFCURVE",
"160 269 CURVE SMOOTH",
"160 336 OFFCURVE",
"175 386 OFFCURVE",
"200 418 CURVE SMOOTH",
"226 452 OFFCURVE",
"258 466 OFFCURVE",
"295 466 CURVE SMOOTH",
"354 466 OFFCURVE",
"395 442 OFFCURVE",
"417 391 CURVE SMOOTH",
"430 362 OFFCURVE",
"439 325 OFFCURVE",
"439 281 CURVE SMOOTH",
"439 234 OFFCURVE",
"434 199 OFFCURVE",
"419 164 CURVE SMOOTH",
"395 107 OFFCURVE",
"355 79 OFFCURVE",
"295 79 CURVE SMOOTH"
);
}
);
width = 591;
},
{
layerId = "5DC7B242-CF95-40E7-B7B6-33B4F09A6622";
paths = (
{
closed = 1;
nodes = (
"417 -182 LINE",
"417 531 LINE",
"352 531 LINE",
"352 461 LINE",
"340 483 OFFCURVE",
"329 497 OFFCURVE",
"315 511 CURVE SMOOTH",
"292 533 OFFCURVE",
"264 543 OFFCURVE",
"230 543 CURVE SMOOTH",
"178 543 OFFCURVE",
"136 516 OFFCURVE",
"105 465 CURVE SMOOTH",
"74 413 OFFCURVE",
"56 349 OFFCURVE",
"56 263 CURVE SMOOTH",
"56 175 OFFCURVE",
"74 112 OFFCURVE",
"108 69 CURVE SMOOTH",
"142 26 OFFCURVE",
"182 6 OFFCURVE",
"225 6 CURVE SMOOTH",
"255 6 OFFCURVE",
"280 13 OFFCURVE",
"300 26 CURVE",
"321 38 OFFCURVE",
"336 58 OFFCURVE",
"348 80 CURVE",
"348 -182 LINE"
);
},
{
closed = 1;
nodes = (
"191 79 OFFCURVE",
"159 106 OFFCURVE",
"142 160 CURVE SMOOTH",
"133 189 OFFCURVE",
"128 226 OFFCURVE",
"128 269 CURVE SMOOTH",
"128 336 OFFCURVE",
"140 386 OFFCURVE",
"160 418 CURVE SMOOTH",
"181 452 OFFCURVE",
"206 466 OFFCURVE",
"236 466 CURVE SMOOTH",
"284 466 OFFCURVE",
"316 442 OFFCURVE",
"334 390 CURVE SMOOTH",
"344 362 OFFCURVE",
"351 324 OFFCURVE",
"351 281 CURVE SMOOTH",
"351 230 OFFCURVE",
"347 199 OFFCURVE",
"335 164 CURVE SMOOTH",
"316 107 OFFCURVE",
"284 79 OFFCURVE",
"236 79 CURVE SMOOTH"
);
}
);
width = 473;
}
);
leftKerningGroup = o;
note = q;
unicode = 0071;
},
{
glyphname = r;
lastChange = "2019-03-09 00:04:35 +0000";
layers = (
{
layerId = "994FE389-9D54-4FAA-B055-C46A67020E78";
paths = (
{
closed = 1;
nodes = (
"158 0 LINE",
"158 305 LINE SMOOTH",
"158 342 OFFCURVE",
"170 376 OFFCURVE",
"194 404 CURVE SMOOTH",
"219 432 OFFCURVE",
"253 448 OFFCURVE",
"298 448 CURVE",
"312 447 LINE",
"316 447 OFFCURVE",
"321 446 OFFCURVE",
"327 446 CURVE",
"327 539 LINE",
"317 540 OFFCURVE",
"311 540 OFFCURVE",
"306 541 CURVE",
"302 542 OFFCURVE",
"300 541 OFFCURVE",
"298 541 CURVE SMOOTH",
"263 541 OFFCURVE",
"231 528 OFFCURVE",
"204 503 CURVE SMOOTH",
"185 485 OFFCURVE",
"161 456 OFFCURVE",
"153 437 CURVE",
"153 529 LINE",
"70 529 LINE",
"70 0 LINE"
);
}
);
width = 397;
},
{
layerId = "5DC7B242-CF95-40E7-B7B6-33B4F09A6622";
paths = (
{
closed = 1;
nodes = (
"126 0 LINE",
"126 305 LINE SMOOTH",
"126 343 OFFCURVE",
"136 376 OFFCURVE",
"156 405 CURVE SMOOTH",
"175 432 OFFCURVE",
"203 448 OFFCURVE",
"238 448 CURVE",
"250 447 LINE",
"253 447 OFFCURVE",
"257 446 OFFCURVE",
"262 446 CURVE",
"262 539 LINE",
"254 540 OFFCURVE",
"249 540 OFFCURVE",
"245 541 CURVE",
"242 542 OFFCURVE",
"240 541 OFFCURVE",
"238 541 CURVE SMOOTH",
"210 541 OFFCURVE",
"185 528 OFFCURVE",
"163 503 CURVE SMOOTH",
"150 488 OFFCURVE",
"127 454 OFFCURVE",
"122 437 CURVE",
"122 529 LINE",
"56 529 LINE",
"56 0 LINE"
);
}
);
width = 318;
}
);
note = r;
unicode = 0072;
},
{
glyphname = s;
lastChange = "2019-03-09 00:04:35 +0000";
layers = (
{
layerId = "994FE389-9D54-4FAA-B055-C46A67020E78";
paths = (
{
closed = 1;
nodes = (
"356 -9 OFFCURVE",
"408 8 OFFCURVE",
"444 40 CURVE SMOOTH",
"481 73 OFFCURVE",
"495 115 OFFCURVE",
"495 160 CURVE SMOOTH",
"495 208 OFFCURVE",
"479 242 OFFCURVE",
"446 265 CURVE",
"424 279 OFFCURVE",
"383 290 OFFCURVE",
"319 307 CURVE SMOOTH",
"263 322 LINE SMOOTH",
"237 329 OFFCURVE",
"229 331 OFFCURVE",
"207 344 CURVE",
"184 358 OFFCURVE",
"173 376 OFFCURVE",
"173 396 CURVE SMOOTH",
"173 417 OFFCURVE",
"181 435 OFFCURVE",
"198 447 CURVE SMOOTH",
"216 460 OFFCURVE",
"239 466 OFFCURVE",
"273 466 CURVE SMOOTH",
"321 466 OFFCURVE",
"356 455 OFFCURVE",
"377 432 CURVE",
"388 416 OFFCURVE",
"396 397 OFFCURVE",
"398 379 CURVE",
"479 379 LINE",
"480 411 OFFCURVE",
"469 443 OFFCURVE",
"447 474 CURVE SMOOTH",
"414 519 OFFCURVE",
"357 540 OFFCURVE",
"279 540 CURVE SMOOTH",
"218 540 OFFCURVE",
"172 525 OFFCURVE",
"137 495 CURVE SMOOTH",
"102 466 OFFCURVE",
"85 425 OFFCURVE",
"85 377 CURVE SMOOTH",
"85 335 OFFCURVE",
"104 303 OFFCURVE",
"139 279 CURVE SMOOTH",
"160 265 OFFCURVE",
"198 252 OFFCURVE",
"238 242 CURVE SMOOTH",
"308 225 LINE SMOOTH",
"353 214 OFFCURVE",
"364 208 OFFCURVE",
"381 201 CURVE",
"401 189 OFFCURVE",
"409 172 OFFCURVE",
"409 150 CURVE SMOOTH",
"409 121 OFFCURVE",
"398 100 OFFCURVE",
"374 86 CURVE SMOOTH",
"349 71 OFFCURVE",
"320 64 OFFCURVE",
"289 64 CURVE SMOOTH",
"234 64 OFFCURVE",
"198 78 OFFCURVE",
"175 106 CURVE SMOOTH",
"162 122 OFFCURVE",
"156 144 OFFCURVE",
"153 173 CURVE",
"70 173 LINE",
"72 121 OFFCURVE",
"89 78 OFFCURVE",
"122 43 CURVE SMOOTH",
"153 9 OFFCURVE",
"208 -9 OFFCURVE",
"285 -9 CURVE SMOOTH"
);
}
);
width = 565;
},
{
layerId = "5DC7B242-CF95-40E7-B7B6-33B4F09A6622";
paths = (
{
closed = 1;
nodes = (
"286 -9 OFFCURVE",
"326 8 OFFCURVE",
"356 41 CURVE SMOOTH",
"385 73 OFFCURVE",
"396 116 OFFCURVE",
"396 160 CURVE SMOOTH",
"396 208 OFFCURVE",
"383 242 OFFCURVE",
"357 265 CURVE",
"339 279 OFFCURVE",
"308 289 OFFCURVE",
"255 307 CURVE SMOOTH",
"210 322 LINE SMOOTH",
"187 330 OFFCURVE",
"184 331 OFFCURVE",
"166 344 CURVE",
"147 358 OFFCURVE",
"138 377 OFFCURVE",
"138 396 CURVE SMOOTH",
"138 419 OFFCURVE",
"145 435 OFFCURVE",
"159 447 CURVE SMOOTH",
"173 460 OFFCURVE",
"190 466 OFFCURVE",
"218 466 CURVE SMOOTH",
"256 466 OFFCURVE",
"285 455 OFFCURVE",
"302 432 CURVE",
"310 416 OFFCURVE",
"316 398 OFFCURVE",
"318 379 CURVE",
"383 379 LINE",
"384 411 OFFCURVE",
"375 443 OFFCURVE",
"358 473 CURVE SMOOTH",
"331 519 OFFCURVE",
"287 540 OFFCURVE",
"223 540 CURVE SMOOTH",
"173 540 OFFCURVE",
"138 525 OFFCURVE",
"110 495 CURVE SMOOTH",
"82 466 OFFCURVE",
"68 428 OFFCURVE",
"68 377 CURVE SMOOTH",
"68 336 OFFCURVE",
"83 303 OFFCURVE",
"111 279 CURVE SMOOTH",
"128 265 OFFCURVE",
"159 251 OFFCURVE",
"190 242 CURVE SMOOTH",
"246 225 LINE SMOOTH",
"279 215 OFFCURVE",
"292 208 OFFCURVE",
"305 201 CURVE",
"321 189 OFFCURVE",
"327 171 OFFCURVE",
"327 150 CURVE SMOOTH",
"327 119 OFFCURVE",
"318 100 OFFCURVE",
"299 86 CURVE SMOOTH",
"279 71 OFFCURVE",
"257 64 OFFCURVE",
"231 64 CURVE SMOOTH",
"188 64 OFFCURVE",
"158 78 OFFCURVE",
"140 106 CURVE SMOOTH",
"130 121 OFFCURVE",
"125 144 OFFCURVE",
"122 173 CURVE",
"56 173 LINE",
"58 121 OFFCURVE",
"70 81 OFFCURVE",
"97 44 CURVE SMOOTH",
"125 6 OFFCURVE",
"170 -9 OFFCURVE",
"228 -9 CURVE SMOOTH"
);
}
);
width = 452;
}
);
note = s;
rightKerningGroup = o;
unicode = 0073;
},
{
glyphname = t;
lastChange = "2019-03-09 00:04:35 +0000";
layers = (
{
layerId = "994FE389-9D54-4FAA-B055-C46A67020E78";
paths = (
{
closed = 1;
nodes = (
"263 -14 OFFCURVE",
"275 -13 OFFCURVE",
"289 -12 CURVE SMOOTH",
"300 -11 OFFCURVE",
"310 -7 OFFCURVE",
"318 -4 CURVE",
"318 66 LINE",
"302 66 LINE SMOOTH",
"297 66 OFFCURVE",
"292 65 OFFCURVE",
"289 65 CURVE SMOOTH",
"271 65 OFFCURVE",
"259 66 OFFCURVE",
"252 69 CURVE",
"239 76 OFFCURVE",
"235 89 OFFCURVE",
"235 108 CURVE SMOOTH",
"235 458 LINE",
"318 458 LINE",
"318 531 LINE",
"235 531 LINE",
"235 682 LINE",
"144 682 LINE",
"144 531 LINE",
"70 531 LINE",
"70 458 LINE",
"144 458 LINE",
"144 103 LINE SMOOTH",
"144 67 OFFCURVE",
"150 41 OFFCURVE",
"165 19 CURVE",
"179 -4 OFFCURVE",
"209 -14 OFFCURVE",
"250 -14 CURVE SMOOTH"
);
}
);
width = 388;
},
{
layerId = "5DC7B242-CF95-40E7-B7B6-33B4F09A6622";
paths = (
{
closed = 1;
nodes = (
"211 -14 OFFCURVE",
"220 -13 OFFCURVE",
"231 -12 CURVE SMOOTH",
"240 -11 OFFCURVE",
"247 -7 OFFCURVE",
"254 -4 CURVE",
"254 66 LINE",
"242 66 LINE SMOOTH",
"238 66 OFFCURVE",
"234 65 OFFCURVE",
"231 65 CURVE SMOOTH",
"215 65 OFFCURVE",
"207 66 OFFCURVE",
"202 69 CURVE",
"191 76 OFFCURVE",
"188 89 OFFCURVE",
"188 108 CURVE SMOOTH",
"188 458 LINE",
"254 458 LINE",
"254 531 LINE",
"188 531 LINE",
"188 682 LINE",
"115 682 LINE",
"115 531 LINE",
"56 531 LINE",
"56 458 LINE",
"115 458 LINE",
"115 103 LINE SMOOTH",
"115 67 OFFCURVE",
"120 41 OFFCURVE",
"132 19 CURVE",
"143 -4 OFFCURVE",
"167 -14 OFFCURVE",
"200 -14 CURVE SMOOTH"
);
}
);
width = 310;
}
);
note = t;
unicode = 0074;
},
{
glyphname = u;
lastChange = "2019-03-09 00:04:35 +0000";
layers = (
{
layerId = "994FE389-9D54-4FAA-B055-C46A67020E78";
paths = (
{
closed = 1;
nodes = (
"296 -14 OFFCURVE",
"336 -1 OFFCURVE",
"372 27 CURVE SMOOTH",
"390 42 OFFCURVE",
"401 60 OFFCURVE",
"413 78 CURVE",
"413 1 LINE",
"497 1 LINE",
"497 531 LINE",
"408 531 LINE",
"408 270 LINE SMOOTH",
"408 218 OFFCURVE",
"402 177 OFFCURVE",
"389 149 CURVE SMOOTH",
"364 95 OFFCURVE",
"325 66 OFFCURVE",
"263 66 CURVE SMOOTH",
"219 66 OFFCURVE",
"192 80 OFFCURVE",
"175 113 CURVE SMOOTH",
"167 129 OFFCURVE",
"162 151 OFFCURVE",
"162 179 CURVE SMOOTH",
"162 531 LINE",
"70 531 LINE",
"70 171 LINE SMOOTH",
"70 126 OFFCURVE",
"77 88 OFFCURVE",
"93 61 CURVE SMOOTH",
"121 11 OFFCURVE",
"173 -14 OFFCURVE",
"247 -14 CURVE SMOOTH"
);
}
);
width = 567;
},
{
layerId = "5DC7B242-CF95-40E7-B7B6-33B4F09A6622";
paths = (
{
closed = 1;
nodes = (
"236 -14 OFFCURVE",
"269 -1 OFFCURVE",
"298 27 CURVE SMOOTH",
"311 40 OFFCURVE",
"323 64 OFFCURVE",
"330 78 CURVE",
"330 1 LINE",
"398 1 LINE",
"398 531 LINE",
"326 531 LINE",
"326 270 LINE SMOOTH",
"326 224 OFFCURVE",
"323 181 OFFCURVE",
"311 149 CURVE SMOOTH",
"291 95 OFFCURVE",
"261 66 OFFCURVE",
"210 66 CURVE SMOOTH",
"175 66 OFFCURVE",
"154 80 OFFCURVE",
"140 113 CURVE SMOOTH",
"134 129 OFFCURVE",
"130 149 OFFCURVE",
"130 179 CURVE SMOOTH",
"130 531 LINE",
"56 531 LINE",
"56 171 LINE SMOOTH",
"56 124 OFFCURVE",
"62 88 OFFCURVE",
"74 62 CURVE SMOOTH",
"97 11 OFFCURVE",
"137 -14 OFFCURVE",
"198 -14 CURVE SMOOTH"
);
}
);
width = 454;
}
);
note = u;
unicode = 0075;
},
{
glyphname = v;
lastChange = "2019-03-09 00:04:35 +0000";
layers = (
{
layerId = "994FE389-9D54-4FAA-B055-C46A67020E78";
paths = (
{
closed = 1;
nodes = (
"360 -1 LINE",
"560 531 LINE",
"463 531 LINE",
"314 98 LINE",
"173 531 LINE",
"70 531 LINE",
"265 -1 LINE"
);
}
);
width = 630;
},
{
layerId = "5DC7B242-CF95-40E7-B7B6-33B4F09A6622";
paths = (
{
closed = 1;
nodes = (
"288 -1 LINE",
"448 531 LINE",
"370 531 LINE",
"251 98 LINE",
"138 531 LINE",
"56 531 LINE",
"212 -1 LINE"
);
}
);
width = 504;
}
);
note = v;
unicode = 0076;
},
{
glyphname = w;
lastChange = "2019-03-09 00:04:35 +0000";
layers = (
{
layerId = "994FE389-9D54-4FAA-B055-C46A67020E78";
paths = (
{
closed = 1;
nodes = (
"315 0 LINE",
"418 409 LINE",
"527 0 LINE",
"619 0 LINE",
"772 529 LINE",
"684 529 LINE",
"576 116 LINE",
"472 529 LINE",
"371 529 LINE",
"268 113 LINE",
"167 529 LINE",
"70 529 LINE",
"223 0 LINE"
);
}
);
width = 842;
},
{
layerId = "5DC7B242-CF95-40E7-B7B6-33B4F09A6622";
paths = (
{
closed = 1;
nodes = (
"252 0 LINE",
"334 409 LINE",
"422 0 LINE",
"495 0 LINE",
"618 529 LINE",
"547 529 LINE",
"461 116 LINE",
"378 529 LINE",
"297 529 LINE",
"214 113 LINE",
"134 529 LINE",
"56 529 LINE",
"178 0 LINE"
);
}
);
width = 674;
}
);
note = w;
unicode = 0077;
},
{
glyphname = x;
lastChange = "2019-03-09 00:04:35 +0000";
layers = (
{
layerId = "994FE389-9D54-4FAA-B055-C46A67020E78";
paths = (
{
closed = 1;
nodes = (
"184 1 LINE",
"311 201 LINE",
"443 1 LINE",
"559 1 LINE",
"371 274 LINE",
"550 531 LINE",
"441 533 LINE",
"318 346 LINE",
"196 533 LINE",
"80 533 LINE",
"258 274 LINE",
"70 1 LINE"
);
}
);
width = 629;
},
{
layerId = "5DC7B242-CF95-40E7-B7B6-33B4F09A6622";
paths = (
{
closed = 1;
nodes = (
"147 1 LINE",
"249 201 LINE",
"354 1 LINE",
"447 1 LINE",
"297 274 LINE",
"440 531 LINE",
"353 533 LINE",
"254 346 LINE",
"157 533 LINE",
"64 533 LINE",
"206 274 LINE",
"56 1 LINE"
);
}
);
width = 503;
}
);
note = x;
unicode = 0078;
},
{
glyphname = y;
lastChange = "2019-03-09 00:04:35 +0000";
layers = (
{
layerId = "994FE389-9D54-4FAA-B055-C46A67020E78";
paths = (
{
closed = 1;
nodes = (
"218 -189 OFFCURVE",
"253 -175 OFFCURVE",
"273 -146 CURVE SMOOTH",
"293 -117 OFFCURVE",
"329 -38 OFFCURVE",
"378 92 CURVE SMOOTH",
"379 95 OFFCURVE",
"433 237 OFFCURVE",
"457 306 CURVE SMOOTH",
"478 367 OFFCURVE",
"526 498 OFFCURVE",
"537 531 CURVE",
"442 531 LINE",
"305 116 LINE",
"167 531 LINE",
"70 531 LINE",
"259 6 LINE",
"254 -6 OFFCURVE",
"254 -9 OFFCURVE",
"238 -47 CURVE SMOOTH",
"230 -67 OFFCURVE",
"222 -84 OFFCURVE",
"220 -86 CURVE",
"215 -94 OFFCURVE",
"209 -100 OFFCURVE",
"201 -105 CURVE",
"194 -110 OFFCURVE",
"182 -114 OFFCURVE",
"166 -114 CURVE SMOOTH",
"162 -114 OFFCURVE",
"156 -113 OFFCURVE",
"149 -112 CURVE SMOOTH",
"142 -111 OFFCURVE",
"132 -108 OFFCURVE",
"117 -104 CURVE",
"117 -182 LINE",
"140 -187 LINE",
"147 -188 OFFCURVE",
"157 -189 OFFCURVE",
"168 -189 CURVE SMOOTH"
);
}
);
width = 607;
},
{
layerId = "5DC7B242-CF95-40E7-B7B6-33B4F09A6622";
paths = (
{
closed = 1;
nodes = (
"176 -189 OFFCURVE",
"202 -175 OFFCURVE",
"219 -145 CURVE SMOOTH",
"234 -117 OFFCURVE",
"261 -46 OFFCURVE",
"302 91 CURVE SMOOTH",
"303 94 OFFCURVE",
"348 242 OFFCURVE",
"365 304 CURVE SMOOTH",
"385 377 OFFCURVE",
"421 498 OFFCURVE",
"430 531 CURVE",
"354 531 LINE",
"244 116 LINE",
"134 531 LINE",
"56 531 LINE",
"207 6 LINE",
"203 -6 OFFCURVE",
"205 -3 OFFCURVE",
"190 -48 CURVE SMOOTH",
"184 -67 OFFCURVE",
"178 -83 OFFCURVE",
"176 -86 CURVE",
"172 -94 OFFCURVE",
"167 -100 OFFCURVE",
"161 -105 CURVE",
"155 -110 OFFCURVE",
"145 -114 OFFCURVE",
"133 -114 CURVE SMOOTH",
"130 -114 OFFCURVE",
"125 -113 OFFCURVE",
"119 -112 CURVE SMOOTH",
"113 -111 OFFCURVE",
"106 -108 OFFCURVE",
"94 -104 CURVE",
"94 -182 LINE",
"112 -187 LINE",
"118 -188 OFFCURVE",
"126 -189 OFFCURVE",
"134 -189 CURVE SMOOTH"
);
}
);
width = 486;
}
);
note = y;
unicode = 0079;
},
{
glyphname = z;
lastChange = "2019-03-09 00:04:35 +0000";
layers = (
{
layerId = "994FE389-9D54-4FAA-B055-C46A67020E78";
paths = (
{
closed = 1;
nodes = (
"516 -1 LINE",
"516 79 LINE",
"193 79 LINE",
"507 458 LINE",
"507 531 LINE",
"94 531 LINE",
"94 451 LINE",
"386 451 LINE",
"70 69 LINE",
"70 -1 LINE"
);
}
);
width = 586;
},
{
layerId = "5DC7B242-CF95-40E7-B7B6-33B4F09A6622";
paths = (
{
closed = 1;
nodes = (
"413 -1 LINE",
"413 79 LINE",
"154 79 LINE",
"406 458 LINE",
"406 531 LINE",
"75 531 LINE",
"75 451 LINE",
"309 451 LINE",
"56 69 LINE",
"56 -1 LINE"
);
}
);
width = 469;
}
);
note = z;
unicode = 007A;
},
{
glyphname = A_W.liga;
lastChange = "2019-03-09 00:04:35 +0000";
layers = (
{
layerId = "994FE389-9D54-4FAA-B055-C46A67020E78";
paths = (
{
closed = 1;
nodes = (
"854 0 LINE",
"1013 566 LINE",
"1171 0 LINE",
"1268 0 LINE",
"1448 684 LINE",
"1346 684 LINE",
"1217 128 LINE",
"1064 684 LINE",
"962 684 LINE",
"809 128 LINE",
"679 684 LINE",
"579 684 LINE",
"758 0 LINE"
);
},
{
closed = 1;
nodes = (
"164 0 LINE",
"238 203 LINE",
"508 203 LINE",
"577 0 LINE",
"679 0 LINE",
"431 682 LINE",
"326 682 LINE",
"70 0 LINE"
);
},
{
closed = 1;
nodes = (
"376 579 LINE",
"478 278 LINE",
"264 278 LINE"
);
}
);
width = 1518;
},
{
layerId = "5DC7B242-CF95-40E7-B7B6-33B4F09A6622";
paths = (
{
closed = 1;
nodes = (
"683 0 LINE",
"810 566 LINE",
"937 0 LINE",
"1014 0 LINE",
"1158 684 LINE",
"1077 684 LINE",
"974 128 LINE",
"851 684 LINE",
"770 684 LINE",
"647 128 LINE",
"543 684 LINE",
"463 684 LINE",
"606 0 LINE"
);
},
{
closed = 1;
nodes = (
"131 0 LINE",
"190 203 LINE",
"406 203 LINE",
"462 0 LINE",
"543 0 LINE",
"345 682 LINE",
"261 682 LINE",
"56 0 LINE"
);
},
{
closed = 1;
nodes = (
"301 579 LINE",
"382 278 LINE",
"211 278 LINE"
);
}
);
width = 1214;
}
);
},
{
glyphname = W_A.liga;
lastChange = "2019-03-09 00:04:35 +0000";
layers = (
{
layerId = "994FE389-9D54-4FAA-B055-C46A67020E78";
paths = (
{
closed = 1;
nodes = (
"345 0 LINE",
"504 566 LINE",
"662 0 LINE",
"759 0 LINE",
"939 684 LINE",
"837 684 LINE",
"708 128 LINE",
"555 684 LINE",
"453 684 LINE",
"300 128 LINE",
"170 684 LINE",
"70 684 LINE",
"249 0 LINE"
);
},
{
closed = 1;
nodes = (
"943 0 LINE",
"1016 203 LINE",
"1286 203 LINE",
"1356 0 LINE",
"1457 0 LINE",
"1209 682 LINE",
"1105 682 LINE",
"848 0 LINE"
);
},
{
closed = 1;
nodes = (
"1155 579 LINE",
"1256 278 LINE",
"1043 278 LINE"
);
}
);
width = 1527;
},
{
layerId = "5DC7B242-CF95-40E7-B7B6-33B4F09A6622";
paths = (
{
closed = 1;
nodes = (
"276 0 LINE",
"403 566 LINE",
"530 0 LINE",
"607 0 LINE",
"751 684 LINE",
"670 684 LINE",
"566 128 LINE",
"444 684 LINE",
"362 684 LINE",
"240 128 LINE",
"136 684 LINE",
"56 684 LINE",
"199 0 LINE"
);
},
{
closed = 1;
nodes = (
"754 0 LINE",
"813 203 LINE",
"1029 203 LINE",
"1085 0 LINE",
"1166 0 LINE",
"967 682 LINE",
"884 682 LINE",
"678 0 LINE"
);
},
{
closed = 1;
nodes = (
"924 579 LINE",
"1005 278 LINE",
"834 278 LINE"
);
}
);
width = 1222;
}
);
},
{
glyphname = "ra_xa-ethiopic.liga";
lastChange = "2019-03-09 00:04:35 +0000";
layers = (
{
layerId = "994FE389-9D54-4FAA-B055-C46A67020E78";
paths = (
{
closed = 1;
nodes = (
"800 0 LINE",
"800 439 LINE SMOOTH",
"800 531 OFFCURVE",
"800 531 OFFCURVE",
"697 531 CURVE SMOOTH",
"468 531 LINE",
"468 727 LINE",
"377 727 LINE",
"377 654 LINE",
"246 654 LINE",
"246 571 LINE",
"377 571 LINE",
"377 505 LINE SMOOTH",
"377 477 OFFCURVE",
"394 458 OFFCURVE",
"423 458 CURVE SMOOTH",
"651 458 LINE SMOOTH",
"710 458 OFFCURVE",
"710 458 OFFCURVE",
"710 278 CURVE SMOOTH",
"710 0 LINE"
);
},
{
closed = 1;
nodes = (
"498 79 LINE",
"249 78 LINE SMOOTH",
"172 78 OFFCURVE",
"156 85 OFFCURVE",
"156 212 CURVE SMOOTH",
"156 312 OFFCURVE",
"159 478 OFFCURVE",
"159 531 CURVE",
"70 531 LINE",
"70 134 LINE SMOOTH",
"70 50 OFFCURVE",
"110 0 OFFCURVE",
"162 0 CURVE SMOOTH",
"497 -1 LINE"
);
}
);
width = 870;
},
{
layerId = "5DC7B242-CF95-40E7-B7B6-33B4F09A6622";
paths = (
{
closed = 1;
nodes = (
"640 0 LINE",
"640 439 LINE SMOOTH",
"640 531 OFFCURVE",
"640 531 OFFCURVE",
"558 531 CURVE SMOOTH",
"374 531 LINE",
"374 727 LINE",
"302 727 LINE",
"302 654 LINE",
"197 654 LINE",
"197 571 LINE",
"302 571 LINE",
"302 505 LINE SMOOTH",
"302 478 OFFCURVE",
"315 458 OFFCURVE",
"338 458 CURVE SMOOTH",
"521 458 LINE SMOOTH",
"568 458 OFFCURVE",
"568 458 OFFCURVE",
"568 278 CURVE SMOOTH",
"568 0 LINE"
);
},
{
closed = 1;
nodes = (
"398 79 LINE",
"199 78 LINE SMOOTH",
"142 78 OFFCURVE",
"125 78 OFFCURVE",
"125 212 CURVE SMOOTH",
"125 312 OFFCURVE",
"127 478 OFFCURVE",
"127 531 CURVE",
"56 531 LINE",
"56 134 LINE SMOOTH",
"56 50 OFFCURVE",
"88 0 OFFCURVE",
"130 0 CURVE SMOOTH",
"398 -1 LINE"
);
}
);
width = 696;
}
);
note = uni1280;
},
{
glyphname = "ra_xu-ethiopic.liga";
lastChange = "2019-03-09 00:04:35 +0000";
layers = (
{
layerId = "994FE389-9D54-4FAA-B055-C46A67020E78";
paths = (
{
closed = 1;
nodes = (
"755 0 LINE",
"755 246 LINE",
"854 246 LINE",
"854 346 LINE",
"755 346 LINE",
"755 439 LINE SMOOTH",
"755 531 OFFCURVE",
"755 531 OFFCURVE",
"652 531 CURVE SMOOTH",
"422 531 LINE",
"422 727 LINE",
"332 727 LINE",
"332 654 LINE",
"201 654 LINE",
"201 571 LINE",
"332 571 LINE",
"332 505 LINE SMOOTH",
"332 477 OFFCURVE",
"349 458 OFFCURVE",
"378 458 CURVE SMOOTH",
"606 458 LINE SMOOTH",
"664 458 OFFCURVE",
"664 458 OFFCURVE",
"664 278 CURVE SMOOTH",
"664 0 LINE"
);
},
{
closed = 1;
nodes = (
"498 79 LINE",
"249 78 LINE SMOOTH",
"172 78 OFFCURVE",
"156 85 OFFCURVE",
"156 212 CURVE SMOOTH",
"156 312 OFFCURVE",
"159 478 OFFCURVE",
"159 531 CURVE",
"70 531 LINE",
"70 134 LINE SMOOTH",
"70 50 OFFCURVE",
"111 0 OFFCURVE",
"162 0 CURVE SMOOTH",
"497 -1 LINE"
);
}
);
width = 924;
},
{
layerId = "5DC7B242-CF95-40E7-B7B6-33B4F09A6622";
paths = (
{
closed = 1;
nodes = (
"604 0 LINE",
"604 246 LINE",
"683 246 LINE",
"683 346 LINE",
"604 346 LINE",
"604 439 LINE SMOOTH",
"604 531 OFFCURVE",
"604 531 OFFCURVE",
"522 531 CURVE SMOOTH",
"338 531 LINE",
"338 727 LINE",
"266 727 LINE",
"266 654 LINE",
"161 654 LINE",
"161 571 LINE",
"266 571 LINE",
"266 505 LINE SMOOTH",
"266 478 OFFCURVE",
"279 458 OFFCURVE",
"302 458 CURVE SMOOTH",
"485 458 LINE SMOOTH",
"531 458 OFFCURVE",
"531 458 OFFCURVE",
"531 278 CURVE SMOOTH",
"531 0 LINE"
);
},
{
closed = 1;
nodes = (
"398 79 LINE",
"199 78 LINE SMOOTH",
"142 78 OFFCURVE",
"125 78 OFFCURVE",
"125 212 CURVE SMOOTH",
"125 312 OFFCURVE",
"127 478 OFFCURVE",
"127 531 CURVE",
"56 531 LINE",
"56 134 LINE SMOOTH",
"56 49 OFFCURVE",
"89 0 OFFCURVE",
"130 0 CURVE SMOOTH",
"398 -1 LINE"
);
}
);
width = 739;
}
);
note = uni1281;
},
{
glyphname = "ra_xi-ethiopic.liga";
lastChange = "2019-03-09 00:04:35 +0000";
layers = (
{
layerId = "994FE389-9D54-4FAA-B055-C46A67020E78";
paths = (
{
closed = 1;
nodes = (
"865 0 LINE",
"865 100 LINE",
"765 100 LINE",
"765 439 LINE SMOOTH",
"765 531 OFFCURVE",
"765 531 OFFCURVE",
"661 531 CURVE SMOOTH",
"432 531 LINE",
"432 727 LINE",
"341 727 LINE",
"341 654 LINE",
"210 654 LINE",
"210 571 LINE",
"341 571 LINE",
"341 505 LINE SMOOTH",
"341 477 OFFCURVE",
"358 458 OFFCURVE",
"387 458 CURVE SMOOTH",
"616 458 LINE SMOOTH",
"674 458 OFFCURVE",
"674 458 OFFCURVE",
"674 278 CURVE SMOOTH",
"674 0 LINE"
);
},
{
closed = 1;
nodes = (
"498 79 LINE",
"249 78 LINE SMOOTH",
"173 78 OFFCURVE",
"156 85 OFFCURVE",
"156 212 CURVE SMOOTH",
"156 312 OFFCURVE",
"159 478 OFFCURVE",
"159 531 CURVE",
"70 531 LINE",
"70 134 LINE SMOOTH",
"70 50 OFFCURVE",
"111 0 OFFCURVE",
"163 0 CURVE SMOOTH",
"497 -1 LINE"
);
}
);
width = 935;
},
{
layerId = "5DC7B242-CF95-40E7-B7B6-33B4F09A6622";
paths = (
{
closed = 1;
nodes = (
"692 0 LINE",
"692 100 LINE",
"612 100 LINE",
"612 439 LINE SMOOTH",
"612 531 OFFCURVE",
"612 531 OFFCURVE",
"529 531 CURVE SMOOTH",
"346 531 LINE",
"346 727 LINE",
"273 727 LINE",
"273 654 LINE",
"168 654 LINE",
"168 571 LINE",
"273 571 LINE",
"273 505 LINE SMOOTH",
"273 477 OFFCURVE",
"287 458 OFFCURVE",
"310 458 CURVE SMOOTH",
"493 458 LINE SMOOTH",
"539 458 OFFCURVE",
"539 458 OFFCURVE",
"539 278 CURVE SMOOTH",
"539 0 LINE"
);
},
{
closed = 1;
nodes = (
"398 79 LINE",
"199 78 LINE SMOOTH",
"143 78 OFFCURVE",
"125 78 OFFCURVE",
"125 212 CURVE SMOOTH",
"125 312 OFFCURVE",
"127 478 OFFCURVE",
"127 531 CURVE",
"56 531 LINE",
"56 134 LINE SMOOTH",
"56 49 OFFCURVE",
"89 0 OFFCURVE",
"130 0 CURVE SMOOTH",
"398 -1 LINE"
);
}
);
width = 748;
}
);
note = uni1282;
},
{
glyphname = "ra_xee-ethiopic.liga";
lastChange = "2019-03-09 00:04:35 +0000";
layers = (
{
layerId = "994FE389-9D54-4FAA-B055-C46A67020E78";
paths = (
{
closed = 1;
nodes = (
"851 0 LINE SMOOTH",
"897 0 OFFCURVE",
"929 16 OFFCURVE",
"947 46 CURVE SMOOTH",
"957 63 OFFCURVE",
"962 82 OFFCURVE",
"962 103 CURVE SMOOTH",
"962 131 OFFCURVE",
"954 155 OFFCURVE",
"935 170 CURVE SMOOTH",
"913 188 OFFCURVE",
"889 200 OFFCURVE",
"852 200 CURVE SMOOTH",
"841 200 LINE",
"841 439 LINE SMOOTH",
"841 531 OFFCURVE",
"841 531 OFFCURVE",
"738 531 CURVE SMOOTH",
"509 531 LINE",
"509 727 LINE",
"418 727 LINE",
"418 654 LINE",
"287 654 LINE",
"287 571 LINE",
"418 571 LINE",
"418 505 LINE SMOOTH",
"418 477 OFFCURVE",
"435 458 OFFCURVE",
"464 458 CURVE SMOOTH",
"692 458 LINE SMOOTH",
"750 458 OFFCURVE",
"750 458 OFFCURVE",
"750 278 CURVE SMOOTH",
"750 0 LINE"
);
},
{
closed = 1;
nodes = (
"498 79 LINE",
"249 78 LINE SMOOTH",
"172 78 OFFCURVE",
"156 85 OFFCURVE",
"156 212 CURVE SMOOTH",
"156 312 OFFCURVE",
"159 478 OFFCURVE",
"159 531 CURVE",
"70 531 LINE",
"70 134 LINE SMOOTH",
"70 50 OFFCURVE",
"110 0 OFFCURVE",
"162 0 CURVE SMOOTH",
"497 -1 LINE"
);
},
{
closed = 1;
nodes = (
"841 176 LINE",
"859 173 OFFCURVE",
"873 167 OFFCURVE",
"883 157 CURVE SMOOTH",
"896 144 OFFCURVE",
"901 124 OFFCURVE",
"901 99 CURVE SMOOTH",
"901 92 OFFCURVE",
"900 86 OFFCURVE",
"899 78 CURVE",
"895 65 OFFCURVE",
"890 55 OFFCURVE",
"884 46 CURVE",
"876 36 OFFCURVE",
"864 29 OFFCURVE",
"850 26 CURVE",
"847 25 OFFCURVE",
"844 25 OFFCURVE",
"841 24 CURVE"
);
}
);
width = 1032;
},
{
layerId = "5DC7B242-CF95-40E7-B7B6-33B4F09A6622";
paths = (
{
closed = 1;
nodes = (
"681 0 LINE SMOOTH",
"719 0 OFFCURVE",
"743 16 OFFCURVE",
"758 47 CURVE SMOOTH",
"766 63 OFFCURVE",
"770 84 OFFCURVE",
"770 103 CURVE SMOOTH",
"770 132 OFFCURVE",
"763 155 OFFCURVE",
"748 170 CURVE SMOOTH",
"730 188 OFFCURVE",
"712 200 OFFCURVE",
"682 200 CURVE SMOOTH",
"673 200 LINE",
"673 439 LINE SMOOTH",
"673 531 OFFCURVE",
"673 531 OFFCURVE",
"590 531 CURVE SMOOTH",
"407 531 LINE",
"407 727 LINE",
"334 727 LINE",
"334 654 LINE",
"230 654 LINE",
"230 571 LINE",
"334 571 LINE",
"334 505 LINE SMOOTH",
"334 477 OFFCURVE",
"348 458 OFFCURVE",
"371 458 CURVE SMOOTH",
"554 458 LINE SMOOTH",
"600 458 OFFCURVE",
"600 458 OFFCURVE",
"600 278 CURVE SMOOTH",
"600 0 LINE"
);
},
{
closed = 1;
nodes = (
"398 79 LINE",
"199 78 LINE SMOOTH",
"142 78 OFFCURVE",
"125 78 OFFCURVE",
"125 212 CURVE SMOOTH",
"125 312 OFFCURVE",
"127 478 OFFCURVE",
"127 531 CURVE",
"56 531 LINE",
"56 134 LINE SMOOTH",
"56 50 OFFCURVE",
"88 0 OFFCURVE",
"130 0 CURVE SMOOTH",
"398 -1 LINE"
);
},
{
closed = 1;
nodes = (
"673 176 LINE",
"687 174 OFFCURVE",
"701 165 OFFCURVE",
"707 157 CURVE SMOOTH",
"715 147 OFFCURVE",
"721 126 OFFCURVE",
"721 99 CURVE SMOOTH",
"721 92 OFFCURVE",
"720 86 OFFCURVE",
"719 78 CURVE",
"716 65 OFFCURVE",
"712 55 OFFCURVE",
"707 46 CURVE",
"702 37 OFFCURVE",
"691 29 OFFCURVE",
"680 26 CURVE",
"678 25 OFFCURVE",
"675 25 OFFCURVE",
"673 24 CURVE"
);
}
);
width = 826;
}
);
note = uni1284;
},
{
glyphname = "ra_xe-ethiopic.liga";
lastChange = "2019-03-09 00:04:35 +0000";
layers = (
{
layerId = "994FE389-9D54-4FAA-B055-C46A67020E78";
paths = (
{
closed = 1;
nodes = (
"822 0 LINE",
"822 439 LINE SMOOTH",
"822 531 OFFCURVE",
"822 531 OFFCURVE",
"719 531 CURVE SMOOTH",
"490 531 LINE",
"490 727 LINE",
"399 727 LINE",
"399 638 LINE",
"272 638 LINE",
"272 635 LINE",
"269 635 LINE",
"269 482 LINE",
"334 482 LINE",
"334 568 LINE SMOOTH",
"334 581 OFFCURVE",
"345 591 OFFCURVE",
"358 591 CURVE SMOOTH",
"399 591 LINE",
"399 458 LINE",
"673 458 LINE SMOOTH",
"731 458 OFFCURVE",
"731 458 OFFCURVE",
"731 278 CURVE SMOOTH",
"731 0 LINE"
);
},
{
closed = 1;
nodes = (
"498 79 LINE",
"249 78 LINE SMOOTH",
"172 78 OFFCURVE",
"156 85 OFFCURVE",
"156 212 CURVE SMOOTH",
"156 312 OFFCURVE",
"159 478 OFFCURVE",
"159 531 CURVE",
"70 531 LINE",
"70 134 LINE SMOOTH",
"70 50 OFFCURVE",
"111 0 OFFCURVE",
"162 0 CURVE SMOOTH",
"497 -1 LINE"
);
}
);
width = 892;
},
{
layerId = "5DC7B242-CF95-40E7-B7B6-33B4F09A6622";
paths = (
{
closed = 1;
nodes = (
"658 0 LINE",
"658 439 LINE SMOOTH",
"658 531 OFFCURVE",
"658 531 OFFCURVE",
"575 531 CURVE SMOOTH",
"392 531 LINE",
"392 727 LINE",
"319 727 LINE",
"319 638 LINE",
"218 638 LINE",
"218 635 LINE",
"215 635 LINE",
"215 482 LINE",
"267 482 LINE",
"267 568 LINE SMOOTH",
"267 581 OFFCURVE",
"276 591 OFFCURVE",
"286 591 CURVE SMOOTH",
"319 591 LINE",
"319 458 LINE",
"538 458 LINE SMOOTH",
"585 458 OFFCURVE",
"585 458 OFFCURVE",
"585 278 CURVE SMOOTH",
"585 0 LINE"
);
},
{
closed = 1;
nodes = (
"398 79 LINE",
"199 78 LINE SMOOTH",
"142 78 OFFCURVE",
"125 78 OFFCURVE",
"125 212 CURVE SMOOTH",
"125 312 OFFCURVE",
"127 478 OFFCURVE",
"127 531 CURVE",
"56 531 LINE",
"56 134 LINE SMOOTH",
"56 49 OFFCURVE",
"89 0 OFFCURVE",
"130 0 CURVE SMOOTH",
"398 -1 LINE"
);
}
);
width = 714;
}
);
note = uni1285;
},
{
glyphname = "ra_xwa-ethiopic.liga";
lastChange = "2019-03-09 00:04:35 +0000";
layers = (
{
layerId = "994FE389-9D54-4FAA-B055-C46A67020E78";
paths = (
{
closed = 1;
nodes = (
"731 0 LINE",
"731 215 LINE",
"749 215 LINE SMOOTH",
"794 215 OFFCURVE",
"826 228 OFFCURVE",
"844 253 CURVE SMOOTH",
"854 266 OFFCURVE",
"860 283 OFFCURVE",
"860 300 CURVE SMOOTH",
"860 323 OFFCURVE",
"851 343 OFFCURVE",
"832 356 CURVE SMOOTH",
"810 371 OFFCURVE",
"786 380 OFFCURVE",
"750 380 CURVE SMOOTH",
"731 380 LINE",
"731 439 LINE SMOOTH",
"731 531 OFFCURVE",
"731 531 OFFCURVE",
"628 531 CURVE SMOOTH",
"517 531 LINE",
"517 727 LINE",
"426 727 LINE",
"426 605 LINE",
"344 605 LINE",
"344 531 LINE",
"426 531 LINE",
"426 458 LINE",
"582 458 LINE SMOOTH",
"640 458 OFFCURVE",
"640 458 OFFCURVE",
"640 278 CURVE SMOOTH",
"640 0 LINE"
);
},
{
closed = 1;
nodes = (
"498 79 LINE",
"249 78 LINE SMOOTH",
"172 78 OFFCURVE",
"156 85 OFFCURVE",
"156 212 CURVE SMOOTH",
"156 312 OFFCURVE",
"159 478 OFFCURVE",
"159 531 CURVE",
"70 531 LINE",
"70 134 LINE SMOOTH",
"70 50 OFFCURVE",
"110 0 OFFCURVE",
"162 0 CURVE SMOOTH",
"497 -1 LINE"
);
},
{
closed = 1;
nodes = (
"731 361 LINE",
"753 360 OFFCURVE",
"770 354 OFFCURVE",
"780 345 CURVE SMOOTH",
"793 334 OFFCURVE",
"799 316 OFFCURVE",
"799 296 CURVE SMOOTH",
"799 291 OFFCURVE",
"798 286 OFFCURVE",
"796 279 CURVE",
"792 268 OFFCURVE",
"788 260 OFFCURVE",
"781 253 CURVE",
"773 244 OFFCURVE",
"761 239 OFFCURVE",
"747 236 CURVE SMOOTH",
"742 235 OFFCURVE",
"737 234 OFFCURVE",
"731 234 CURVE"
);
}
);
width = 930;
},
{
layerId = "5DC7B242-CF95-40E7-B7B6-33B4F09A6622";
paths = (
{
closed = 1;
nodes = (
"585 0 LINE",
"585 215 LINE",
"599 215 LINE SMOOTH",
"630 215 OFFCURVE",
"658 224 OFFCURVE",
"675 253 CURVE SMOOTH",
"683 266 OFFCURVE",
"688 281 OFFCURVE",
"688 300 CURVE SMOOTH",
"688 321 OFFCURVE",
"681 343 OFFCURVE",
"666 356 CURVE SMOOTH",
"648 371 OFFCURVE",
"628 380 OFFCURVE",
"600 380 CURVE SMOOTH",
"585 380 LINE",
"585 439 LINE SMOOTH",
"585 531 OFFCURVE",
"585 531 OFFCURVE",
"502 531 CURVE SMOOTH",
"414 531 LINE",
"414 727 LINE",
"341 727 LINE",
"341 605 LINE",
"275 605 LINE",
"275 531 LINE",
"341 531 LINE",
"341 458 LINE",
"466 458 LINE SMOOTH",
"512 458 OFFCURVE",
"512 458 OFFCURVE",
"512 278 CURVE SMOOTH",
"512 0 LINE"
);
},
{
closed = 1;
nodes = (
"398 79 LINE",
"199 78 LINE SMOOTH",
"142 78 OFFCURVE",
"125 78 OFFCURVE",
"125 212 CURVE SMOOTH",
"125 312 OFFCURVE",
"127 478 OFFCURVE",
"127 531 CURVE",
"56 531 LINE",
"56 134 LINE SMOOTH",
"56 50 OFFCURVE",
"88 0 OFFCURVE",
"130 0 CURVE SMOOTH",
"398 -1 LINE"
);
},
{
closed = 1;
nodes = (
"585 361 LINE",
"602 360 OFFCURVE",
"616 354 OFFCURVE",
"624 345 CURVE SMOOTH",
"634 334 OFFCURVE",
"639 318 OFFCURVE",
"639 296 CURVE SMOOTH",
"639 290 OFFCURVE",
"638 284 OFFCURVE",
"637 279 CURVE",
"632 262 OFFCURVE",
"629 259 OFFCURVE",
"625 253 CURVE",
"619 245 OFFCURVE",
"609 239 OFFCURVE",
"598 236 CURVE SMOOTH",
"594 235 OFFCURVE",
"588 234 OFFCURVE",
"585 234 CURVE"
);
}
);
width = 744;
}
);
},
{
glyphname = "ra_xwi-ethiopic.liga";
lastChange = "2019-03-09 00:04:35 +0000";
layers = (
{
layerId = "994FE389-9D54-4FAA-B055-C46A67020E78";
paths = (
{
closed = 1;
nodes = (
"730 0 LINE",
"730 273 LINE",
"771 273 LINE",
"771 229 LINE",
"932 229 LINE",
"932 276 LINE",
"820 276 LINE",
"820 391 LINE",
"778 391 LINE",
"778 323 LINE",
"730 323 LINE",
"730 439 LINE SMOOTH",
"730 531 OFFCURVE",
"730 531 OFFCURVE",
"626 531 CURVE SMOOTH",
"515 531 LINE",
"515 727 LINE",
"424 727 LINE",
"424 605 LINE",
"342 605 LINE",
"342 531 LINE",
"424 531 LINE",
"424 458 LINE",
"580 458 LINE SMOOTH",
"639 458 OFFCURVE",
"639 458 OFFCURVE",
"639 278 CURVE SMOOTH",
"639 0 LINE"
);
},
{
closed = 1;
nodes = (
"498 79 LINE",
"249 78 LINE SMOOTH",
"172 78 OFFCURVE",
"156 85 OFFCURVE",
"156 212 CURVE SMOOTH",
"156 312 OFFCURVE",
"159 478 OFFCURVE",
"159 531 CURVE",
"70 531 LINE",
"70 134 LINE SMOOTH",
"70 50 OFFCURVE",
"110 0 OFFCURVE",
"162 0 CURVE SMOOTH",
"497 -1 LINE"
);
}
);
width = 1002;
},
{
layerId = "5DC7B242-CF95-40E7-B7B6-33B4F09A6622";
paths = (
{
closed = 1;
nodes = (
"584 0 LINE",
"584 273 LINE",
"617 273 LINE",
"617 229 LINE",
"746 229 LINE",
"746 276 LINE",
"656 276 LINE",
"656 391 LINE",
"622 391 LINE",
"622 323 LINE",
"584 323 LINE",
"584 439 LINE SMOOTH",
"584 531 OFFCURVE",
"584 531 OFFCURVE",
"501 531 CURVE SMOOTH",
"412 531 LINE",
"412 727 LINE",
"339 727 LINE",
"339 605 LINE",
"274 605 LINE",
"274 531 LINE",
"339 531 LINE",
"339 458 LINE",
"464 458 LINE SMOOTH",
"511 458 OFFCURVE",
"511 458 OFFCURVE",
"511 278 CURVE SMOOTH",
"511 0 LINE"
);
},
{
closed = 1;
nodes = (
"398 79 LINE",
"199 78 LINE SMOOTH",
"142 78 OFFCURVE",
"125 78 OFFCURVE",
"125 212 CURVE SMOOTH",
"125 312 OFFCURVE",
"127 478 OFFCURVE",
"127 531 CURVE",
"56 531 LINE",
"56 134 LINE SMOOTH",
"56 50 OFFCURVE",
"88 0 OFFCURVE",
"130 0 CURVE SMOOTH",
"398 -1 LINE"
);
}
);
width = 802;
}
);
},
{
glyphname = "ra_xwaa-ethiopic.liga";
lastChange = "2019-03-09 00:04:35 +0000";
layers = (
{
layerId = "994FE389-9D54-4FAA-B055-C46A67020E78";
paths = (
{
closed = 1;
nodes = (
"988 -182 LINE",
"988 0 LINE",
"843 0 LINE",
"843 439 LINE SMOOTH",
"843 531 OFFCURVE",
"843 531 OFFCURVE",
"739 531 CURVE SMOOTH",
"510 531 LINE",
"510 727 LINE",
"419 727 LINE",
"419 649 LINE",
"302 649 LINE",
"302 555 LINE",
"419 555 LINE",
"419 505 LINE SMOOTH",
"419 477 OFFCURVE",
"437 458 OFFCURVE",
"466 458 CURVE SMOOTH",
"694 458 LINE SMOOTH",
"752 458 OFFCURVE",
"752 458 OFFCURVE",
"752 278 CURVE SMOOTH",
"752 0 LINE",
"631 0 LINE",
"631 -56 LINE",
"891 -56 LINE",
"891 -182 LINE"
);
},
{
closed = 1;
nodes = (
"498 79 LINE",
"249 78 LINE SMOOTH",
"173 78 OFFCURVE",
"157 85 OFFCURVE",
"157 212 CURVE SMOOTH",
"157 312 OFFCURVE",
"159 478 OFFCURVE",
"159 531 CURVE",
"70 531 LINE",
"70 134 LINE SMOOTH",
"70 50 OFFCURVE",
"111 0 OFFCURVE",
"163 0 CURVE SMOOTH",
"498 -1 LINE"
);
}
);
width = 1058;
},
{
layerId = "5DC7B242-CF95-40E7-B7B6-33B4F09A6622";
paths = (
{
closed = 1;
nodes = (
"790 -182 LINE",
"790 0 LINE",
"674 0 LINE",
"674 439 LINE SMOOTH",
"674 531 OFFCURVE",
"674 531 OFFCURVE",
"591 531 CURVE SMOOTH",
"408 531 LINE",
"408 727 LINE",
"335 727 LINE",
"335 649 LINE",
"242 649 LINE",
"242 555 LINE",
"335 555 LINE",
"335 505 LINE SMOOTH",
"335 477 OFFCURVE",
"350 458 OFFCURVE",
"373 458 CURVE SMOOTH",
"555 458 LINE SMOOTH",
"602 458 OFFCURVE",
"602 458 OFFCURVE",
"602 278 CURVE SMOOTH",
"602 0 LINE",
"505 0 LINE",
"505 -56 LINE",
"713 -56 LINE",
"713 -182 LINE"
);
},
{
closed = 1;
nodes = (
"398 79 LINE",
"199 78 LINE SMOOTH",
"144 78 OFFCURVE",
"126 76 OFFCURVE",
"126 212 CURVE SMOOTH",
"126 312 OFFCURVE",
"127 478 OFFCURVE",
"127 531 CURVE",
"56 531 LINE",
"56 134 LINE SMOOTH",
"56 49 OFFCURVE",
"89 0 OFFCURVE",
"130 0 CURVE SMOOTH",
"398 -1 LINE"
);
}
);
width = 846;
}
);
},
{
glyphname = "ra_xwee-ethiopic.liga";
lastChange = "2019-03-09 00:04:35 +0000";
layers = (
{
layerId = "994FE389-9D54-4FAA-B055-C46A67020E78";
paths = (
{
closed = 1;
nodes = (
"937 -1 LINE",
"937 6 LINE",
"945 3 OFFCURVE",
"954 0 OFFCURVE",
"963 0 CURVE SMOOTH",
"1017 0 OFFCURVE",
"1060 45 OFFCURVE",
"1060 96 CURVE SMOOTH",
"1060 151 OFFCURVE",
"1018 196 OFFCURVE",
"963 196 CURVE SMOOTH",
"954 196 OFFCURVE",
"945 195 OFFCURVE",
"937 192 CURVE",
"937 439 LINE SMOOTH",
"937 531 OFFCURVE",
"937 531 OFFCURVE",
"834 531 CURVE SMOOTH",
"605 531 LINE",
"605 727 LINE",
"514 727 LINE",
"514 649 LINE",
"396 649 LINE",
"396 555 LINE",
"514 555 LINE",
"514 505 LINE SMOOTH",
"514 477 OFFCURVE",
"531 458 OFFCURVE",
"560 458 CURVE SMOOTH",
"788 458 LINE SMOOTH",
"846 458 OFFCURVE",
"846 458 OFFCURVE",
"846 278 CURVE SMOOTH",
"846 56 LINE",
"695 56 LINE",
"695 -1 LINE"
);
},
{
closed = 1;
nodes = (
"498 79 LINE",
"249 78 LINE SMOOTH",
"173 78 OFFCURVE",
"156 85 OFFCURVE",
"156 212 CURVE SMOOTH",
"156 312 OFFCURVE",
"159 478 OFFCURVE",
"159 531 CURVE",
"70 531 LINE",
"70 134 LINE SMOOTH",
"70 50 OFFCURVE",
"111 0 OFFCURVE",
"163 0 CURVE SMOOTH",
"497 -1 LINE"
);
},
{
closed = 1;
nodes = (
"953 54 OFFCURVE",
"945 56 OFFCURVE",
"937 62 CURVE",
"937 134 LINE",
"945 139 OFFCURVE",
"953 142 OFFCURVE",
"963 142 CURVE SMOOTH",
"987 142 OFFCURVE",
"1007 122 OFFCURVE",
"1007 99 CURVE SMOOTH",
"1007 73 OFFCURVE",
"987 54 OFFCURVE",
"963 54 CURVE SMOOTH"
);
}
);
width = 1130;
},
{
layerId = "5DC7B242-CF95-40E7-B7B6-33B4F09A6622";
paths = (
{
closed = 1;
nodes = (
"750 -1 LINE",
"750 6 LINE",
"756 3 OFFCURVE",
"764 0 OFFCURVE",
"770 0 CURVE SMOOTH",
"813 0 OFFCURVE",
"848 45 OFFCURVE",
"848 96 CURVE SMOOTH",
"848 151 OFFCURVE",
"814 196 OFFCURVE",
"770 196 CURVE SMOOTH",
"764 196 OFFCURVE",
"756 195 OFFCURVE",
"750 192 CURVE",
"750 439 LINE SMOOTH",
"750 531 OFFCURVE",
"750 531 OFFCURVE",
"667 531 CURVE SMOOTH",
"484 531 LINE",
"484 727 LINE",
"411 727 LINE",
"411 649 LINE",
"317 649 LINE",
"317 555 LINE",
"411 555 LINE",
"411 505 LINE SMOOTH",
"411 477 OFFCURVE",
"425 458 OFFCURVE",
"448 458 CURVE SMOOTH",
"630 458 LINE SMOOTH",
"677 458 OFFCURVE",
"677 458 OFFCURVE",
"677 278 CURVE SMOOTH",
"677 56 LINE",
"556 56 LINE",
"556 -1 LINE"
);
},
{
closed = 1;
nodes = (
"398 79 LINE",
"199 78 LINE SMOOTH",
"143 78 OFFCURVE",
"125 78 OFFCURVE",
"125 212 CURVE SMOOTH",
"125 312 OFFCURVE",
"127 478 OFFCURVE",
"127 531 CURVE",
"56 531 LINE",
"56 134 LINE SMOOTH",
"56 49 OFFCURVE",
"89 0 OFFCURVE",
"130 0 CURVE SMOOTH",
"398 -1 LINE"
);
},
{
closed = 1;
nodes = (
"762 54 OFFCURVE",
"756 56 OFFCURVE",
"750 62 CURVE",
"750 134 LINE",
"756 139 OFFCURVE",
"762 142 OFFCURVE",
"770 142 CURVE SMOOTH",
"789 142 OFFCURVE",
"806 122 OFFCURVE",
"806 99 CURVE SMOOTH",
"806 73 OFFCURVE",
"789 54 OFFCURVE",
"770 54 CURVE SMOOTH"
);
}
);
width = 904;
}
);
},
{
glyphname = "ra_xwe-ethiopic.liga";
lastChange = "2019-03-09 00:04:35 +0000";
layers = (
{
layerId = "994FE389-9D54-4FAA-B055-C46A67020E78";
paths = (
{
closed = 1;
nodes = (
"1038 -182 LINE",
"1038 0 LINE",
"892 0 LINE",
"892 273 LINE",
"969 273 LINE",
"969 229 LINE",
"1130 229 LINE",
"1130 276 LINE",
"1018 276 LINE",
"1018 391 LINE",
"976 391 LINE",
"976 323 LINE",
"892 323 LINE",
"892 439 LINE SMOOTH",
"892 531 OFFCURVE",
"892 531 OFFCURVE",
"789 531 CURVE SMOOTH",
"559 531 LINE",
"559 727 LINE",
"469 727 LINE",
"469 649 LINE",
"351 649 LINE",
"351 555 LINE",
"469 555 LINE",
"469 505 LINE SMOOTH",
"469 477 OFFCURVE",
"486 458 OFFCURVE",
"515 458 CURVE SMOOTH",
"743 458 LINE SMOOTH",
"801 458 OFFCURVE",
"801 458 OFFCURVE",
"801 278 CURVE SMOOTH",
"801 0 LINE",
"680 0 LINE",
"680 -56 LINE",
"940 -56 LINE",
"940 -182 LINE"
);
},
{
closed = 1;
nodes = (
"499 79 LINE",
"249 78 LINE SMOOTH",
"173 78 OFFCURVE",
"157 85 OFFCURVE",
"157 212 CURVE SMOOTH",
"157 312 OFFCURVE",
"159 478 OFFCURVE",
"159 531 CURVE",
"70 531 LINE",
"70 134 LINE SMOOTH",
"70 50 OFFCURVE",
"111 0 OFFCURVE",
"163 0 CURVE SMOOTH",
"498 -1 LINE"
);
}
);
width = 1200;
},
{
layerId = "5DC7B242-CF95-40E7-B7B6-33B4F09A6622";
paths = (
{
closed = 1;
nodes = (
"830 -182 LINE",
"830 0 LINE",
"714 0 LINE",
"714 273 LINE",
"775 273 LINE",
"775 229 LINE",
"904 229 LINE",
"904 276 LINE",
"814 276 LINE",
"814 391 LINE",
"781 391 LINE",
"781 323 LINE",
"714 323 LINE",
"714 439 LINE SMOOTH",
"714 531 OFFCURVE",
"714 531 OFFCURVE",
"631 531 CURVE SMOOTH",
"447 531 LINE",
"447 727 LINE",
"375 727 LINE",
"375 649 LINE",
"281 649 LINE",
"281 555 LINE",
"375 555 LINE",
"375 505 LINE SMOOTH",
"375 477 OFFCURVE",
"389 458 OFFCURVE",
"412 458 CURVE SMOOTH",
"594 458 LINE SMOOTH",
"641 458 OFFCURVE",
"641 458 OFFCURVE",
"641 278 CURVE SMOOTH",
"641 0 LINE",
"544 0 LINE",
"544 -56 LINE",
"752 -56 LINE",
"752 -182 LINE"
);
},
{
closed = 1;
nodes = (
"399 79 LINE",
"199 78 LINE SMOOTH",
"144 78 OFFCURVE",
"126 76 OFFCURVE",
"126 212 CURVE SMOOTH",
"126 312 OFFCURVE",
"127 478 OFFCURVE",
"127 531 CURVE",
"56 531 LINE",
"56 134 LINE SMOOTH",
"56 49 OFFCURVE",
"89 0 OFFCURVE",
"130 0 CURVE SMOOTH",
"398 -1 LINE"
);
}
);
width = 960;
}
);
},
{
glyphname = "ra_na-ethiopic.liga";
lastChange = "2019-03-09 00:04:35 +0000";
layers = (
{
layerId = "994FE389-9D54-4FAA-B055-C46A67020E78";
paths = (
{
closed = 1;
nodes = (
"720 0 LINE",
"720 439 LINE SMOOTH",
"720 531 OFFCURVE",
"720 531 OFFCURVE",
"617 531 CURVE SMOOTH",
"388 531 LINE",
"388 727 LINE",
"297 727 LINE",
"297 505 LINE SMOOTH",
"297 477 OFFCURVE",
"314 458 OFFCURVE",
"343 458 CURVE SMOOTH",
"571 458 LINE SMOOTH",
"630 458 OFFCURVE",
"630 458 OFFCURVE",
"630 278 CURVE SMOOTH",
"630 0 LINE"
);
},
{
closed = 1;
nodes = (
"498 79 LINE",
"249 78 LINE SMOOTH",
"172 78 OFFCURVE",
"156 85 OFFCURVE",
"156 212 CURVE SMOOTH",
"156 312 OFFCURVE",
"159 478 OFFCURVE",
"159 531 CURVE",
"70 531 LINE",
"70 134 LINE SMOOTH",
"70 50 OFFCURVE",
"110 0 OFFCURVE",
"162 0 CURVE SMOOTH",
"497 -1 LINE"
);
}
);
width = 790;
},
{
layerId = "5DC7B242-CF95-40E7-B7B6-33B4F09A6622";
paths = (
{
closed = 1;
nodes = (
"576 0 LINE",
"576 439 LINE SMOOTH",
"576 531 OFFCURVE",
"576 531 OFFCURVE",
"494 531 CURVE SMOOTH",
"310 531 LINE",
"310 727 LINE",
"238 727 LINE",
"238 505 LINE SMOOTH",
"238 478 OFFCURVE",
"251 458 OFFCURVE",
"274 458 CURVE SMOOTH",
"457 458 LINE SMOOTH",
"504 458 OFFCURVE",
"504 458 OFFCURVE",
"504 278 CURVE SMOOTH",
"504 0 LINE"
);
},
{
closed = 1;
nodes = (
"398 79 LINE",
"199 78 LINE SMOOTH",
"142 78 OFFCURVE",
"125 78 OFFCURVE",
"125 212 CURVE SMOOTH",
"125 312 OFFCURVE",
"127 478 OFFCURVE",
"127 531 CURVE",
"56 531 LINE",
"56 134 LINE SMOOTH",
"56 50 OFFCURVE",
"88 0 OFFCURVE",
"130 0 CURVE SMOOTH",
"398 -1 LINE"
);
}
);
width = 632;
}
);
},
{
glyphname = "ra_nu-ethiopic.liga";
lastChange = "2019-03-09 00:04:35 +0000";
layers = (
{
layerId = "994FE389-9D54-4FAA-B055-C46A67020E78";
paths = (
{
closed = 1;
nodes = (
"721 0 LINE",
"721 244 LINE",
"825 244 LINE",
"825 348 LINE",
"721 348 LINE",
"721 439 LINE SMOOTH",
"721 531 OFFCURVE",
"721 531 OFFCURVE",
"617 531 CURVE SMOOTH",
"388 531 LINE",
"388 727 LINE",
"297 727 LINE",
"297 505 LINE SMOOTH",
"297 477 OFFCURVE",
"314 458 OFFCURVE",
"343 458 CURVE SMOOTH",
"571 458 LINE SMOOTH",
"630 458 OFFCURVE",
"630 458 OFFCURVE",
"630 278 CURVE SMOOTH",
"630 0 LINE"
);
},
{
closed = 1;
nodes = (
"498 79 LINE",
"249 78 LINE SMOOTH",
"172 78 OFFCURVE",
"156 85 OFFCURVE",
"156 212 CURVE SMOOTH",
"156 312 OFFCURVE",
"159 478 OFFCURVE",
"159 531 CURVE",
"70 531 LINE",
"70 134 LINE SMOOTH",
"70 50 OFFCURVE",
"111 0 OFFCURVE",
"162 0 CURVE SMOOTH",
"497 -1 LINE"
);
}
);
width = 895;
},
{
layerId = "5DC7B242-CF95-40E7-B7B6-33B4F09A6622";
paths = (
{
closed = 1;
nodes = (
"577 0 LINE",
"577 244 LINE",
"660 244 LINE",
"660 348 LINE",
"577 348 LINE",
"577 439 LINE SMOOTH",
"577 531 OFFCURVE",
"577 531 OFFCURVE",
"494 531 CURVE SMOOTH",
"310 531 LINE",
"310 727 LINE",
"238 727 LINE",
"238 505 LINE SMOOTH",
"238 478 OFFCURVE",
"251 458 OFFCURVE",
"274 458 CURVE SMOOTH",
"457 458 LINE SMOOTH",
"504 458 OFFCURVE",
"504 458 OFFCURVE",
"504 278 CURVE SMOOTH",
"504 0 LINE"
);
},
{
closed = 1;
nodes = (
"398 79 LINE",
"199 78 LINE SMOOTH",
"142 78 OFFCURVE",
"125 78 OFFCURVE",
"125 212 CURVE SMOOTH",
"125 312 OFFCURVE",
"127 478 OFFCURVE",
"127 531 CURVE",
"56 531 LINE",
"56 134 LINE SMOOTH",
"56 49 OFFCURVE",
"89 0 OFFCURVE",
"130 0 CURVE SMOOTH",
"398 -1 LINE"
);
}
);
width = 716;
}
);
},
{
glyphname = "ra_ni-ethiopic.liga";
lastChange = "2019-03-09 00:04:35 +0000";
layers = (
{
layerId = "994FE389-9D54-4FAA-B055-C46A67020E78";
paths = (
{
closed = 1;
nodes = (
"884 0 LINE",
"884 86 LINE",
"763 86 LINE",
"763 439 LINE SMOOTH",
"763 531 OFFCURVE",
"763 531 OFFCURVE",
"659 531 CURVE SMOOTH",
"430 531 LINE",
"430 727 LINE",
"339 727 LINE",
"339 505 LINE SMOOTH",
"339 477 OFFCURVE",
"356 458 OFFCURVE",
"386 458 CURVE SMOOTH",
"614 458 LINE SMOOTH",
"672 458 OFFCURVE",
"672 458 OFFCURVE",
"672 278 CURVE SMOOTH",
"672 0 LINE"
);
},
{
closed = 1;
nodes = (
"498 79 LINE",
"249 78 LINE SMOOTH",
"173 78 OFFCURVE",
"156 85 OFFCURVE",
"156 212 CURVE SMOOTH",
"156 312 OFFCURVE",
"159 478 OFFCURVE",
"159 531 CURVE",
"70 531 LINE",
"70 134 LINE SMOOTH",
"70 50 OFFCURVE",
"111 0 OFFCURVE",
"163 0 CURVE SMOOTH",
"497 -1 LINE"
);
}
);
width = 954;
},
{
layerId = "5DC7B242-CF95-40E7-B7B6-33B4F09A6622";
paths = (
{
closed = 1;
nodes = (
"707 0 LINE",
"707 86 LINE",
"610 86 LINE",
"610 439 LINE SMOOTH",
"610 531 OFFCURVE",
"610 531 OFFCURVE",
"527 531 CURVE SMOOTH",
"344 531 LINE",
"344 727 LINE",
"271 727 LINE",
"271 505 LINE SMOOTH",
"271 477 OFFCURVE",
"285 458 OFFCURVE",
"309 458 CURVE SMOOTH",
"491 458 LINE SMOOTH",
"538 458 OFFCURVE",
"538 458 OFFCURVE",
"538 278 CURVE SMOOTH",
"538 0 LINE"
);
},
{
closed = 1;
nodes = (
"398 79 LINE",
"199 78 LINE SMOOTH",
"143 78 OFFCURVE",
"125 78 OFFCURVE",
"125 212 CURVE SMOOTH",
"125 312 OFFCURVE",
"127 478 OFFCURVE",
"127 531 CURVE",
"56 531 LINE",
"56 134 LINE SMOOTH",
"56 49 OFFCURVE",
"89 0 OFFCURVE",
"130 0 CURVE SMOOTH",
"398 -1 LINE"
);
}
);
width = 763;
}
);
},
{
glyphname = "ra_nee-ethiopic.liga";
lastChange = "2019-03-09 00:04:35 +0000";
layers = (
{
layerId = "994FE389-9D54-4FAA-B055-C46A67020E78";
paths = (
{
closed = 1;
nodes = (
"839 0 LINE SMOOTH",
"884 0 OFFCURVE",
"916 17 OFFCURVE",
"934 50 CURVE SMOOTH",
"944 67 OFFCURVE",
"950 89 OFFCURVE",
"950 112 CURVE SMOOTH",
"950 142 OFFCURVE",
"942 167 OFFCURVE",
"923 185 CURVE SMOOTH",
"901 205 OFFCURVE",
"876 217 OFFCURVE",
"840 217 CURVE SMOOTH",
"810 217 LINE",
"810 439 LINE SMOOTH",
"810 531 OFFCURVE",
"810 531 OFFCURVE",
"706 531 CURVE SMOOTH",
"477 531 LINE",
"477 727 LINE",
"386 727 LINE",
"386 505 LINE SMOOTH",
"386 477 OFFCURVE",
"404 458 OFFCURVE",
"433 458 CURVE SMOOTH",
"661 458 LINE SMOOTH",
"719 458 OFFCURVE",
"719 458 OFFCURVE",
"719 278 CURVE SMOOTH",
"719 0 LINE"
);
},
{
closed = 1;
nodes = (
"498 79 LINE",
"249 78 LINE SMOOTH",
"173 78 OFFCURVE",
"156 85 OFFCURVE",
"156 212 CURVE SMOOTH",
"156 312 OFFCURVE",
"159 478 OFFCURVE",
"159 531 CURVE",
"70 531 LINE",
"70 134 LINE SMOOTH",
"70 50 OFFCURVE",
"111 0 OFFCURVE",
"163 0 CURVE SMOOTH",
"497 -1 LINE"
);
},
{
closed = 1;
nodes = (
"810 193 LINE",
"838 192 OFFCURVE",
"858 185 OFFCURVE",
"871 171 CURVE SMOOTH",
"884 156 OFFCURVE",
"889 134 OFFCURVE",
"889 107 CURVE SMOOTH",
"889 100 OFFCURVE",
"888 93 OFFCURVE",
"886 85 CURVE",
"883 70 OFFCURVE",
"878 59 OFFCURVE",
"872 50 CURVE SMOOTH",
"864 38 OFFCURVE",
"852 32 OFFCURVE",
"837 28 CURVE SMOOTH",
"829 26 OFFCURVE",
"821 24 OFFCURVE",
"810 24 CURVE"
);
}
);
width = 1020;
},
{
layerId = "5DC7B242-CF95-40E7-B7B6-33B4F09A6622";
paths = (
{
closed = 1;
nodes = (
"671 0 LINE SMOOTH",
"700 0 OFFCURVE",
"729 10 OFFCURVE",
"747 50 CURVE SMOOTH",
"755 67 OFFCURVE",
"760 87 OFFCURVE",
"760 112 CURVE SMOOTH",
"760 140 OFFCURVE",
"754 167 OFFCURVE",
"739 184 CURVE SMOOTH",
"717 210 OFFCURVE",
"695 217 OFFCURVE",
"672 217 CURVE SMOOTH",
"648 217 LINE",
"648 439 LINE SMOOTH",
"648 531 OFFCURVE",
"648 531 OFFCURVE",
"565 531 CURVE SMOOTH",
"382 531 LINE",
"382 727 LINE",
"309 727 LINE",
"309 505 LINE SMOOTH",
"309 478 OFFCURVE",
"323 458 OFFCURVE",
"346 458 CURVE SMOOTH",
"529 458 LINE SMOOTH",
"575 458 OFFCURVE",
"575 458 OFFCURVE",
"575 278 CURVE SMOOTH",
"575 0 LINE"
);
},
{
closed = 1;
nodes = (
"398 79 LINE",
"199 78 LINE SMOOTH",
"143 78 OFFCURVE",
"125 78 OFFCURVE",
"125 212 CURVE SMOOTH",
"125 312 OFFCURVE",
"127 478 OFFCURVE",
"127 531 CURVE",
"56 531 LINE",
"56 134 LINE SMOOTH",
"56 49 OFFCURVE",
"89 0 OFFCURVE",
"130 0 CURVE SMOOTH",
"398 -1 LINE"
);
},
{
closed = 1;
nodes = (
"648 193 LINE",
"670 192 OFFCURVE",
"687 184 OFFCURVE",
"697 171 CURVE SMOOTH",
"707 156 OFFCURVE",
"711 131 OFFCURVE",
"711 107 CURVE SMOOTH",
"711 99 OFFCURVE",
"710 92 OFFCURVE",
"709 85 CURVE",
"706 68 OFFCURVE",
"702 59 OFFCURVE",
"697 49 CURVE SMOOTH",
"691 38 OFFCURVE",
"680 31 OFFCURVE",
"670 28 CURVE SMOOTH",
"663 26 OFFCURVE",
"655 24 OFFCURVE",
"648 24 CURVE"
);
}
);
width = 816;
}
);
note = uni1294;
},
{
glyphname = "ra_ne-ethiopic.liga";
lastChange = "2019-03-09 00:04:35 +0000";
layers = (
{
layerId = "994FE389-9D54-4FAA-B055-C46A67020E78";
paths = (
{
closed = 1;
nodes = (
"787 -182 LINE",
"787 211 LINE SMOOTH",
"787 236 OFFCURVE",
"785 253 OFFCURVE",
"747 253 CURVE SMOOTH",
"644 253 LINE",
"797 445 LINE SMOOTH",
"810 461 OFFCURVE",
"799 531 OFFCURVE",
"753 531 CURVE SMOOTH",
"407 531 LINE",
"407 450 LINE",
"707 450 LINE",
"564 266 LINE SMOOTH",
"520 210 OFFCURVE",
"526 191 OFFCURVE",
"554 191 CURVE SMOOTH",
"697 191 LINE",
"697 -182 LINE"
);
},
{
closed = 1;
nodes = (
"498 79 LINE",
"249 78 LINE SMOOTH",
"173 78 OFFCURVE",
"157 85 OFFCURVE",
"157 212 CURVE SMOOTH",
"157 312 OFFCURVE",
"159 478 OFFCURVE",
"159 531 CURVE",
"70 531 LINE",
"70 134 LINE SMOOTH",
"70 50 OFFCURVE",
"111 0 OFFCURVE",
"163 0 CURVE SMOOTH",
"497 -1 LINE"
);
}
);
width = 872;
},
{
layerId = "5DC7B242-CF95-40E7-B7B6-33B4F09A6622";
paths = (
{
closed = 1;
nodes = (
"630 -182 LINE",
"630 211 LINE SMOOTH",
"630 236 OFFCURVE",
"628 253 OFFCURVE",
"598 253 CURVE SMOOTH",
"515 253 LINE",
"638 445 LINE SMOOTH",
"648 461 OFFCURVE",
"639 531 OFFCURVE",
"602 531 CURVE SMOOTH",
"326 531 LINE",
"326 450 LINE",
"566 450 LINE",
"451 266 LINE SMOOTH",
"416 210 OFFCURVE",
"421 191 OFFCURVE",
"443 191 CURVE SMOOTH",
"558 191 LINE",
"558 -182 LINE"
);
},
{
closed = 1;
nodes = (
"398 79 LINE",
"199 78 LINE SMOOTH",
"144 78 OFFCURVE",
"126 76 OFFCURVE",
"126 212 CURVE SMOOTH",
"126 312 OFFCURVE",
"127 478 OFFCURVE",
"127 531 CURVE",
"56 531 LINE",
"56 134 LINE SMOOTH",
"56 49 OFFCURVE",
"89 0 OFFCURVE",
"130 0 CURVE SMOOTH",
"398 -1 LINE"
);
}
);
width = 698;
}
);
note = uni1295;
},
{
glyphname = "ra_nya-ethiopic.liga";
lastChange = "2019-03-09 00:04:35 +0000";
layers = (
{
layerId = "994FE389-9D54-4FAA-B055-C46A67020E78";
paths = (
{
closed = 1;
nodes = (
"840 0 LINE",
"840 439 LINE SMOOTH",
"840 531 OFFCURVE",
"840 531 OFFCURVE",
"736 531 CURVE SMOOTH",
"507 531 LINE",
"507 682 LINE",
"630 682 LINE",
"630 727 LINE",
"313 727 LINE",
"313 682 LINE",
"416 682 LINE",
"416 505 LINE SMOOTH",
"416 477 OFFCURVE",
"433 458 OFFCURVE",
"462 458 CURVE SMOOTH",
"690 458 LINE SMOOTH",
"749 458 OFFCURVE",
"749 458 OFFCURVE",
"749 278 CURVE SMOOTH",
"749 0 LINE"
);
},
{
closed = 1;
nodes = (
"499 79 LINE",
"250 78 LINE SMOOTH",
"173 78 OFFCURVE",
"157 85 OFFCURVE",
"157 212 CURVE SMOOTH",
"157 312 OFFCURVE",
"160 478 OFFCURVE",
"160 531 CURVE",
"70 531 LINE",
"70 134 LINE SMOOTH",
"70 50 OFFCURVE",
"111 0 OFFCURVE",
"163 0 CURVE SMOOTH",
"498 -1 LINE"
);
}
);
width = 910;
},
{
layerId = "5DC7B242-CF95-40E7-B7B6-33B4F09A6622";
paths = (
{
closed = 1;
nodes = (
"672 0 LINE",
"672 439 LINE SMOOTH",
"672 531 OFFCURVE",
"672 531 OFFCURVE",
"589 531 CURVE SMOOTH",
"406 531 LINE",
"406 682 LINE",
"504 682 LINE",
"504 727 LINE",
"250 727 LINE",
"250 682 LINE",
"333 682 LINE",
"333 505 LINE SMOOTH",
"333 477 OFFCURVE",
"347 458 OFFCURVE",
"370 458 CURVE SMOOTH",
"552 458 LINE SMOOTH",
"599 458 OFFCURVE",
"599 458 OFFCURVE",
"599 278 CURVE SMOOTH",
"599 0 LINE"
);
},
{
closed = 1;
nodes = (
"399 79 LINE",
"200 78 LINE SMOOTH",
"144 78 OFFCURVE",
"126 76 OFFCURVE",
"126 212 CURVE SMOOTH",
"126 312 OFFCURVE",
"128 478 OFFCURVE",
"128 531 CURVE",
"56 531 LINE",
"56 134 LINE SMOOTH",
"56 49 OFFCURVE",
"89 0 OFFCURVE",
"130 0 CURVE SMOOTH",
"398 -1 LINE"
);
}
);
width = 728;
}
);
note = uni1298;
},
{
glyphname = "ra_nyu-ethiopic.liga";
lastChange = "2019-03-09 00:04:35 +0000";
layers = (
{
layerId = "994FE389-9D54-4FAA-B055-C46A67020E78";
paths = (
{
closed = 1;
nodes = (
"857 0 LINE",
"857 246 LINE",
"956 246 LINE",
"956 346 LINE",
"857 346 LINE",
"857 439 LINE SMOOTH",
"857 531 OFFCURVE",
"857 531 OFFCURVE",
"753 531 CURVE SMOOTH",
"524 531 LINE",
"524 682 LINE",
"647 682 LINE",
"647 727 LINE",
"331 727 LINE",
"331 682 LINE",
"433 682 LINE",
"433 505 LINE SMOOTH",
"433 477 OFFCURVE",
"451 458 OFFCURVE",
"480 458 CURVE SMOOTH",
"708 458 LINE SMOOTH",
"766 458 OFFCURVE",
"766 458 OFFCURVE",
"766 278 CURVE SMOOTH",
"766 0 LINE"
);
},
{
closed = 1;
nodes = (
"498 79 LINE",
"249 78 LINE SMOOTH",
"172 78 OFFCURVE",
"156 85 OFFCURVE",
"156 212 CURVE SMOOTH",
"156 312 OFFCURVE",
"159 478 OFFCURVE",
"159 531 CURVE",
"70 531 LINE",
"70 134 LINE SMOOTH",
"70 50 OFFCURVE",
"111 0 OFFCURVE",
"162 0 CURVE SMOOTH",
"497 -1 LINE"
);
}
);
width = 1026;
},
{
layerId = "5DC7B242-CF95-40E7-B7B6-33B4F09A6622";
paths = (
{
closed = 1;
nodes = (
"686 0 LINE",
"686 246 LINE",
"765 246 LINE",
"765 346 LINE",
"686 346 LINE",
"686 439 LINE SMOOTH",
"686 531 OFFCURVE",
"686 531 OFFCURVE",
"602 531 CURVE SMOOTH",
"419 531 LINE",
"419 682 LINE",
"518 682 LINE",
"518 727 LINE",
"265 727 LINE",
"265 682 LINE",
"346 682 LINE",
"346 505 LINE SMOOTH",
"346 477 OFFCURVE",
"361 458 OFFCURVE",
"384 458 CURVE SMOOTH",
"566 458 LINE SMOOTH",
"613 458 OFFCURVE",
"613 458 OFFCURVE",
"613 278 CURVE SMOOTH",
"613 0 LINE"
);
},
{
closed = 1;
nodes = (
"398 79 LINE",
"199 78 LINE SMOOTH",
"142 78 OFFCURVE",
"125 78 OFFCURVE",
"125 212 CURVE SMOOTH",
"125 312 OFFCURVE",
"127 478 OFFCURVE",
"127 531 CURVE",
"56 531 LINE",
"56 134 LINE SMOOTH",
"56 49 OFFCURVE",
"89 0 OFFCURVE",
"130 0 CURVE SMOOTH",
"398 -1 LINE"
);
}
);
width = 821;
}
);
note = uni1299;
},
{
glyphname = "ra_nyi-ethiopic.liga";
lastChange = "2019-03-09 00:04:35 +0000";
layers = (
{
layerId = "994FE389-9D54-4FAA-B055-C46A67020E78";
paths = (
{
closed = 1;
nodes = (
"1006 0 LINE",
"1006 100 LINE",
"907 100 LINE",
"907 439 LINE SMOOTH",
"907 531 OFFCURVE",
"907 531 OFFCURVE",
"803 531 CURVE SMOOTH",
"574 531 LINE",
"574 682 LINE",
"714 682 LINE",
"714 727 LINE",
"381 727 LINE",
"381 682 LINE",
"483 682 LINE",
"483 505 LINE SMOOTH",
"483 477 OFFCURVE",
"501 458 OFFCURVE",
"530 458 CURVE SMOOTH",
"758 458 LINE SMOOTH",
"816 458 OFFCURVE",
"816 458 OFFCURVE",
"816 278 CURVE SMOOTH",
"816 0 LINE"
);
},
{
closed = 1;
nodes = (
"498 79 LINE",
"249 78 LINE SMOOTH",
"172 78 OFFCURVE",
"156 85 OFFCURVE",
"156 212 CURVE SMOOTH",
"156 312 OFFCURVE",
"159 478 OFFCURVE",
"159 531 CURVE",
"70 531 LINE",
"70 134 LINE SMOOTH",
"70 50 OFFCURVE",
"111 0 OFFCURVE",
"162 0 CURVE SMOOTH",
"497 -1 LINE"
);
}
);
width = 1076;
},
{
layerId = "5DC7B242-CF95-40E7-B7B6-33B4F09A6622";
paths = (
{
closed = 1;
nodes = (
"805 0 LINE",
"805 100 LINE",
"726 100 LINE",
"726 439 LINE SMOOTH",
"726 531 OFFCURVE",
"726 531 OFFCURVE",
"642 531 CURVE SMOOTH",
"459 531 LINE",
"459 682 LINE",
"571 682 LINE",
"571 727 LINE",
"305 727 LINE",
"305 682 LINE",
"386 682 LINE",
"386 505 LINE SMOOTH",
"386 477 OFFCURVE",
"401 458 OFFCURVE",
"424 458 CURVE SMOOTH",
"606 458 LINE SMOOTH",
"653 458 OFFCURVE",
"653 458 OFFCURVE",
"653 278 CURVE SMOOTH",
"653 0 LINE"
);
},
{
closed = 1;
nodes = (
"398 79 LINE",
"199 78 LINE SMOOTH",
"142 78 OFFCURVE",
"125 78 OFFCURVE",
"125 212 CURVE SMOOTH",
"125 312 OFFCURVE",
"127 478 OFFCURVE",
"127 531 CURVE",
"56 531 LINE",
"56 134 LINE SMOOTH",
"56 49 OFFCURVE",
"89 0 OFFCURVE",
"130 0 CURVE SMOOTH",
"398 -1 LINE"
);
}
);
width = 861;
}
);
note = uni129A;
},
{
glyphname = "ra_nyee-ethiopic.liga";
lastChange = "2019-03-09 00:04:35 +0000";
layers = (
{
layerId = "994FE389-9D54-4FAA-B055-C46A67020E78";
paths = (
{
closed = 1;
nodes = (
"894 0 LINE SMOOTH",
"940 0 OFFCURVE",
"971 16 OFFCURVE",
"990 46 CURVE",
"1000 64 OFFCURVE",
"1005 85 OFFCURVE",
"1005 106 CURVE SMOOTH",
"1005 134 OFFCURVE",
"997 158 OFFCURVE",
"978 175 CURVE",
"956 193 OFFCURVE",
"931 205 OFFCURVE",
"895 205 CURVE SMOOTH",
"849 205 LINE",
"849 439 LINE SMOOTH",
"849 531 OFFCURVE",
"849 531 OFFCURVE",
"745 531 CURVE SMOOTH",
"516 531 LINE",
"516 682 LINE",
"684 682 LINE",
"684 727 LINE",
"322 727 LINE",
"322 682 LINE",
"425 682 LINE",
"425 505 LINE SMOOTH",
"425 477 OFFCURVE",
"442 458 OFFCURVE",
"471 458 CURVE SMOOTH",
"700 458 LINE SMOOTH",
"758 458 OFFCURVE",
"758 458 OFFCURVE",
"758 278 CURVE SMOOTH",
"758 0 LINE"
);
},
{
closed = 1;
nodes = (
"499 79 LINE",
"250 78 LINE SMOOTH",
"173 78 OFFCURVE",
"157 85 OFFCURVE",
"157 212 CURVE SMOOTH",
"157 312 OFFCURVE",
"160 478 OFFCURVE",
"160 531 CURVE",
"70 531 LINE",
"70 134 LINE SMOOTH",
"70 50 OFFCURVE",
"111 0 OFFCURVE",
"163 0 CURVE SMOOTH",
"498 -1 LINE"
);
},
{
closed = 1;
nodes = (
"849 182 LINE",
"862 182 LINE SMOOTH",
"891 182 OFFCURVE",
"913 175 OFFCURVE",
"926 161 CURVE SMOOTH",
"939 147 OFFCURVE",
"944 126 OFFCURVE",
"944 101 CURVE SMOOTH",
"944 95 OFFCURVE",
"943 87 OFFCURVE",
"941 80 CURVE",
"938 66 OFFCURVE",
"933 56 OFFCURVE",
"927 47 CURVE",
"919 36 OFFCURVE",
"907 30 OFFCURVE",
"892 26 CURVE",
"884 25 OFFCURVE",
"875 23 OFFCURVE",
"863 23 CURVE SMOOTH",
"849 23 LINE"
);
}
);
width = 1075;
},
{
layerId = "5DC7B242-CF95-40E7-B7B6-33B4F09A6622";
paths = (
{
closed = 1;
nodes = (
"715 0 LINE SMOOTH",
"751 0 OFFCURVE",
"777 16 OFFCURVE",
"792 46 CURVE",
"800 64 OFFCURVE",
"804 85 OFFCURVE",
"804 106 CURVE SMOOTH",
"804 132 OFFCURVE",
"798 158 OFFCURVE",
"782 175 CURVE",
"765 193 OFFCURVE",
"744 205 OFFCURVE",
"716 205 CURVE SMOOTH",
"679 205 LINE",
"679 439 LINE SMOOTH",
"679 531 OFFCURVE",
"679 531 OFFCURVE",
"596 531 CURVE SMOOTH",
"413 531 LINE",
"413 682 LINE",
"547 682 LINE",
"547 727 LINE",
"258 727 LINE",
"258 682 LINE",
"340 682 LINE",
"340 505 LINE SMOOTH",
"340 477 OFFCURVE",
"354 458 OFFCURVE",
"377 458 CURVE SMOOTH",
"560 458 LINE SMOOTH",
"606 458 OFFCURVE",
"606 458 OFFCURVE",
"606 278 CURVE SMOOTH",
"606 0 LINE"
);
},
{
closed = 1;
nodes = (
"399 79 LINE",
"200 78 LINE SMOOTH",
"144 78 OFFCURVE",
"126 76 OFFCURVE",
"126 212 CURVE SMOOTH",
"126 312 OFFCURVE",
"128 478 OFFCURVE",
"128 531 CURVE",
"56 531 LINE",
"56 134 LINE SMOOTH",
"56 49 OFFCURVE",
"89 0 OFFCURVE",
"130 0 CURVE SMOOTH",
"398 -1 LINE"
);
},
{
closed = 1;
nodes = (
"679 182 LINE",
"690 182 LINE SMOOTH",
"710 182 OFFCURVE",
"730 176 OFFCURVE",
"741 161 CURVE SMOOTH",
"751 147 OFFCURVE",
"755 126 OFFCURVE",
"755 101 CURVE SMOOTH",
"755 94 OFFCURVE",
"754 86 OFFCURVE",
"753 80 CURVE",
"751 69 OFFCURVE",
"746 54 OFFCURVE",
"742 47 CURVE",
"734 35 OFFCURVE",
"726 30 OFFCURVE",
"714 26 CURVE",
"707 25 OFFCURVE",
"700 23 OFFCURVE",
"690 23 CURVE SMOOTH",
"679 23 LINE"
);
}
);
width = 860;
}
);
note = uni129C;
},
{
glyphname = "ra_ga-ethiopic.liga";
lastChange = "2019-03-09 00:04:35 +0000";
layers = (
{
layerId = "994FE389-9D54-4FAA-B055-C46A67020E78";
paths = (
{
closed = 1;
nodes = (
"720 0 LINE",
"720 397 LINE SMOOTH",
"720 481 OFFCURVE",
"679 531 OFFCURVE",
"627 531 CURVE SMOOTH",
"292 532 LINE",
"291 452 LINE",
"540 453 LINE SMOOTH",
"617 453 OFFCURVE",
"633 447 OFFCURVE",
"633 319 CURVE SMOOTH",
"633 219 OFFCURVE",
"630 53 OFFCURVE",
"630 0 CURVE"
);
},
{
closed = 1;
nodes = (
"498 79 LINE",
"249 78 LINE SMOOTH",
"172 78 OFFCURVE",
"156 85 OFFCURVE",
"156 212 CURVE SMOOTH",
"156 312 OFFCURVE",
"159 478 OFFCURVE",
"159 531 CURVE",
"70 531 LINE",
"70 134 LINE SMOOTH",
"70 50 OFFCURVE",
"110 0 OFFCURVE",
"162 0 CURVE SMOOTH",
"497 -1 LINE"
);
}
);
width = 790;
},
{
layerId = "5DC7B242-CF95-40E7-B7B6-33B4F09A6622";
paths = (
{
closed = 1;
nodes = (
"576 0 LINE",
"576 397 LINE SMOOTH",
"576 482 OFFCURVE",
"543 531 OFFCURVE",
"502 531 CURVE SMOOTH",
"234 532 LINE",
"233 452 LINE",
"432 453 LINE SMOOTH",
"489 453 OFFCURVE",
"506 454 OFFCURVE",
"506 319 CURVE SMOOTH",
"506 219 OFFCURVE",
"504 53 OFFCURVE",
"504 0 CURVE"
);
},
{
closed = 1;
nodes = (
"398 79 LINE",
"199 78 LINE SMOOTH",
"142 78 OFFCURVE",
"125 78 OFFCURVE",
"125 212 CURVE SMOOTH",
"125 312 OFFCURVE",
"127 478 OFFCURVE",
"127 531 CURVE",
"56 531 LINE",
"56 134 LINE SMOOTH",
"56 50 OFFCURVE",
"88 0 OFFCURVE",
"130 0 CURVE SMOOTH",
"398 -1 LINE"
);
}
);
width = 632;
}
);
},
{
glyphname = "ra_gu-ethiopic.liga";
lastChange = "2019-03-09 00:04:35 +0000";
layers = (
{
layerId = "994FE389-9D54-4FAA-B055-C46A67020E78";
paths = (
{
closed = 1;
nodes = (
"720 0 LINE",
"720 249 LINE",
"823 249 LINE",
"823 354 LINE",
"720 354 LINE",
"720 397 LINE SMOOTH",
"720 481 OFFCURVE",
"679 531 OFFCURVE",
"627 531 CURVE SMOOTH",
"293 532 LINE",
"292 452 LINE",
"541 453 LINE SMOOTH",
"617 453 OFFCURVE",
"633 446 OFFCURVE",
"633 319 CURVE SMOOTH",
"633 219 OFFCURVE",
"631 53 OFFCURVE",
"631 0 CURVE"
);
},
{
closed = 1;
nodes = (
"498 79 LINE",
"249 78 LINE SMOOTH",
"173 78 OFFCURVE",
"156 85 OFFCURVE",
"156 212 CURVE SMOOTH",
"156 312 OFFCURVE",
"159 478 OFFCURVE",
"159 531 CURVE",
"70 531 LINE",
"70 134 LINE SMOOTH",
"70 50 OFFCURVE",
"111 0 OFFCURVE",
"163 0 CURVE SMOOTH",
"497 -1 LINE"
);
}
);
width = 893;
},
{
layerId = "5DC7B242-CF95-40E7-B7B6-33B4F09A6622";
paths = (
{
closed = 1;
nodes = (
"576 0 LINE",
"576 249 LINE",
"658 249 LINE",
"658 354 LINE",
"576 354 LINE",
"576 397 LINE SMOOTH",
"576 482 OFFCURVE",
"543 531 OFFCURVE",
"502 531 CURVE SMOOTH",
"234 532 LINE",
"234 452 LINE",
"433 453 LINE SMOOTH",
"488 453 OFFCURVE",
"506 455 OFFCURVE",
"506 319 CURVE SMOOTH",
"506 219 OFFCURVE",
"505 53 OFFCURVE",
"505 0 CURVE"
);
},
{
closed = 1;
nodes = (
"398 79 LINE",
"199 78 LINE SMOOTH",
"143 78 OFFCURVE",
"125 78 OFFCURVE",
"125 212 CURVE SMOOTH",
"125 312 OFFCURVE",
"127 478 OFFCURVE",
"127 531 CURVE",
"56 531 LINE",
"56 134 LINE SMOOTH",
"56 49 OFFCURVE",
"89 0 OFFCURVE",
"130 0 CURVE SMOOTH",
"398 -1 LINE"
);
}
);
width = 714;
}
);
},
{
glyphname = "ra_gi-ethiopic.liga";
lastChange = "2019-03-09 00:04:35 +0000";
layers = (
{
layerId = "994FE389-9D54-4FAA-B055-C46A67020E78";
paths = (
{
closed = 1;
nodes = (
"859 0 LINE",
"859 65 LINE",
"749 65 LINE",
"749 397 LINE SMOOTH",
"749 481 OFFCURVE",
"709 531 OFFCURVE",
"657 531 CURVE SMOOTH",
"322 532 LINE",
"321 452 LINE",
"570 453 LINE SMOOTH",
"647 453 OFFCURVE",
"663 447 OFFCURVE",
"663 319 CURVE SMOOTH",
"663 219 OFFCURVE",
"660 53 OFFCURVE",
"660 0 CURVE"
);
},
{
closed = 1;
nodes = (
"499 79 LINE",
"249 78 LINE SMOOTH",
"173 78 OFFCURVE",
"157 85 OFFCURVE",
"157 212 CURVE SMOOTH",
"157 312 OFFCURVE",
"159 478 OFFCURVE",
"159 531 CURVE",
"70 531 LINE",
"70 134 LINE SMOOTH",
"70 50 OFFCURVE",
"111 0 OFFCURVE",
"163 0 CURVE SMOOTH",
"498 -1 LINE"
);
}
);
width = 929;
},
{
layerId = "5DC7B242-CF95-40E7-B7B6-33B4F09A6622";
paths = (
{
closed = 1;
nodes = (
"687 0 LINE",
"687 65 LINE",
"599 65 LINE",
"599 397 LINE SMOOTH",
"599 482 OFFCURVE",
"567 531 OFFCURVE",
"526 531 CURVE SMOOTH",
"258 532 LINE",
"257 452 LINE",
"456 453 LINE SMOOTH",
"513 453 OFFCURVE",
"530 454 OFFCURVE",
"530 319 CURVE SMOOTH",
"530 219 OFFCURVE",
"528 53 OFFCURVE",
"528 0 CURVE"
);
},
{
closed = 1;
nodes = (
"399 79 LINE",
"199 78 LINE SMOOTH",
"144 78 OFFCURVE",
"126 76 OFFCURVE",
"126 212 CURVE SMOOTH",
"126 312 OFFCURVE",
"127 478 OFFCURVE",
"127 531 CURVE",
"56 531 LINE",
"56 134 LINE SMOOTH",
"56 49 OFFCURVE",
"89 0 OFFCURVE",
"130 0 CURVE SMOOTH",
"398 -1 LINE"
);
}
);
width = 743;
}
);
note = uni130A;
},
{
glyphname = "ra_gaa-ethiopic.liga";
lastChange = "2019-03-09 00:04:35 +0000";
layers = (
{
components = (
{
name = "gaa-ethiopic";
transform = "{1, 0, 0, 1, 349, 0}";
}
);
layerId = "994FE389-9D54-4FAA-B055-C46A67020E78";
paths = (
{
closed = 1;
nodes = (
"498 79 LINE",
"249 78 LINE SMOOTH",
"173 78 OFFCURVE",
"156 85 OFFCURVE",
"156 212 CURVE SMOOTH",
"156 312 OFFCURVE",
"159 478 OFFCURVE",
"159 531 CURVE",
"70 531 LINE",
"70 134 LINE SMOOTH",
"70 50 OFFCURVE",
"111 0 OFFCURVE",
"163 0 CURVE SMOOTH",
"497 -1 LINE"
);
}
);
width = 907;
},
{
components = (
{
name = "gaa-ethiopic";
transform = "{1, 0, 0, 1, 279, 0}";
}
);
layerId = "5DC7B242-CF95-40E7-B7B6-33B4F09A6622";
paths = (
{
closed = 1;
nodes = (
"398 79 LINE",
"199 78 LINE SMOOTH",
"143 78 OFFCURVE",
"125 78 OFFCURVE",
"125 212 CURVE SMOOTH",
"125 312 OFFCURVE",
"127 478 OFFCURVE",
"127 531 CURVE",
"56 531 LINE",
"56 134 LINE SMOOTH",
"56 49 OFFCURVE",
"89 0 OFFCURVE",
"130 0 CURVE SMOOTH",
"398 -1 LINE"
);
}
);
width = 947;
}
);
note = uni130B;
},
{
glyphname = "ra_gee-ethiopic.liga";
lastChange = "2019-03-09 00:04:35 +0000";
layers = (
{
layerId = "994FE389-9D54-4FAA-B055-C46A67020E78";
paths = (
{
closed = 1;
nodes = (
"778 -4 LINE SMOOTH",
"810 -4 OFFCURVE",
"832 9 OFFCURVE",
"850 29 CURVE SMOOTH",
"866 47 OFFCURVE",
"874 75 OFFCURVE",
"874 106 CURVE SMOOTH",
"874 129 OFFCURVE",
"869 151 OFFCURVE",
"861 170 CURVE SMOOTH",
"846 204 OFFCURVE",
"817 222 OFFCURVE",
"778 222 CURVE SMOOTH",
"749 222 LINE",
"749 393 LINE SMOOTH",
"749 476 OFFCURVE",
"708 526 OFFCURVE",
"656 526 CURVE SMOOTH",
"322 527 LINE",
"321 447 LINE",
"570 448 LINE SMOOTH",
"646 448 OFFCURVE",
"663 442 OFFCURVE",
"663 315 CURVE SMOOTH",
"663 215 OFFCURVE",
"660 48 OFFCURVE",
"660 -4 CURVE"
);
},
{
closed = 1;
nodes = (
"498 79 LINE",
"249 78 LINE SMOOTH",
"173 78 OFFCURVE",
"156 85 OFFCURVE",
"156 212 CURVE SMOOTH",
"156 312 OFFCURVE",
"159 478 OFFCURVE",
"159 531 CURVE",
"70 531 LINE",
"70 134 LINE SMOOTH",
"70 50 OFFCURVE",
"111 0 OFFCURVE",
"163 0 CURVE SMOOTH",
"497 -1 LINE"
);
},
{
closed = 1;
nodes = (
"749 197 LINE",
"752 197 LINE SMOOTH",
"762 197 OFFCURVE",
"770 196 OFFCURVE",
"776 193 CURVE SMOOTH",
"789 187 OFFCURVE",
"800 183 OFFCURVE",
"806 169 CURVE",
"811 159 OFFCURVE",
"816 149 OFFCURVE",
"819 134 CURVE",
"821 126 OFFCURVE",
"822 117 OFFCURVE",
"822 110 CURVE SMOOTH",
"822 83 OFFCURVE",
"816 59 OFFCURVE",
"806 44 CURVE SMOOTH",
"796 28 OFFCURVE",
"776 22 OFFCURVE",
"751 22 CURVE SMOOTH",
"749 22 LINE"
);
}
);
width = 944;
},
{
layerId = "5DC7B242-CF95-40E7-B7B6-33B4F09A6622";
paths = (
{
closed = 1;
nodes = (
"622 -4 LINE SMOOTH",
"647 -4 OFFCURVE",
"666 9 OFFCURVE",
"680 29 CURVE SMOOTH",
"693 47 OFFCURVE",
"699 76 OFFCURVE",
"699 106 CURVE SMOOTH",
"699 129 OFFCURVE",
"695 151 OFFCURVE",
"689 170 CURVE SMOOTH",
"677 204 OFFCURVE",
"653 222 OFFCURVE",
"622 222 CURVE SMOOTH",
"599 222 LINE",
"599 393 LINE SMOOTH",
"599 477 OFFCURVE",
"566 526 OFFCURVE",
"525 526 CURVE SMOOTH",
"258 527 LINE",
"257 447 LINE",
"456 448 LINE SMOOTH",
"517 448 OFFCURVE",
"530 442 OFFCURVE",
"530 315 CURVE SMOOTH",
"530 215 OFFCURVE",
"528 48 OFFCURVE",
"528 -4 CURVE"
);
},
{
closed = 1;
nodes = (
"398 79 LINE",
"199 78 LINE SMOOTH",
"143 78 OFFCURVE",
"125 78 OFFCURVE",
"125 212 CURVE SMOOTH",
"125 312 OFFCURVE",
"127 478 OFFCURVE",
"127 531 CURVE",
"56 531 LINE",
"56 134 LINE SMOOTH",
"56 49 OFFCURVE",
"89 0 OFFCURVE",
"130 0 CURVE SMOOTH",
"398 -1 LINE"
);
},
{
closed = 1;
nodes = (
"599 197 LINE",
"602 197 LINE SMOOTH",
"610 197 OFFCURVE",
"616 196 OFFCURVE",
"621 193 CURVE SMOOTH",
"631 187 OFFCURVE",
"640 183 OFFCURVE",
"645 169 CURVE",
"649 159 OFFCURVE",
"653 147 OFFCURVE",
"655 134 CURVE",
"657 125 OFFCURVE",
"658 116 OFFCURVE",
"658 110 CURVE SMOOTH",
"658 85 OFFCURVE",
"653 59 OFFCURVE",
"645 44 CURVE SMOOTH",
"637 28 OFFCURVE",
"620 22 OFFCURVE",
"601 22 CURVE SMOOTH",
"599 22 LINE"
);
}
);
width = 755;
}
);
note = uni130C;
},
{
glyphname = "ra_ge-ethiopic.liga";
lastChange = "2019-03-09 00:04:35 +0000";
layers = (
{
layerId = "994FE389-9D54-4FAA-B055-C46A67020E78";
paths = (
{
closed = 1;
nodes = (
"744 0 LINE",
"744 397 LINE SMOOTH",
"744 481 OFFCURVE",
"703 531 OFFCURVE",
"651 531 CURVE SMOOTH",
"317 532 LINE",
"316 452 LINE",
"317 452 LINE",
"317 420 LINE SMOOTH",
"317 388 OFFCURVE",
"331 366 OFFCURVE",
"351 348 CURVE SMOOTH",
"369 332 OFFCURVE",
"396 325 OFFCURVE",
"427 325 CURVE SMOOTH",
"451 325 OFFCURVE",
"472 329 OFFCURVE",
"491 337 CURVE SMOOTH",
"525 352 OFFCURVE",
"543 381 OFFCURVE",
"543 420 CURVE SMOOTH",
"543 453 LINE",
"565 453 LINE SMOOTH",
"641 453 OFFCURVE",
"658 446 OFFCURVE",
"658 319 CURVE SMOOTH",
"658 219 OFFCURVE",
"655 53 OFFCURVE",
"655 0 CURVE"
);
},
{
closed = 1;
nodes = (
"498 79 LINE",
"249 78 LINE SMOOTH",
"172 78 OFFCURVE",
"156 85 OFFCURVE",
"156 212 CURVE SMOOTH",
"156 312 OFFCURVE",
"159 478 OFFCURVE",
"159 531 CURVE",
"70 531 LINE",
"70 134 LINE SMOOTH",
"70 50 OFFCURVE",
"111 0 OFFCURVE",
"162 0 CURVE SMOOTH",
"497 -1 LINE"
);
},
{
closed = 1;
nodes = (
"404 376 OFFCURVE",
"381 382 OFFCURVE",
"365 392 CURVE SMOOTH",
"350 402 OFFCURVE",
"343 423 OFFCURVE",
"343 447 CURVE SMOOTH",
"343 452 LINE",
"519 453 LINE",
"519 446 LINE SMOOTH",
"519 436 OFFCURVE",
"517 428 OFFCURVE",
"514 422 CURVE",
"509 409 OFFCURVE",
"504 398 OFFCURVE",
"491 392 CURVE SMOOTH",
"481 387 OFFCURVE",
"471 383 OFFCURVE",
"455 379 CURVE SMOOTH",
"447 377 OFFCURVE",
"439 376 OFFCURVE",
"431 376 CURVE SMOOTH"
);
}
);
width = 814;
},
{
layerId = "5DC7B242-CF95-40E7-B7B6-33B4F09A6622";
paths = (
{
closed = 1;
nodes = (
"595 0 LINE",
"595 397 LINE SMOOTH",
"595 482 OFFCURVE",
"562 531 OFFCURVE",
"521 531 CURVE SMOOTH",
"254 532 LINE",
"253 452 LINE",
"254 452 LINE",
"254 420 LINE SMOOTH",
"254 388 OFFCURVE",
"265 366 OFFCURVE",
"280 349 CURVE SMOOTH",
"295 332 OFFCURVE",
"316 325 OFFCURVE",
"342 325 CURVE SMOOTH",
"360 325 OFFCURVE",
"378 329 OFFCURVE",
"393 337 CURVE SMOOTH",
"420 352 OFFCURVE",
"434 381 OFFCURVE",
"434 420 CURVE SMOOTH",
"434 453 LINE",
"452 453 LINE SMOOTH",
"513 453 OFFCURVE",
"526 446 OFFCURVE",
"526 319 CURVE SMOOTH",
"526 219 OFFCURVE",
"524 53 OFFCURVE",
"524 0 CURVE"
);
},
{
closed = 1;
nodes = (
"398 79 LINE",
"199 78 LINE SMOOTH",
"142 78 OFFCURVE",
"125 78 OFFCURVE",
"125 212 CURVE SMOOTH",
"125 312 OFFCURVE",
"127 478 OFFCURVE",
"127 531 CURVE",
"56 531 LINE",
"56 134 LINE SMOOTH",
"56 49 OFFCURVE",
"89 0 OFFCURVE",
"130 0 CURVE SMOOTH",
"398 -1 LINE"
);
},
{
closed = 1;
nodes = (
"323 376 OFFCURVE",
"305 382 OFFCURVE",
"292 392 CURVE SMOOTH",
"280 402 OFFCURVE",
"274 423 OFFCURVE",
"274 447 CURVE SMOOTH",
"274 452 LINE",
"415 453 LINE",
"415 446 LINE SMOOTH",
"415 438 OFFCURVE",
"414 429 OFFCURVE",
"411 422 CURVE",
"407 409 OFFCURVE",
"403 398 OFFCURVE",
"393 392 CURVE SMOOTH",
"385 387 OFFCURVE",
"375 382 OFFCURVE",
"364 379 CURVE SMOOTH",
"358 377 OFFCURVE",
"350 376 OFFCURVE",
"345 376 CURVE SMOOTH"
);
}
);
width = 651;
}
);
note = uni130D;
},
{
glyphname = "ra_go-ethiopic.liga";
lastChange = "2019-03-09 00:04:35 +0000";
layers = (
{
layerId = "994FE389-9D54-4FAA-B055-C46A67020E78";
paths = (
{
closed = 1;
nodes = (
"783 0 LINE",
"783 397 LINE SMOOTH",
"783 492 OFFCURVE",
"742 531 OFFCURVE",
"690 531 CURVE SMOOTH",
"563 531 LINE",
"563 727 LINE",
"494 727 LINE",
"494 532 LINE",
"356 532 LINE",
"355 452 LINE",
"604 453 LINE SMOOTH",
"680 453 OFFCURVE",
"697 446 OFFCURVE",
"697 319 CURVE SMOOTH",
"697 219 OFFCURVE",
"694 53 OFFCURVE",
"694 0 CURVE"
);
},
{
closed = 1;
nodes = (
"498 79 LINE",
"249 78 LINE SMOOTH",
"173 78 OFFCURVE",
"157 85 OFFCURVE",
"157 212 CURVE SMOOTH",
"157 312 OFFCURVE",
"159 478 OFFCURVE",
"159 531 CURVE",
"70 531 LINE",
"70 134 LINE SMOOTH",
"70 50 OFFCURVE",
"111 0 OFFCURVE",
"163 0 CURVE SMOOTH",
"498 -1 LINE"
);
}
);
width = 853;
},
{
layerId = "5DC7B242-CF95-40E7-B7B6-33B4F09A6622";
paths = (
{
closed = 1;
nodes = (
"626 0 LINE",
"626 397 LINE SMOOTH",
"626 492 OFFCURVE",
"594 531 OFFCURVE",
"552 531 CURVE SMOOTH",
"450 531 LINE",
"450 727 LINE",
"395 727 LINE",
"395 532 LINE",
"285 532 LINE",
"284 452 LINE",
"483 453 LINE SMOOTH",
"544 453 OFFCURVE",
"558 446 OFFCURVE",
"558 319 CURVE SMOOTH",
"558 219 OFFCURVE",
"555 53 OFFCURVE",
"555 0 CURVE"
);
},
{
closed = 1;
nodes = (
"398 79 LINE",
"199 78 LINE SMOOTH",
"144 78 OFFCURVE",
"126 76 OFFCURVE",
"126 212 CURVE SMOOTH",
"126 312 OFFCURVE",
"127 478 OFFCURVE",
"127 531 CURVE",
"56 531 LINE",
"56 134 LINE SMOOTH",
"56 49 OFFCURVE",
"89 0 OFFCURVE",
"130 0 CURVE SMOOTH",
"398 -1 LINE"
);
}
);
width = 682;
}
);
},
{
glyphname = "ra_goa-ethiopic.liga";
lastChange = "2019-03-09 00:04:35 +0000";
layers = (
{
layerId = "994FE389-9D54-4FAA-B055-C46A67020E78";
paths = (
{
closed = 1;
nodes = (
"779 30 LINE",
"779 0 LINE",
"868 0 LINE",
"868 397 LINE SMOOTH",
"868 492 OFFCURVE",
"827 531 OFFCURVE",
"775 531 CURVE SMOOTH",
"678 531 LINE",
"678 727 LINE",
"609 727 LINE",
"609 531 LINE",
"441 532 LINE",
"440 452 LINE",
"689 453 LINE SMOOTH",
"765 453 OFFCURVE",
"782 446 OFFCURVE",
"782 319 CURVE SMOOTH",
"782 234 OFFCURVE",
"780 103 OFFCURVE",
"779 32 CURVE",
"582 -15 LINE",
"589 -111 LINE"
);
},
{
closed = 1;
nodes = (
"498 79 LINE",
"249 78 LINE SMOOTH",
"173 78 OFFCURVE",
"156 85 OFFCURVE",
"156 212 CURVE SMOOTH",
"156 312 OFFCURVE",
"159 478 OFFCURVE",
"159 531 CURVE",
"70 531 LINE",
"70 134 LINE SMOOTH",
"70 50 OFFCURVE",
"111 0 OFFCURVE",
"163 0 CURVE SMOOTH",
"497 -1 LINE"
);
}
);
width = 938;
},
{
layerId = "5DC7B242-CF95-40E7-B7B6-33B4F09A6622";
paths = (
{
closed = 1;
nodes = (
"623 30 LINE",
"623 0 LINE",
"694 0 LINE",
"694 397 LINE SMOOTH",
"694 492 OFFCURVE",
"662 531 OFFCURVE",
"620 531 CURVE SMOOTH",
"542 531 LINE",
"542 727 LINE",
"487 727 LINE",
"487 531 LINE",
"353 532 LINE",
"352 452 LINE",
"551 453 LINE SMOOTH",
"612 453 OFFCURVE",
"626 446 OFFCURVE",
"626 319 CURVE SMOOTH",
"626 234 OFFCURVE",
"624 103 OFFCURVE",
"623 32 CURVE",
"466 -15 LINE",
"471 -111 LINE"
);
},
{
closed = 1;
nodes = (
"398 79 LINE",
"199 78 LINE SMOOTH",
"143 78 OFFCURVE",
"125 78 OFFCURVE",
"125 212 CURVE SMOOTH",
"125 312 OFFCURVE",
"127 478 OFFCURVE",
"127 531 CURVE",
"56 531 LINE",
"56 134 LINE SMOOTH",
"56 49 OFFCURVE",
"89 0 OFFCURVE",
"130 0 CURVE SMOOTH",
"398 -1 LINE"
);
}
);
width = 750;
}
);
},
{
glyphname = "ra_gwa-ethiopic.liga";
lastChange = "2019-03-09 00:04:35 +0000";
layers = (
{
layerId = "994FE389-9D54-4FAA-B055-C46A67020E78";
paths = (
{
closed = 1;
nodes = (
"749 0 LINE",
"749 137 LINE",
"783 137 LINE SMOOTH",
"815 137 OFFCURVE",
"837 151 OFFCURVE",
"855 171 CURVE SMOOTH",
"871 189 OFFCURVE",
"878 216 OFFCURVE",
"878 247 CURVE SMOOTH",
"878 271 OFFCURVE",
"874 293 OFFCURVE",
"866 312 CURVE SMOOTH",
"851 346 OFFCURVE",
"822 364 OFFCURVE",
"783 364 CURVE SMOOTH",
"749 364 LINE",
"749 397 LINE SMOOTH",
"749 481 OFFCURVE",
"708 531 OFFCURVE",
"657 531 CURVE SMOOTH",
"322 532 LINE",
"321 452 LINE",
"570 453 LINE SMOOTH",
"647 453 OFFCURVE",
"663 447 OFFCURVE",
"663 319 CURVE SMOOTH",
"663 219 OFFCURVE",
"660 53 OFFCURVE",
"660 0 CURVE"
);
},
{
closed = 1;
nodes = (
"498 79 LINE",
"249 78 LINE SMOOTH",
"173 78 OFFCURVE",
"157 85 OFFCURVE",
"157 212 CURVE SMOOTH",
"157 312 OFFCURVE",
"159 478 OFFCURVE",
"159 531 CURVE",
"70 531 LINE",
"70 134 LINE SMOOTH",
"70 50 OFFCURVE",
"111 0 OFFCURVE",
"163 0 CURVE SMOOTH",
"498 -1 LINE"
);
},
{
closed = 1;
nodes = (
"749 339 LINE",
"757 339 LINE SMOOTH",
"767 339 OFFCURVE",
"775 337 OFFCURVE",
"781 335 CURVE",
"794 329 OFFCURVE",
"805 325 OFFCURVE",
"811 311 CURVE",
"816 301 OFFCURVE",
"820 291 OFFCURVE",
"824 276 CURVE",
"826 267 OFFCURVE",
"827 259 OFFCURVE",
"827 252 CURVE SMOOTH",
"827 225 OFFCURVE",
"821 201 OFFCURVE",
"811 186 CURVE SMOOTH",
"801 170 OFFCURVE",
"780 164 OFFCURVE",
"756 164 CURVE SMOOTH",
"749 164 LINE"
);
}
);
width = 948;
},
{
layerId = "5DC7B242-CF95-40E7-B7B6-33B4F09A6622";
paths = (
{
closed = 1;
nodes = (
"599 0 LINE",
"599 137 LINE",
"626 137 LINE SMOOTH",
"651 137 OFFCURVE",
"670 151 OFFCURVE",
"684 171 CURVE SMOOTH",
"697 189 OFFCURVE",
"702 218 OFFCURVE",
"702 247 CURVE SMOOTH",
"702 271 OFFCURVE",
"699 293 OFFCURVE",
"693 312 CURVE SMOOTH",
"681 346 OFFCURVE",
"657 364 OFFCURVE",
"626 364 CURVE SMOOTH",
"599 364 LINE",
"599 397 LINE SMOOTH",
"599 482 OFFCURVE",
"566 531 OFFCURVE",
"526 531 CURVE SMOOTH",
"258 532 LINE",
"257 452 LINE",
"456 453 LINE SMOOTH",
"513 453 OFFCURVE",
"530 454 OFFCURVE",
"530 319 CURVE SMOOTH",
"530 219 OFFCURVE",
"528 53 OFFCURVE",
"528 0 CURVE"
);
},
{
closed = 1;
nodes = (
"398 79 LINE",
"199 78 LINE SMOOTH",
"144 78 OFFCURVE",
"126 76 OFFCURVE",
"126 212 CURVE SMOOTH",
"126 312 OFFCURVE",
"127 478 OFFCURVE",
"127 531 CURVE",
"56 531 LINE",
"56 134 LINE SMOOTH",
"56 49 OFFCURVE",
"89 0 OFFCURVE",
"130 0 CURVE SMOOTH",
"398 -1 LINE"
);
},
{
closed = 1;
nodes = (
"599 339 LINE",
"606 339 LINE SMOOTH",
"613 339 OFFCURVE",
"620 337 OFFCURVE",
"625 335 CURVE",
"635 329 OFFCURVE",
"644 325 OFFCURVE",
"649 311 CURVE",
"653 301 OFFCURVE",
"656 289 OFFCURVE",
"659 276 CURVE",
"661 266 OFFCURVE",
"662 258 OFFCURVE",
"662 252 CURVE SMOOTH",
"662 227 OFFCURVE",
"657 201 OFFCURVE",
"649 186 CURVE SMOOTH",
"641 170 OFFCURVE",
"623 164 OFFCURVE",
"605 164 CURVE SMOOTH",
"599 164 LINE"
);
}
);
width = 758;
}
);
note = uni1310;
},
{
glyphname = "ra_gwi-ethiopic.liga";
lastChange = "2019-03-09 00:04:35 +0000";
layers = (
{
layerId = "994FE389-9D54-4FAA-B055-C46A67020E78";
paths = (
{
closed = 1;
nodes = (
"751 0 LINE",
"751 273 LINE",
"796 273 LINE",
"796 229 LINE",
"957 229 LINE",
"957 276 LINE",
"844 276 LINE",
"844 391 LINE",
"802 391 LINE",
"802 323 LINE",
"751 323 LINE",
"751 397 LINE SMOOTH",
"751 481 OFFCURVE",
"711 531 OFFCURVE",
"659 531 CURVE SMOOTH",
"324 532 LINE",
"323 452 LINE",
"572 453 LINE SMOOTH",
"649 453 OFFCURVE",
"665 446 OFFCURVE",
"665 319 CURVE SMOOTH",
"665 219 OFFCURVE",
"662 53 OFFCURVE",
"662 0 CURVE"
);
},
{
closed = 1;
nodes = (
"498 79 LINE",
"249 78 LINE SMOOTH",
"172 78 OFFCURVE",
"156 85 OFFCURVE",
"156 212 CURVE SMOOTH",
"156 312 OFFCURVE",
"159 478 OFFCURVE",
"159 531 CURVE",
"70 531 LINE",
"70 134 LINE SMOOTH",
"70 50 OFFCURVE",
"111 0 OFFCURVE",
"162 0 CURVE SMOOTH",
"497 -1 LINE"
);
}
);
width = 1027;
},
{
layerId = "5DC7B242-CF95-40E7-B7B6-33B4F09A6622";
paths = (
{
closed = 1;
nodes = (
"601 0 LINE",
"601 273 LINE",
"637 273 LINE",
"637 229 LINE",
"766 229 LINE",
"766 276 LINE",
"675 276 LINE",
"675 391 LINE",
"642 391 LINE",
"642 323 LINE",
"601 323 LINE",
"601 397 LINE SMOOTH",
"601 481 OFFCURVE",
"569 531 OFFCURVE",
"527 531 CURVE SMOOTH",
"259 532 LINE",
"258 452 LINE",
"458 453 LINE SMOOTH",
"519 453 OFFCURVE",
"532 446 OFFCURVE",
"532 319 CURVE SMOOTH",
"532 219 OFFCURVE",
"530 53 OFFCURVE",
"530 0 CURVE"
);
},
{
closed = 1;
nodes = (
"398 79 LINE",
"199 78 LINE SMOOTH",
"142 78 OFFCURVE",
"125 78 OFFCURVE",
"125 212 CURVE SMOOTH",
"125 312 OFFCURVE",
"127 478 OFFCURVE",
"127 531 CURVE",
"56 531 LINE",
"56 134 LINE SMOOTH",
"56 49 OFFCURVE",
"89 0 OFFCURVE",
"130 0 CURVE SMOOTH",
"398 -1 LINE"
);
}
);
width = 822;
}
);
},
{
glyphname = "ra_gwaa-ethiopic.liga";
lastChange = "2019-03-09 00:04:35 +0000";
layers = (
{
layerId = "994FE389-9D54-4FAA-B055-C46A67020E78";
paths = (
{
closed = 1;
nodes = (
"911 -182 LINE",
"911 146 LINE",
"840 146 LINE",
"840 397 LINE SMOOTH",
"840 481 OFFCURVE",
"799 531 OFFCURVE",
"747 531 CURVE SMOOTH",
"413 532 LINE",
"412 452 LINE",
"661 453 LINE SMOOTH",
"737 453 OFFCURVE",
"754 446 OFFCURVE",
"754 319 CURVE SMOOTH",
"754 234 OFFCURVE",
"752 180 OFFCURVE",
"751 134 CURVE",
"588 126 LINE",
"654 55 LINE",
"751 109 LINE",
"817 109 LINE",
"817 -182 LINE"
);
},
{
closed = 1;
nodes = (
"498 79 LINE",
"249 78 LINE SMOOTH",
"173 78 OFFCURVE",
"157 85 OFFCURVE",
"157 212 CURVE SMOOTH",
"157 312 OFFCURVE",
"159 478 OFFCURVE",
"159 531 CURVE",
"70 531 LINE",
"70 134 LINE SMOOTH",
"70 50 OFFCURVE",
"111 0 OFFCURVE",
"163 0 CURVE SMOOTH",
"497 -1 LINE"
);
}
);
width = 981;
},
{
layerId = "5DC7B242-CF95-40E7-B7B6-33B4F09A6622";
paths = (
{
closed = 1;
nodes = (
"729 -182 LINE",
"729 146 LINE",
"672 146 LINE",
"672 397 LINE SMOOTH",
"672 482 OFFCURVE",
"639 531 OFFCURVE",
"598 531 CURVE SMOOTH",
"330 532 LINE",
"330 452 LINE",
"529 453 LINE SMOOTH",
"585 453 OFFCURVE",
"603 453 OFFCURVE",
"603 319 CURVE SMOOTH",
"603 243 OFFCURVE",
"601 137 OFFCURVE",
"601 134 CURVE",
"470 126 LINE",
"523 55 LINE",
"601 109 LINE",
"654 109 LINE",
"654 -182 LINE"
);
},
{
closed = 1;
nodes = (
"398 79 LINE",
"199 78 LINE SMOOTH",
"144 78 OFFCURVE",
"126 76 OFFCURVE",
"126 212 CURVE SMOOTH",
"126 312 OFFCURVE",
"127 478 OFFCURVE",
"127 531 CURVE",
"56 531 LINE",
"56 134 LINE SMOOTH",
"56 49 OFFCURVE",
"89 0 OFFCURVE",
"130 0 CURVE SMOOTH",
"398 -1 LINE"
);
}
);
width = 785;
}
);
note = uni1313;
},
{
glyphname = "ra_gwee-ethiopic.liga";
lastChange = "2019-03-09 00:04:35 +0000";
layers = (
{
layerId = "994FE389-9D54-4FAA-B055-C46A67020E78";
paths = (
{
closed = 1;
nodes = (
"805 26 LINE",
"805 0 LINE",
"837 0 LINE",
"837 -1 LINE",
"934 -1 LINE SMOOTH",
"980 -1 OFFCURVE",
"1011 14 OFFCURVE",
"1030 41 CURVE",
"1040 57 OFFCURVE",
"1045 76 OFFCURVE",
"1045 95 CURVE SMOOTH",
"1045 121 OFFCURVE",
"1037 143 OFFCURVE",
"1018 157 CURVE",
"996 175 OFFCURVE",
"971 186 OFFCURVE",
"935 186 CURVE SMOOTH",
"894 186 LINE",
"894 397 LINE SMOOTH",
"894 492 OFFCURVE",
"853 531 OFFCURVE",
"801 531 CURVE SMOOTH",
"674 531 LINE",
"674 727 LINE",
"605 727 LINE",
"605 532 LINE",
"467 532 LINE",
"466 452 LINE",
"715 453 LINE SMOOTH",
"791 453 OFFCURVE",
"808 446 OFFCURVE",
"808 319 CURVE SMOOTH",
"808 234 OFFCURVE",
"806 101 OFFCURVE",
"805 31 CURVE",
"614 -15 LINE",
"621 -111 LINE"
);
},
{
closed = 1;
nodes = (
"498 79 LINE",
"249 78 LINE SMOOTH",
"172 78 OFFCURVE",
"156 85 OFFCURVE",
"156 212 CURVE SMOOTH",
"156 312 OFFCURVE",
"159 478 OFFCURVE",
"159 531 CURVE",
"70 531 LINE",
"70 134 LINE SMOOTH",
"70 50 OFFCURVE",
"111 0 OFFCURVE",
"162 0 CURVE SMOOTH",
"497 -1 LINE"
);
},
{
closed = 1;
nodes = (
"894 164 LINE",
"902 164 LINE SMOOTH",
"931 164 OFFCURVE",
"953 157 OFFCURVE",
"966 146 CURVE",
"979 133 OFFCURVE",
"984 114 OFFCURVE",
"984 91 CURVE SMOOTH",
"984 85 OFFCURVE",
"983 78 OFFCURVE",
"981 72 CURVE",
"978 59 OFFCURVE",
"973 50 OFFCURVE",
"967 42 CURVE SMOOTH",
"959 32 OFFCURVE",
"947 26 OFFCURVE",
"932 23 CURVE",
"924 21 OFFCURVE",
"915 19 OFFCURVE",
"903 19 CURVE SMOOTH",
"894 19 LINE"
);
}
);
width = 1115;
},
{
layerId = "5DC7B242-CF95-40E7-B7B6-33B4F09A6622";
paths = (
{
closed = 1;
nodes = (
"644 26 LINE",
"644 0 LINE",
"670 0 LINE",
"670 -1 LINE",
"747 -1 LINE SMOOTH",
"784 -1 OFFCURVE",
"809 14 OFFCURVE",
"824 41 CURVE",
"832 57 OFFCURVE",
"836 76 OFFCURVE",
"836 95 CURVE SMOOTH",
"836 119 OFFCURVE",
"830 143 OFFCURVE",
"814 157 CURVE",
"797 175 OFFCURVE",
"777 186 OFFCURVE",
"748 186 CURVE SMOOTH",
"715 186 LINE",
"715 397 LINE SMOOTH",
"715 492 OFFCURVE",
"682 531 OFFCURVE",
"641 531 CURVE SMOOTH",
"539 531 LINE",
"539 727 LINE",
"484 727 LINE",
"484 532 LINE",
"374 532 LINE",
"373 452 LINE",
"572 453 LINE SMOOTH",
"633 453 OFFCURVE",
"646 446 OFFCURVE",
"646 319 CURVE SMOOTH",
"646 243 OFFCURVE",
"645 118 OFFCURVE",
"644 31 CURVE",
"491 -15 LINE",
"497 -111 LINE"
);
},
{
closed = 1;
nodes = (
"398 79 LINE",
"199 78 LINE SMOOTH",
"142 78 OFFCURVE",
"125 78 OFFCURVE",
"125 212 CURVE SMOOTH",
"125 312 OFFCURVE",
"127 478 OFFCURVE",
"127 531 CURVE",
"56 531 LINE",
"56 134 LINE SMOOTH",
"56 49 OFFCURVE",
"89 0 OFFCURVE",
"130 0 CURVE SMOOTH",
"398 -1 LINE"
);
},
{
closed = 1;
nodes = (
"715 164 LINE",
"722 164 LINE SMOOTH",
"746 164 OFFCURVE",
"762 157 OFFCURVE",
"773 146 CURVE",
"783 133 OFFCURVE",
"787 114 OFFCURVE",
"787 91 CURVE SMOOTH",
"787 84 OFFCURVE",
"786 77 OFFCURVE",
"785 72 CURVE",
"782 58 OFFCURVE",
"778 50 OFFCURVE",
"773 41 CURVE SMOOTH",
"767 32 OFFCURVE",
"756 25 OFFCURVE",
"746 23 CURVE",
"739 21 OFFCURVE",
"733 19 OFFCURVE",
"722 19 CURVE SMOOTH",
"715 19 LINE"
);
}
);
width = 892;
}
);
},
{
glyphname = "ra_gwe-ethiopic.liga";
lastChange = "2019-03-09 00:04:35 +0000";
layers = (
{
layerId = "994FE389-9D54-4FAA-B055-C46A67020E78";
paths = (
{
closed = 1;
nodes = (
"749 0 LINE",
"749 278 LINE",
"779 278 LINE",
"779 172 LINE",
"892 172 LINE",
"892 226 LINE",
"833 226 LINE",
"833 343 LINE",
"749 343 LINE",
"749 397 LINE SMOOTH",
"749 481 OFFCURVE",
"708 531 OFFCURVE",
"657 531 CURVE SMOOTH",
"322 532 LINE",
"321 452 LINE",
"570 453 LINE SMOOTH",
"647 453 OFFCURVE",
"663 447 OFFCURVE",
"663 319 CURVE SMOOTH",
"663 219 OFFCURVE",
"660 53 OFFCURVE",
"660 0 CURVE"
);
},
{
closed = 1;
nodes = (
"498 79 LINE",
"249 78 LINE SMOOTH",
"173 78 OFFCURVE",
"157 85 OFFCURVE",
"157 212 CURVE SMOOTH",
"157 312 OFFCURVE",
"159 478 OFFCURVE",
"159 531 CURVE",
"70 531 LINE",
"70 134 LINE SMOOTH",
"70 50 OFFCURVE",
"111 0 OFFCURVE",
"163 0 CURVE SMOOTH",
"498 -1 LINE"
);
}
);
width = 962;
},
{
layerId = "5DC7B242-CF95-40E7-B7B6-33B4F09A6622";
paths = (
{
closed = 1;
nodes = (
"599 0 LINE",
"599 278 LINE",
"623 278 LINE",
"623 172 LINE",
"714 172 LINE",
"714 226 LINE",
"666 226 LINE",
"666 343 LINE",
"599 343 LINE",
"599 397 LINE SMOOTH",
"599 482 OFFCURVE",
"566 531 OFFCURVE",
"526 531 CURVE SMOOTH",
"258 532 LINE",
"257 452 LINE",
"456 453 LINE SMOOTH",
"513 453 OFFCURVE",
"530 454 OFFCURVE",
"530 319 CURVE SMOOTH",
"530 219 OFFCURVE",
"528 53 OFFCURVE",
"528 0 CURVE"
);
},
{
closed = 1;
nodes = (
"398 79 LINE",
"199 78 LINE SMOOTH",
"144 78 OFFCURVE",
"126 76 OFFCURVE",
"126 212 CURVE SMOOTH",
"126 312 OFFCURVE",
"127 478 OFFCURVE",
"127 531 CURVE",
"56 531 LINE",
"56 134 LINE SMOOTH",
"56 49 OFFCURVE",
"89 0 OFFCURVE",
"130 0 CURVE SMOOTH",
"398 -1 LINE"
);
}
);
width = 770;
}
);
},
{
glyphname = "ra_gga-ethiopic.liga";
lastChange = "2019-03-09 00:04:35 +0000";
layers = (
{
layerId = "994FE389-9D54-4FAA-B055-C46A67020E78";
paths = (
{
closed = 1;
nodes = (
"749 0 LINE",
"749 397 LINE SMOOTH",
"749 492 OFFCURVE",
"708 531 OFFCURVE",
"656 531 CURVE SMOOTH",
"510 531 LINE",
"510 682 LINE",
"608 682 LINE",
"608 727 LINE",
"370 727 LINE",
"370 682 LINE",
"466 682 LINE",
"466 532 LINE",
"322 532 LINE",
"321 452 LINE",
"570 453 LINE SMOOTH",
"646 453 OFFCURVE",
"663 446 OFFCURVE",
"663 319 CURVE SMOOTH",
"663 219 OFFCURVE",
"660 53 OFFCURVE",
"660 0 CURVE"
);
},
{
closed = 1;
nodes = (
"498 79 LINE",
"249 78 LINE SMOOTH",
"173 78 OFFCURVE",
"156 85 OFFCURVE",
"156 212 CURVE SMOOTH",
"156 312 OFFCURVE",
"159 478 OFFCURVE",
"159 531 CURVE",
"70 531 LINE",
"70 134 LINE SMOOTH",
"70 50 OFFCURVE",
"111 0 OFFCURVE",
"163 0 CURVE SMOOTH",
"497 -1 LINE"
);
}
);
width = 819;
},
{
layerId = "5DC7B242-CF95-40E7-B7B6-33B4F09A6622";
paths = (
{
closed = 1;
nodes = (
"599 0 LINE",
"599 397 LINE SMOOTH",
"599 492 OFFCURVE",
"566 531 OFFCURVE",
"525 531 CURVE SMOOTH",
"408 531 LINE",
"408 682 LINE",
"486 682 LINE",
"486 727 LINE",
"296 727 LINE",
"296 682 LINE",
"373 682 LINE",
"373 532 LINE",
"258 532 LINE",
"257 452 LINE",
"456 453 LINE SMOOTH",
"517 453 OFFCURVE",
"530 446 OFFCURVE",
"530 319 CURVE SMOOTH",
"530 219 OFFCURVE",
"528 53 OFFCURVE",
"528 0 CURVE"
);
},
{
closed = 1;
nodes = (
"398 79 LINE",
"199 78 LINE SMOOTH",
"143 78 OFFCURVE",
"125 78 OFFCURVE",
"125 212 CURVE SMOOTH",
"125 312 OFFCURVE",
"127 478 OFFCURVE",
"127 531 CURVE",
"56 531 LINE",
"56 134 LINE SMOOTH",
"56 49 OFFCURVE",
"89 0 OFFCURVE",
"130 0 CURVE SMOOTH",
"398 -1 LINE"
);
}
);
width = 655;
}
);
},
{
glyphname = "ra_ggu-ethiopic.liga";
lastChange = "2019-03-09 00:04:35 +0000";
layers = (
{
layerId = "994FE389-9D54-4FAA-B055-C46A67020E78";
paths = (
{
closed = 1;
nodes = (
"749 0 LINE",
"749 397 LINE SMOOTH",
"749 492 OFFCURVE",
"708 531 OFFCURVE",
"656 531 CURVE SMOOTH",
"510 531 LINE",
"510 688 LINE",
"632 688 LINE",
"632 727 LINE",
"374 727 LINE",
"374 688 LINE",
"471 688 LINE",
"471 532 LINE",
"322 532 LINE",
"321 452 LINE",
"570 453 LINE SMOOTH",
"646 453 OFFCURVE",
"663 446 OFFCURVE",
"663 319 CURVE SMOOTH",
"663 219 OFFCURVE",
"660 53 OFFCURVE",
"660 0 CURVE"
);
},
{
closed = 1;
nodes = (
"498 79 LINE",
"249 78 LINE SMOOTH",
"173 78 OFFCURVE",
"156 85 OFFCURVE",
"156 212 CURVE SMOOTH",
"156 312 OFFCURVE",
"159 478 OFFCURVE",
"159 531 CURVE",
"70 531 LINE",
"70 134 LINE SMOOTH",
"70 50 OFFCURVE",
"111 0 OFFCURVE",
"163 0 CURVE SMOOTH",
"497 -1 LINE"
);
}
);
width = 819;
},
{
layerId = "5DC7B242-CF95-40E7-B7B6-33B4F09A6622";
paths = (
{
closed = 1;
nodes = (
"599 0 LINE",
"599 397 LINE SMOOTH",
"599 492 OFFCURVE",
"566 531 OFFCURVE",
"525 531 CURVE SMOOTH",
"408 531 LINE",
"408 688 LINE",
"506 688 LINE",
"506 727 LINE",
"299 727 LINE",
"299 688 LINE",
"377 688 LINE",
"377 532 LINE",
"258 532 LINE",
"257 452 LINE",
"456 453 LINE SMOOTH",
"517 453 OFFCURVE",
"530 446 OFFCURVE",
"530 319 CURVE SMOOTH",
"530 219 OFFCURVE",
"528 53 OFFCURVE",
"528 0 CURVE"
);
},
{
closed = 1;
nodes = (
"398 79 LINE",
"199 78 LINE SMOOTH",
"143 78 OFFCURVE",
"125 78 OFFCURVE",
"125 212 CURVE SMOOTH",
"125 312 OFFCURVE",
"127 478 OFFCURVE",
"127 531 CURVE",
"56 531 LINE",
"56 134 LINE SMOOTH",
"56 49 OFFCURVE",
"89 0 OFFCURVE",
"130 0 CURVE SMOOTH",
"398 -1 LINE"
);
}
);
width = 655;
}
);
},
{
glyphname = "ra_ggi-ethiopic.liga";
lastChange = "2019-03-09 00:04:35 +0000";
layers = (
{
layerId = "994FE389-9D54-4FAA-B055-C46A67020E78";
paths = (
{
closed = 1;
nodes = (
"880 0 LINE",
"880 55 LINE",
"749 55 LINE",
"749 397 LINE SMOOTH",
"749 492 OFFCURVE",
"708 531 OFFCURVE",
"656 531 CURVE SMOOTH",
"523 531 LINE",
"523 682 LINE",
"622 682 LINE",
"622 727 LINE",
"380 727 LINE",
"380 682 LINE",
"477 682 LINE",
"477 532 LINE",
"322 532 LINE",
"321 452 LINE",
"570 453 LINE SMOOTH",
"646 453 OFFCURVE",
"663 446 OFFCURVE",
"663 319 CURVE SMOOTH",
"663 219 OFFCURVE",
"660 53 OFFCURVE",
"660 0 CURVE"
);
},
{
closed = 1;
nodes = (
"498 79 LINE",
"249 78 LINE SMOOTH",
"173 78 OFFCURVE",
"156 85 OFFCURVE",
"156 212 CURVE SMOOTH",
"156 312 OFFCURVE",
"159 478 OFFCURVE",
"159 531 CURVE",
"70 531 LINE",
"70 134 LINE SMOOTH",
"70 50 OFFCURVE",
"111 0 OFFCURVE",
"163 0 CURVE SMOOTH",
"497 -1 LINE"
);
}
);
width = 950;
},
{
layerId = "5DC7B242-CF95-40E7-B7B6-33B4F09A6622";
paths = (
{
closed = 1;
nodes = (
"704 0 LINE",
"704 55 LINE",
"599 55 LINE",
"599 397 LINE SMOOTH",
"599 492 OFFCURVE",
"566 531 OFFCURVE",
"525 531 CURVE SMOOTH",
"418 531 LINE",
"418 682 LINE",
"498 682 LINE",
"498 727 LINE",
"304 727 LINE",
"304 682 LINE",
"382 682 LINE",
"382 532 LINE",
"258 532 LINE",
"257 452 LINE",
"456 453 LINE SMOOTH",
"517 453 OFFCURVE",
"530 446 OFFCURVE",
"530 319 CURVE SMOOTH",
"530 219 OFFCURVE",
"528 53 OFFCURVE",
"528 0 CURVE"
);
},
{
closed = 1;
nodes = (
"398 79 LINE",
"199 78 LINE SMOOTH",
"143 78 OFFCURVE",
"125 78 OFFCURVE",
"125 212 CURVE SMOOTH",
"125 312 OFFCURVE",
"127 478 OFFCURVE",
"127 531 CURVE",
"56 531 LINE",
"56 134 LINE SMOOTH",
"56 49 OFFCURVE",
"89 0 OFFCURVE",
"130 0 CURVE SMOOTH",
"398 -1 LINE"
);
}
);
width = 760;
}
);
},
{
glyphname = "ra_ggaa-ethiopic.liga";
lastChange = "2019-03-09 00:04:35 +0000";
layers = (
{
components = (
{
name = "ggaa-ethiopic";
transform = "{1, 0, 0, 1, 330, 0}";
}
);
layerId = "994FE389-9D54-4FAA-B055-C46A67020E78";
paths = (
{
closed = 1;
nodes = (
"499 79 LINE",
"249 78 LINE SMOOTH",
"173 78 OFFCURVE",
"157 85 OFFCURVE",
"157 212 CURVE SMOOTH",
"157 312 OFFCURVE",
"159 478 OFFCURVE",
"159 531 CURVE",
"70 531 LINE",
"70 134 LINE SMOOTH",
"70 50 OFFCURVE",
"111 0 OFFCURVE",
"163 0 CURVE SMOOTH",
"498 -1 LINE"
);
}
);
width = 862;
},
{
components = (
{
name = "ggaa-ethiopic";
transform = "{1, 0, 0, 1, 264, 0}";
}
);
layerId = "5DC7B242-CF95-40E7-B7B6-33B4F09A6622";
paths = (
{
closed = 1;
nodes = (
"399 79 LINE",
"199 78 LINE SMOOTH",
"144 78 OFFCURVE",
"126 76 OFFCURVE",
"126 212 CURVE SMOOTH",
"126 312 OFFCURVE",
"127 478 OFFCURVE",
"127 531 CURVE",
"56 531 LINE",
"56 134 LINE SMOOTH",
"56 49 OFFCURVE",
"89 0 OFFCURVE",
"130 0 CURVE SMOOTH",
"398 -1 LINE"
);
}
);
width = 902;
}
);
},
{
glyphname = "ra_ggee-ethiopic.liga";
lastChange = "2019-03-09 00:04:35 +0000";
layers = (
{
layerId = "994FE389-9D54-4FAA-B055-C46A67020E78";
paths = (
{
closed = 1;
nodes = (
"778 -4 LINE SMOOTH",
"810 -4 OFFCURVE",
"832 9 OFFCURVE",
"850 29 CURVE SMOOTH",
"866 47 OFFCURVE",
"874 75 OFFCURVE",
"874 106 CURVE SMOOTH",
"874 129 OFFCURVE",
"869 151 OFFCURVE",
"861 170 CURVE SMOOTH",
"846 204 OFFCURVE",
"817 222 OFFCURVE",
"778 222 CURVE SMOOTH",
"749 222 LINE",
"749 393 LINE SMOOTH",
"749 487 OFFCURVE",
"708 526 OFFCURVE",
"656 526 CURVE SMOOTH",
"505 526 LINE",
"505 682 LINE",
"622 682 LINE",
"622 727 LINE",
"380 727 LINE",
"380 682 LINE",
"465 682 LINE",
"465 527 LINE",
"322 527 LINE",
"321 447 LINE",
"570 448 LINE SMOOTH",
"646 448 OFFCURVE",
"663 442 OFFCURVE",
"663 315 CURVE SMOOTH",
"663 215 OFFCURVE",
"660 48 OFFCURVE",
"660 -4 CURVE"
);
},
{
closed = 1;
nodes = (
"498 79 LINE",
"249 78 LINE SMOOTH",
"173 78 OFFCURVE",
"156 85 OFFCURVE",
"156 212 CURVE SMOOTH",
"156 312 OFFCURVE",
"159 478 OFFCURVE",
"159 531 CURVE",
"70 531 LINE",
"70 134 LINE SMOOTH",
"70 50 OFFCURVE",
"111 0 OFFCURVE",
"163 0 CURVE SMOOTH",
"497 -1 LINE"
);
},
{
closed = 1;
nodes = (
"749 197 LINE",
"752 197 LINE SMOOTH",
"762 197 OFFCURVE",
"770 196 OFFCURVE",
"776 193 CURVE SMOOTH",
"789 187 OFFCURVE",
"800 183 OFFCURVE",
"806 169 CURVE",
"811 159 OFFCURVE",
"815 149 OFFCURVE",
"819 134 CURVE SMOOTH",
"821 126 OFFCURVE",
"822 117 OFFCURVE",
"822 110 CURVE SMOOTH",
"822 83 OFFCURVE",
"816 59 OFFCURVE",
"806 44 CURVE SMOOTH",
"796 28 OFFCURVE",
"775 22 OFFCURVE",
"751 22 CURVE SMOOTH",
"749 22 LINE"
);
}
);
width = 944;
},
{
layerId = "5DC7B242-CF95-40E7-B7B6-33B4F09A6622";
paths = (
{
closed = 1;
nodes = (
"622 -4 LINE SMOOTH",
"647 -4 OFFCURVE",
"666 9 OFFCURVE",
"680 29 CURVE SMOOTH",
"693 47 OFFCURVE",
"699 76 OFFCURVE",
"699 106 CURVE SMOOTH",
"699 129 OFFCURVE",
"695 151 OFFCURVE",
"689 170 CURVE SMOOTH",
"677 204 OFFCURVE",
"653 222 OFFCURVE",
"622 222 CURVE SMOOTH",
"599 222 LINE",
"599 393 LINE SMOOTH",
"599 487 OFFCURVE",
"566 526 OFFCURVE",
"525 526 CURVE SMOOTH",
"404 526 LINE",
"404 682 LINE",
"498 682 LINE",
"498 727 LINE",
"304 727 LINE",
"304 682 LINE",
"372 682 LINE",
"372 527 LINE",
"258 527 LINE",
"257 447 LINE",
"456 448 LINE SMOOTH",
"517 448 OFFCURVE",
"530 442 OFFCURVE",
"530 315 CURVE SMOOTH",
"530 215 OFFCURVE",
"528 48 OFFCURVE",
"528 -4 CURVE"
);
},
{
closed = 1;
nodes = (
"398 79 LINE",
"199 78 LINE SMOOTH",
"143 78 OFFCURVE",
"125 78 OFFCURVE",
"125 212 CURVE SMOOTH",
"125 312 OFFCURVE",
"127 478 OFFCURVE",
"127 531 CURVE",
"56 531 LINE",
"56 134 LINE SMOOTH",
"56 49 OFFCURVE",
"89 0 OFFCURVE",
"130 0 CURVE SMOOTH",
"398 -1 LINE"
);
},
{
closed = 1;
nodes = (
"599 197 LINE",
"602 197 LINE SMOOTH",
"610 197 OFFCURVE",
"616 196 OFFCURVE",
"621 193 CURVE SMOOTH",
"631 187 OFFCURVE",
"640 183 OFFCURVE",
"645 169 CURVE",
"648 161 OFFCURVE",
"652 149 OFFCURVE",
"655 135 CURVE SMOOTH",
"657 125 OFFCURVE",
"658 116 OFFCURVE",
"658 110 CURVE SMOOTH",
"658 85 OFFCURVE",
"653 59 OFFCURVE",
"645 44 CURVE SMOOTH",
"637 28 OFFCURVE",
"619 22 OFFCURVE",
"601 22 CURVE SMOOTH",
"599 22 LINE"
);
}
);
width = 755;
}
);
},
{
glyphname = "ra_gge-ethiopic.liga";
lastChange = "2019-03-09 00:04:35 +0000";
layers = (
{
layerId = "994FE389-9D54-4FAA-B055-C46A67020E78";
paths = (
{
closed = 1;
nodes = (
"754 0 LINE",
"754 397 LINE SMOOTH",
"754 492 OFFCURVE",
"713 531 OFFCURVE",
"661 531 CURVE SMOOTH",
"582 531 LINE",
"582 682 LINE",
"696 682 LINE",
"696 727 LINE",
"380 727 LINE",
"380 682 LINE",
"532 682 LINE",
"532 531 LINE",
"326 532 LINE",
"325 452 LINE",
"326 452 LINE",
"326 420 LINE SMOOTH",
"326 388 OFFCURVE",
"340 366 OFFCURVE",
"360 348 CURVE SMOOTH",
"378 332 OFFCURVE",
"405 325 OFFCURVE",
"436 325 CURVE SMOOTH",
"460 325 OFFCURVE",
"482 329 OFFCURVE",
"501 337 CURVE SMOOTH",
"535 352 OFFCURVE",
"553 381 OFFCURVE",
"553 420 CURVE SMOOTH",
"553 453 LINE",
"575 453 LINE SMOOTH",
"651 453 OFFCURVE",
"667 446 OFFCURVE",
"667 319 CURVE SMOOTH",
"667 219 OFFCURVE",
"665 53 OFFCURVE",
"665 0 CURVE"
);
},
{
closed = 1;
nodes = (
"498 79 LINE",
"249 78 LINE SMOOTH",
"173 78 OFFCURVE",
"156 85 OFFCURVE",
"156 212 CURVE SMOOTH",
"156 312 OFFCURVE",
"159 478 OFFCURVE",
"159 531 CURVE",
"70 531 LINE",
"70 134 LINE SMOOTH",
"70 50 OFFCURVE",
"111 0 OFFCURVE",
"163 0 CURVE SMOOTH",
"497 -1 LINE"
);
},
{
closed = 1;
nodes = (
"414 376 OFFCURVE",
"390 382 OFFCURVE",
"375 392 CURVE SMOOTH",
"359 402 OFFCURVE",
"353 423 OFFCURVE",
"353 447 CURVE SMOOTH",
"353 452 LINE",
"528 453 LINE",
"528 446 LINE SMOOTH",
"528 436 OFFCURVE",
"526 428 OFFCURVE",
"524 422 CURVE",
"518 409 OFFCURVE",
"514 398 OFFCURVE",
"500 392 CURVE",
"490 387 OFFCURVE",
"480 383 OFFCURVE",
"465 379 CURVE",
"456 377 OFFCURVE",
"448 376 OFFCURVE",
"441 376 CURVE SMOOTH"
);
}
);
width = 824;
},
{
layerId = "5DC7B242-CF95-40E7-B7B6-33B4F09A6622";
paths = (
{
closed = 1;
nodes = (
"603 0 LINE",
"603 397 LINE SMOOTH",
"603 492 OFFCURVE",
"570 531 OFFCURVE",
"529 531 CURVE SMOOTH",
"466 531 LINE",
"466 682 LINE",
"557 682 LINE",
"557 727 LINE",
"304 727 LINE",
"304 682 LINE",
"426 682 LINE",
"426 531 LINE",
"261 532 LINE",
"260 452 LINE",
"261 452 LINE",
"261 420 LINE SMOOTH",
"261 388 OFFCURVE",
"272 366 OFFCURVE",
"288 348 CURVE SMOOTH",
"302 332 OFFCURVE",
"325 325 OFFCURVE",
"349 325 CURVE SMOOTH",
"366 325 OFFCURVE",
"386 329 OFFCURVE",
"401 337 CURVE SMOOTH",
"428 352 OFFCURVE",
"442 381 OFFCURVE",
"442 420 CURVE SMOOTH",
"442 453 LINE",
"460 453 LINE SMOOTH",
"521 453 OFFCURVE",
"534 446 OFFCURVE",
"534 319 CURVE SMOOTH",
"534 219 OFFCURVE",
"532 53 OFFCURVE",
"532 0 CURVE"
);
},
{
closed = 1;
nodes = (
"398 79 LINE",
"199 78 LINE SMOOTH",
"143 78 OFFCURVE",
"125 78 OFFCURVE",
"125 212 CURVE SMOOTH",
"125 312 OFFCURVE",
"127 478 OFFCURVE",
"127 531 CURVE",
"56 531 LINE",
"56 134 LINE SMOOTH",
"56 49 OFFCURVE",
"89 0 OFFCURVE",
"130 0 CURVE SMOOTH",
"398 -1 LINE"
);
},
{
closed = 1;
nodes = (
"331 376 OFFCURVE",
"312 382 OFFCURVE",
"300 392 CURVE SMOOTH",
"287 402 OFFCURVE",
"282 423 OFFCURVE",
"282 447 CURVE SMOOTH",
"282 452 LINE",
"422 453 LINE",
"422 446 LINE SMOOTH",
"422 438 OFFCURVE",
"421 428 OFFCURVE",
"419 422 CURVE",
"414 408 OFFCURVE",
"411 398 OFFCURVE",
"400 392 CURVE",
"392 387 OFFCURVE",
"384 383 OFFCURVE",
"372 379 CURVE",
"365 377 OFFCURVE",
"358 376 OFFCURVE",
"353 376 CURVE SMOOTH"
);
}
);
width = 659;
}
);
},
{
glyphname = "ra_ggo-ethiopic.liga";
lastChange = "2019-03-09 00:04:35 +0000";
layers = (
{
layerId = "994FE389-9D54-4FAA-B055-C46A67020E78";
paths = (
{
closed = 1;
nodes = (
"754 0 LINE",
"754 397 LINE SMOOTH",
"754 492 OFFCURVE",
"713 531 OFFCURVE",
"661 531 CURVE SMOOTH",
"616 531 LINE",
"616 606 LINE SMOOTH",
"616 638 OFFCURVE",
"607 663 OFFCURVE",
"589 679 CURVE",
"717 679 LINE",
"717 727 LINE",
"383 727 LINE",
"383 679 LINE",
"465 679 LINE",
"463 677 LINE",
"447 659 OFFCURVE",
"436 637 OFFCURVE",
"436 606 CURVE SMOOTH",
"436 532 LINE",
"326 532 LINE",
"325 452 LINE",
"574 453 LINE SMOOTH",
"651 453 OFFCURVE",
"667 446 OFFCURVE",
"667 319 CURVE SMOOTH",
"667 219 OFFCURVE",
"664 53 OFFCURVE",
"664 0 CURVE"
);
},
{
closed = 1;
nodes = (
"498 79 LINE",
"249 78 LINE SMOOTH",
"173 78 OFFCURVE",
"156 85 OFFCURVE",
"156 212 CURVE SMOOTH",
"156 312 OFFCURVE",
"159 478 OFFCURVE",
"159 531 CURVE",
"70 531 LINE",
"70 134 LINE SMOOTH",
"70 50 OFFCURVE",
"111 0 OFFCURVE",
"163 0 CURVE SMOOTH",
"497 -1 LINE"
);
},
{
closed = 1;
nodes = (
"457 532 LINE",
"457 578 LINE SMOOTH",
"457 603 OFFCURVE",
"462 624 OFFCURVE",
"474 634 CURVE SMOOTH",
"486 644 OFFCURVE",
"505 649 OFFCURVE",
"527 649 CURVE SMOOTH",
"533 649 OFFCURVE",
"540 648 OFFCURVE",
"546 646 CURVE",
"558 643 OFFCURVE",
"566 638 OFFCURVE",
"574 634 CURVE",
"585 627 OFFCURVE",
"590 616 OFFCURVE",
"594 604 CURVE",
"595 597 OFFCURVE",
"596 589 OFFCURVE",
"596 579 CURVE SMOOTH",
"596 531 LINE"
);
}
);
width = 824;
},
{
layerId = "5DC7B242-CF95-40E7-B7B6-33B4F09A6622";
paths = (
{
closed = 1;
nodes = (
"603 0 LINE",
"603 397 LINE SMOOTH",
"603 492 OFFCURVE",
"570 531 OFFCURVE",
"529 531 CURVE SMOOTH",
"493 531 LINE",
"493 606 LINE SMOOTH",
"493 636 OFFCURVE",
"486 663 OFFCURVE",
"471 679 CURVE",
"574 679 LINE",
"574 727 LINE",
"306 727 LINE",
"306 679 LINE",
"372 679 LINE",
"370 677 LINE",
"358 659 OFFCURVE",
"349 637 OFFCURVE",
"349 606 CURVE SMOOTH",
"349 532 LINE",
"261 532 LINE",
"260 452 LINE",
"459 453 LINE SMOOTH",
"521 453 OFFCURVE",
"534 446 OFFCURVE",
"534 319 CURVE SMOOTH",
"534 219 OFFCURVE",
"531 53 OFFCURVE",
"531 0 CURVE"
);
},
{
closed = 1;
nodes = (
"398 79 LINE",
"199 78 LINE SMOOTH",
"143 78 OFFCURVE",
"125 78 OFFCURVE",
"125 212 CURVE SMOOTH",
"125 312 OFFCURVE",
"127 478 OFFCURVE",
"127 531 CURVE",
"56 531 LINE",
"56 134 LINE SMOOTH",
"56 49 OFFCURVE",
"89 0 OFFCURVE",
"130 0 CURVE SMOOTH",
"398 -1 LINE"
);
},
{
closed = 1;
nodes = (
"366 532 LINE",
"366 578 LINE SMOOTH",
"366 598 OFFCURVE",
"368 623 OFFCURVE",
"379 634 CURVE SMOOTH",
"389 644 OFFCURVE",
"404 649 OFFCURVE",
"422 649 CURVE SMOOTH",
"426 649 OFFCURVE",
"432 648 OFFCURVE",
"437 646 CURVE",
"444 644 OFFCURVE",
"452 639 OFFCURVE",
"459 634 CURVE",
"468 627 OFFCURVE",
"472 616 OFFCURVE",
"475 604 CURVE",
"476 597 OFFCURVE",
"477 589 OFFCURVE",
"477 579 CURVE SMOOTH",
"477 531 LINE"
);
}
);
width = 659;
}
);
},
{
glyphname = "ra_ggwaa-ethiopic.liga";
lastChange = "2019-03-09 00:04:35 +0000";
layers = (
{
layerId = "994FE389-9D54-4FAA-B055-C46A67020E78";
paths = (
{
closed = 1;
nodes = (
"983 -182 LINE",
"983 -7 LINE",
"982 -7 LINE",
"982 6 LINE",
"913 6 LINE",
"913 397 LINE SMOOTH",
"913 492 OFFCURVE",
"872 531 OFFCURVE",
"820 531 CURVE SMOOTH",
"674 531 LINE",
"674 682 LINE",
"772 682 LINE",
"772 727 LINE",
"534 727 LINE",
"534 682 LINE",
"630 682 LINE",
"630 532 LINE",
"485 532 LINE",
"485 452 LINE",
"734 453 LINE SMOOTH",
"810 453 OFFCURVE",
"826 446 OFFCURVE",
"826 319 CURVE SMOOTH",
"826 223 OFFCURVE",
"824 65 OFFCURVE",
"824 6 CURVE",
"652 6 LINE",
"652 -18 LINE",
"902 -18 LINE",
"902 -182 LINE"
);
},
{
closed = 1;
nodes = (
"498 79 LINE",
"249 78 LINE SMOOTH",
"173 78 OFFCURVE",
"156 85 OFFCURVE",
"156 212 CURVE SMOOTH",
"156 312 OFFCURVE",
"159 478 OFFCURVE",
"159 531 CURVE",
"70 531 LINE",
"70 134 LINE SMOOTH",
"70 50 OFFCURVE",
"111 0 OFFCURVE",
"163 0 CURVE SMOOTH",
"497 -1 LINE"
);
}
);
width = 1053;
},
{
layerId = "5DC7B242-CF95-40E7-B7B6-33B4F09A6622";
paths = (
{
closed = 1;
nodes = (
"786 -182 LINE",
"786 -7 LINE",
"786 -7 LINE",
"786 6 LINE",
"730 6 LINE",
"730 397 LINE SMOOTH",
"730 492 OFFCURVE",
"698 531 OFFCURVE",
"656 531 CURVE SMOOTH",
"539 531 LINE",
"539 682 LINE",
"618 682 LINE",
"618 727 LINE",
"427 727 LINE",
"427 682 LINE",
"504 682 LINE",
"504 532 LINE",
"388 532 LINE",
"388 452 LINE",
"587 453 LINE SMOOTH",
"648 453 OFFCURVE",
"661 446 OFFCURVE",
"661 319 CURVE SMOOTH",
"661 223 OFFCURVE",
"659 65 OFFCURVE",
"659 6 CURVE",
"522 6 LINE",
"522 -18 LINE",
"722 -18 LINE",
"722 -182 LINE"
);
},
{
closed = 1;
nodes = (
"398 79 LINE",
"199 78 LINE SMOOTH",
"143 78 OFFCURVE",
"125 78 OFFCURVE",
"125 212 CURVE SMOOTH",
"125 312 OFFCURVE",
"127 478 OFFCURVE",
"127 531 CURVE",
"56 531 LINE",
"56 134 LINE SMOOTH",
"56 49 OFFCURVE",
"89 0 OFFCURVE",
"130 0 CURVE SMOOTH",
"398 -1 LINE"
);
}
);
width = 842;
}
);
},
{
glyphname = "ru_xa-ethiopic.liga";
lastChange = "2019-03-09 00:04:35 +0000";
layers = (
{
layerId = "994FE389-9D54-4FAA-B055-C46A67020E78";
paths = (
{
closed = 1;
nodes = (
"792 0 LINE",
"792 439 LINE SMOOTH",
"792 531 OFFCURVE",
"792 531 OFFCURVE",
"688 531 CURVE SMOOTH",
"459 531 LINE",
"459 727 LINE",
"368 727 LINE",
"368 654 LINE",
"237 654 LINE",
"237 571 LINE",
"368 571 LINE",
"368 505 LINE SMOOTH",
"368 477 OFFCURVE",
"386 458 OFFCURVE",
"415 458 CURVE SMOOTH",
"643 458 LINE SMOOTH",
"701 458 OFFCURVE",
"701 458 OFFCURVE",
"701 278 CURVE SMOOTH",
"701 0 LINE"
);
},
{
closed = 1;
nodes = (
"400 -175 LINE",
"400 -1 LINE",
"497 -1 LINE",
"498 79 LINE",
"249 78 LINE SMOOTH",
"173 78 OFFCURVE",
"156 85 OFFCURVE",
"156 212 CURVE SMOOTH",
"156 312 OFFCURVE",
"159 478 OFFCURVE",
"159 531 CURVE",
"70 531 LINE",
"70 134 LINE SMOOTH",
"70 39 OFFCURVE",
"111 0 OFFCURVE",
"163 0 CURVE SMOOTH",
"321 0 LINE",
"321 -175 LINE"
);
}
);
width = 862;
},
{
layerId = "5DC7B242-CF95-40E7-B7B6-33B4F09A6622";
paths = (
{
closed = 1;
nodes = (
"634 0 LINE",
"634 439 LINE SMOOTH",
"634 531 OFFCURVE",
"634 531 OFFCURVE",
"550 531 CURVE SMOOTH",
"367 531 LINE",
"367 727 LINE",
"294 727 LINE",
"294 654 LINE",
"190 654 LINE",
"190 571 LINE",
"294 571 LINE",
"294 505 LINE SMOOTH",
"294 477 OFFCURVE",
"309 458 OFFCURVE",
"332 458 CURVE SMOOTH",
"514 458 LINE SMOOTH",
"561 458 OFFCURVE",
"561 458 OFFCURVE",
"561 278 CURVE SMOOTH",
"561 0 LINE"
);
},
{
closed = 1;
nodes = (
"320 -175 LINE",
"320 -1 LINE",
"398 -1 LINE",
"398 79 LINE",
"199 78 LINE SMOOTH",
"143 78 OFFCURVE",
"125 78 OFFCURVE",
"125 212 CURVE SMOOTH",
"125 312 OFFCURVE",
"127 478 OFFCURVE",
"127 531 CURVE",
"56 531 LINE",
"56 134 LINE SMOOTH",
"56 39 OFFCURVE",
"89 0 OFFCURVE",
"130 0 CURVE SMOOTH",
"257 0 LINE",
"257 -175 LINE"
);
}
);
width = 690;
}
);
note = uni1280;
},
{
glyphname = "ru_xu-ethiopic.liga";
lastChange = "2019-03-09 00:04:35 +0000";
layers = (
{
layerId = "994FE389-9D54-4FAA-B055-C46A67020E78";
paths = (
{
closed = 1;
nodes = (
"747 0 LINE",
"747 246 LINE",
"846 246 LINE",
"846 346 LINE",
"747 346 LINE",
"747 439 LINE SMOOTH",
"747 531 OFFCURVE",
"747 531 OFFCURVE",
"643 531 CURVE SMOOTH",
"414 531 LINE",
"414 727 LINE",
"323 727 LINE",
"323 654 LINE",
"192 654 LINE",
"192 571 LINE",
"323 571 LINE",
"323 505 LINE SMOOTH",
"323 477 OFFCURVE",
"340 458 OFFCURVE",
"369 458 CURVE SMOOTH",
"598 458 LINE SMOOTH",
"656 458 OFFCURVE",
"656 458 OFFCURVE",
"656 278 CURVE SMOOTH",
"656 0 LINE"
);
},
{
closed = 1;
nodes = (
"400 -175 LINE",
"400 -1 LINE",
"498 -1 LINE",
"498 79 LINE",
"249 78 LINE SMOOTH",
"173 78 OFFCURVE",
"157 85 OFFCURVE",
"157 212 CURVE SMOOTH",
"157 312 OFFCURVE",
"159 478 OFFCURVE",
"159 531 CURVE",
"70 531 LINE",
"70 134 LINE SMOOTH",
"70 39 OFFCURVE",
"111 0 OFFCURVE",
"163 0 CURVE SMOOTH",
"321 0 LINE",
"321 -175 LINE"
);
}
);
width = 916;
},
{
layerId = "5DC7B242-CF95-40E7-B7B6-33B4F09A6622";
paths = (
{
closed = 1;
nodes = (
"598 0 LINE",
"598 246 LINE",
"677 246 LINE",
"677 346 LINE",
"598 346 LINE",
"598 439 LINE SMOOTH",
"598 531 OFFCURVE",
"598 531 OFFCURVE",
"514 531 CURVE SMOOTH",
"331 531 LINE",
"331 727 LINE",
"258 727 LINE",
"258 654 LINE",
"154 654 LINE",
"154 571 LINE",
"258 571 LINE",
"258 505 LINE SMOOTH",
"258 477 OFFCURVE",
"272 458 OFFCURVE",
"295 458 CURVE SMOOTH",
"478 458 LINE SMOOTH",
"525 458 OFFCURVE",
"525 458 OFFCURVE",
"525 278 CURVE SMOOTH",
"525 0 LINE"
);
},
{
closed = 1;
nodes = (
"320 -175 LINE",
"320 -1 LINE",
"398 -1 LINE",
"398 79 LINE",
"199 78 LINE SMOOTH",
"144 78 OFFCURVE",
"126 76 OFFCURVE",
"126 212 CURVE SMOOTH",
"126 312 OFFCURVE",
"127 478 OFFCURVE",
"127 531 CURVE",
"56 531 LINE",
"56 134 LINE SMOOTH",
"56 39 OFFCURVE",
"89 0 OFFCURVE",
"130 0 CURVE SMOOTH",
"257 0 LINE",
"257 -175 LINE"
);
}
);
width = 733;
}
);
note = uni1281;
},
{
glyphname = "ru_xi-ethiopic.liga";
lastChange = "2019-03-09 00:04:35 +0000";
layers = (
{
layerId = "994FE389-9D54-4FAA-B055-C46A67020E78";
paths = (
{
closed = 1;
nodes = (
"865 0 LINE",
"865 100 LINE",
"765 100 LINE",
"765 439 LINE SMOOTH",
"765 531 OFFCURVE",
"765 531 OFFCURVE",
"661 531 CURVE SMOOTH",
"432 531 LINE",
"432 727 LINE",
"341 727 LINE",
"341 654 LINE",
"210 654 LINE",
"210 571 LINE",
"341 571 LINE",
"341 505 LINE SMOOTH",
"341 477 OFFCURVE",
"358 458 OFFCURVE",
"387 458 CURVE SMOOTH",
"616 458 LINE SMOOTH",
"674 458 OFFCURVE",
"674 458 OFFCURVE",
"674 278 CURVE SMOOTH",
"674 0 LINE"
);
},
{
closed = 1;
nodes = (
"400 -175 LINE",
"400 -1 LINE",
"497 -1 LINE",
"498 79 LINE",
"249 78 LINE SMOOTH",
"173 78 OFFCURVE",
"156 85 OFFCURVE",
"156 212 CURVE SMOOTH",
"156 312 OFFCURVE",
"159 478 OFFCURVE",
"159 531 CURVE",
"70 531 LINE",
"70 134 LINE SMOOTH",
"70 39 OFFCURVE",
"111 0 OFFCURVE",
"163 0 CURVE SMOOTH",
"321 0 LINE",
"321 -175 LINE"
);
}
);
width = 935;
},
{
layerId = "5DC7B242-CF95-40E7-B7B6-33B4F09A6622";
paths = (
{
closed = 1;
nodes = (
"692 0 LINE",
"692 100 LINE",
"612 100 LINE",
"612 439 LINE SMOOTH",
"612 531 OFFCURVE",
"612 531 OFFCURVE",
"529 531 CURVE SMOOTH",
"346 531 LINE",
"346 727 LINE",
"273 727 LINE",
"273 654 LINE",
"168 654 LINE",
"168 571 LINE",
"273 571 LINE",
"273 505 LINE SMOOTH",
"273 477 OFFCURVE",
"287 458 OFFCURVE",
"310 458 CURVE SMOOTH",
"493 458 LINE SMOOTH",
"539 458 OFFCURVE",
"539 458 OFFCURVE",
"539 278 CURVE SMOOTH",
"539 0 LINE"
);
},
{
closed = 1;
nodes = (
"320 -175 LINE",
"320 -1 LINE",
"398 -1 LINE",
"398 79 LINE",
"199 78 LINE SMOOTH",
"143 78 OFFCURVE",
"125 78 OFFCURVE",
"125 212 CURVE SMOOTH",
"125 312 OFFCURVE",
"127 478 OFFCURVE",
"127 531 CURVE",
"56 531 LINE",
"56 134 LINE SMOOTH",
"56 39 OFFCURVE",
"89 0 OFFCURVE",
"130 0 CURVE SMOOTH",
"257 0 LINE",
"257 -175 LINE"
);
}
);
width = 748;
}
);
note = uni1282;
},
{
glyphname = "ru_xee-ethiopic.liga";
lastChange = "2019-03-09 00:04:35 +0000";
layers = (
{
layerId = "994FE389-9D54-4FAA-B055-C46A67020E78";
paths = (
{
closed = 1;
nodes = (
"838 0 LINE SMOOTH",
"883 0 OFFCURVE",
"915 16 OFFCURVE",
"933 46 CURVE SMOOTH",
"943 63 OFFCURVE",
"949 82 OFFCURVE",
"949 103 CURVE SMOOTH",
"949 131 OFFCURVE",
"941 155 OFFCURVE",
"922 170 CURVE SMOOTH",
"900 188 OFFCURVE",
"875 200 OFFCURVE",
"839 200 CURVE SMOOTH",
"828 200 LINE",
"828 439 LINE SMOOTH",
"828 531 OFFCURVE",
"828 531 OFFCURVE",
"724 531 CURVE SMOOTH",
"495 531 LINE",
"495 727 LINE",
"404 727 LINE",
"404 654 LINE",
"273 654 LINE",
"273 571 LINE",
"404 571 LINE",
"404 505 LINE SMOOTH",
"404 477 OFFCURVE",
"422 458 OFFCURVE",
"451 458 CURVE SMOOTH",
"679 458 LINE SMOOTH",
"737 458 OFFCURVE",
"737 458 OFFCURVE",
"737 278 CURVE SMOOTH",
"737 0 LINE"
);
},
{
closed = 1;
nodes = (
"400 -175 LINE",
"400 -1 LINE",
"497 -1 LINE",
"498 79 LINE",
"249 78 LINE SMOOTH",
"173 78 OFFCURVE",
"156 85 OFFCURVE",
"156 212 CURVE SMOOTH",
"156 312 OFFCURVE",
"159 478 OFFCURVE",
"159 531 CURVE",
"70 531 LINE",
"70 134 LINE SMOOTH",
"70 39 OFFCURVE",
"111 0 OFFCURVE",
"163 0 CURVE SMOOTH",
"321 0 LINE",
"321 -175 LINE"
);
},
{
closed = 1;
nodes = (
"828 175 LINE",
"846 173 OFFCURVE",
"861 166 OFFCURVE",
"870 157 CURVE SMOOTH",
"883 144 OFFCURVE",
"888 124 OFFCURVE",
"888 99 CURVE SMOOTH",
"888 92 OFFCURVE",
"887 86 OFFCURVE",
"885 78 CURVE SMOOTH",
"882 65 OFFCURVE",
"877 55 OFFCURVE",
"871 46 CURVE",
"863 36 OFFCURVE",
"851 29 OFFCURVE",
"836 26 CURVE",
"828 24 LINE"
);
}
);
width = 1019;
},
{
layerId = "5DC7B242-CF95-40E7-B7B6-33B4F09A6622";
paths = (
{
closed = 1;
nodes = (
"670 0 LINE SMOOTH",
"706 0 OFFCURVE",
"732 16 OFFCURVE",
"746 45 CURVE SMOOTH",
"754 63 OFFCURVE",
"759 80 OFFCURVE",
"759 103 CURVE SMOOTH",
"759 129 OFFCURVE",
"755 152 OFFCURVE",
"737 170 CURVE SMOOTH",
"717 190 OFFCURVE",
"700 200 OFFCURVE",
"671 200 CURVE SMOOTH",
"662 200 LINE",
"662 439 LINE SMOOTH",
"662 531 OFFCURVE",
"662 531 OFFCURVE",
"579 531 CURVE SMOOTH",
"396 531 LINE",
"396 727 LINE",
"323 727 LINE",
"323 654 LINE",
"218 654 LINE",
"218 571 LINE",
"323 571 LINE",
"323 505 LINE SMOOTH",
"323 477 OFFCURVE",
"338 458 OFFCURVE",
"361 458 CURVE SMOOTH",
"543 458 LINE SMOOTH",
"590 458 OFFCURVE",
"590 458 OFFCURVE",
"590 278 CURVE SMOOTH",
"590 0 LINE"
);
},
{
closed = 1;
nodes = (
"320 -175 LINE",
"320 -1 LINE",
"398 -1 LINE",
"398 79 LINE",
"199 78 LINE SMOOTH",
"143 78 OFFCURVE",
"125 78 OFFCURVE",
"125 212 CURVE SMOOTH",
"125 312 OFFCURVE",
"127 478 OFFCURVE",
"127 531 CURVE",
"56 531 LINE",
"56 134 LINE SMOOTH",
"56 39 OFFCURVE",
"89 0 OFFCURVE",
"130 0 CURVE SMOOTH",
"257 0 LINE",
"257 -175 LINE"
);
},
{
closed = 1;
nodes = (
"662 175 LINE",
"677 173 OFFCURVE",
"689 166 OFFCURVE",
"696 157 CURVE SMOOTH",
"706 144 OFFCURVE",
"710 127 OFFCURVE",
"710 99 CURVE SMOOTH",
"710 91 OFFCURVE",
"710 88 OFFCURVE",
"708 78 CURVE SMOOTH",
"705 63 OFFCURVE",
"702 55 OFFCURVE",
"697 46 CURVE",
"690 36 OFFCURVE",
"681 30 OFFCURVE",
"669 26 CURVE",
"662 24 LINE"
);
}
);
width = 815;
}
);
note = uni1284;
},
{
glyphname = "ru_xe-ethiopic.liga";
lastChange = "2019-03-09 00:04:35 +0000";
layers = (
{
layerId = "994FE389-9D54-4FAA-B055-C46A67020E78";
paths = (
{
closed = 1;
nodes = (
"814 0 LINE",
"814 439 LINE SMOOTH",
"814 531 OFFCURVE",
"814 531 OFFCURVE",
"710 531 CURVE SMOOTH",
"481 531 LINE",
"481 727 LINE",
"390 727 LINE",
"390 638 LINE",
"264 638 LINE",
"264 635 LINE",
"260 635 LINE",
"260 482 LINE",
"326 482 LINE",
"326 568 LINE SMOOTH",
"326 581 OFFCURVE",
"337 591 OFFCURVE",
"349 591 CURVE SMOOTH",
"390 591 LINE",
"390 458 LINE",
"665 458 LINE SMOOTH",
"723 458 OFFCURVE",
"723 458 OFFCURVE",
"723 278 CURVE SMOOTH",
"723 0 LINE"
);
},
{
closed = 1;
nodes = (
"400 -175 LINE",
"400 -1 LINE",
"497 -1 LINE",
"498 79 LINE",
"249 78 LINE SMOOTH",
"173 78 OFFCURVE",
"157 85 OFFCURVE",
"157 212 CURVE SMOOTH",
"157 312 OFFCURVE",
"159 478 OFFCURVE",
"159 531 CURVE",
"70 531 LINE",
"70 134 LINE SMOOTH",
"70 39 OFFCURVE",
"111 0 OFFCURVE",
"163 0 CURVE SMOOTH",
"321 0 LINE",
"321 -175 LINE"
);
}
);
width = 884;
},
{
layerId = "5DC7B242-CF95-40E7-B7B6-33B4F09A6622";
paths = (
{
closed = 1;
nodes = (
"651 0 LINE",
"651 439 LINE SMOOTH",
"651 531 OFFCURVE",
"651 531 OFFCURVE",
"568 531 CURVE SMOOTH",
"385 531 LINE",
"385 727 LINE",
"312 727 LINE",
"312 638 LINE",
"211 638 LINE",
"211 635 LINE",
"208 635 LINE",
"208 482 LINE",
"261 482 LINE",
"261 568 LINE SMOOTH",
"261 581 OFFCURVE",
"270 591 OFFCURVE",
"279 591 CURVE SMOOTH",
"312 591 LINE",
"312 458 LINE",
"532 458 LINE SMOOTH",
"578 458 OFFCURVE",
"578 458 OFFCURVE",
"578 278 CURVE SMOOTH",
"578 0 LINE"
);
},
{
closed = 1;
nodes = (
"320 -175 LINE",
"320 -1 LINE",
"398 -1 LINE",
"398 79 LINE",
"199 78 LINE SMOOTH",
"144 78 OFFCURVE",
"126 76 OFFCURVE",
"126 212 CURVE SMOOTH",
"126 312 OFFCURVE",
"127 478 OFFCURVE",
"127 531 CURVE",
"56 531 LINE",
"56 134 LINE SMOOTH",
"56 39 OFFCURVE",
"89 0 OFFCURVE",
"130 0 CURVE SMOOTH",
"257 0 LINE",
"257 -175 LINE"
);
}
);
width = 707;
}
);
note = uni1285;
},
{
glyphname = "ru_xwa-ethiopic.liga";
lastChange = "2019-03-09 00:04:35 +0000";
layers = (
{
layerId = "994FE389-9D54-4FAA-B055-C46A67020E78";
paths = (
{
closed = 1;
nodes = (
"731 0 LINE",
"731 215 LINE",
"749 215 LINE SMOOTH",
"794 215 OFFCURVE",
"826 228 OFFCURVE",
"844 253 CURVE SMOOTH",
"854 266 OFFCURVE",
"860 283 OFFCURVE",
"860 300 CURVE SMOOTH",
"860 323 OFFCURVE",
"851 343 OFFCURVE",
"832 356 CURVE SMOOTH",
"810 371 OFFCURVE",
"786 380 OFFCURVE",
"750 380 CURVE SMOOTH",
"731 380 LINE",
"731 439 LINE SMOOTH",
"731 531 OFFCURVE",
"731 531 OFFCURVE",
"628 531 CURVE SMOOTH",
"517 531 LINE",
"517 727 LINE",
"426 727 LINE",
"426 605 LINE",
"344 605 LINE",
"344 531 LINE",
"426 531 LINE",
"426 458 LINE",
"582 458 LINE SMOOTH",
"640 458 OFFCURVE",
"640 458 OFFCURVE",
"640 278 CURVE SMOOTH",
"640 0 LINE"
);
},
{
closed = 1;
nodes = (
"400 -175 LINE",
"400 -1 LINE",
"497 -1 LINE",
"498 79 LINE",
"249 78 LINE SMOOTH",
"172 78 OFFCURVE",
"156 85 OFFCURVE",
"156 212 CURVE SMOOTH",
"156 312 OFFCURVE",
"159 478 OFFCURVE",
"159 531 CURVE",
"70 531 LINE",
"70 134 LINE SMOOTH",
"70 39 OFFCURVE",
"110 0 OFFCURVE",
"162 0 CURVE SMOOTH",
"320 0 LINE",
"320 -175 LINE"
);
},
{
closed = 1;
nodes = (
"731 361 LINE",
"753 360 OFFCURVE",
"770 354 OFFCURVE",
"780 345 CURVE SMOOTH",
"793 334 OFFCURVE",
"799 316 OFFCURVE",
"799 296 CURVE SMOOTH",
"799 291 OFFCURVE",
"798 286 OFFCURVE",
"796 279 CURVE",
"792 268 OFFCURVE",
"788 260 OFFCURVE",
"781 253 CURVE",
"773 244 OFFCURVE",
"761 239 OFFCURVE",
"747 236 CURVE SMOOTH",
"742 235 OFFCURVE",
"737 234 OFFCURVE",
"731 234 CURVE"
);
}
);
width = 930;
},
{
layerId = "5DC7B242-CF95-40E7-B7B6-33B4F09A6622";
paths = (
{
closed = 1;
nodes = (
"585 0 LINE",
"585 215 LINE",
"599 215 LINE SMOOTH",
"630 215 OFFCURVE",
"658 224 OFFCURVE",
"675 253 CURVE SMOOTH",
"683 266 OFFCURVE",
"688 281 OFFCURVE",
"688 300 CURVE SMOOTH",
"688 321 OFFCURVE",
"681 343 OFFCURVE",
"666 356 CURVE SMOOTH",
"648 371 OFFCURVE",
"628 380 OFFCURVE",
"600 380 CURVE SMOOTH",
"585 380 LINE",
"585 439 LINE SMOOTH",
"585 531 OFFCURVE",
"585 531 OFFCURVE",
"502 531 CURVE SMOOTH",
"414 531 LINE",
"414 727 LINE",
"341 727 LINE",
"341 605 LINE",
"275 605 LINE",
"275 531 LINE",
"341 531 LINE",
"341 458 LINE",
"466 458 LINE SMOOTH",
"512 458 OFFCURVE",
"512 458 OFFCURVE",
"512 278 CURVE SMOOTH",
"512 0 LINE"
);
},
{
closed = 1;
nodes = (
"320 -175 LINE",
"320 -1 LINE",
"398 -1 LINE",
"398 79 LINE",
"199 78 LINE SMOOTH",
"142 78 OFFCURVE",
"125 78 OFFCURVE",
"125 212 CURVE SMOOTH",
"125 312 OFFCURVE",
"127 478 OFFCURVE",
"127 531 CURVE",
"56 531 LINE",
"56 134 LINE SMOOTH",
"56 39 OFFCURVE",
"88 0 OFFCURVE",
"130 0 CURVE SMOOTH",
"256 0 LINE",
"256 -175 LINE"
);
},
{
closed = 1;
nodes = (
"585 361 LINE",
"602 360 OFFCURVE",
"616 354 OFFCURVE",
"624 345 CURVE SMOOTH",
"634 334 OFFCURVE",
"639 318 OFFCURVE",
"639 296 CURVE SMOOTH",
"639 290 OFFCURVE",
"638 284 OFFCURVE",
"637 279 CURVE",
"632 262 OFFCURVE",
"629 259 OFFCURVE",
"625 253 CURVE",
"619 245 OFFCURVE",
"609 239 OFFCURVE",
"598 236 CURVE SMOOTH",
"594 235 OFFCURVE",
"588 234 OFFCURVE",
"585 234 CURVE"
);
}
);
width = 744;
}
);
},
{
glyphname = "ru_xwi-ethiopic.liga";
lastChange = "2019-03-09 00:04:35 +0000";
layers = (
{
layerId = "994FE389-9D54-4FAA-B055-C46A67020E78";
paths = (
{
closed = 1;
nodes = (
"721 0 LINE",
"721 273 LINE",
"763 273 LINE",
"763 229 LINE",
"924 229 LINE",
"924 276 LINE",
"811 276 LINE",
"811 391 LINE",
"769 391 LINE",
"769 323 LINE",
"721 323 LINE",
"721 439 LINE SMOOTH",
"721 531 OFFCURVE",
"721 531 OFFCURVE",
"617 531 CURVE SMOOTH",
"506 531 LINE",
"506 727 LINE",
"416 727 LINE",
"416 605 LINE",
"334 605 LINE",
"334 531 LINE",
"416 531 LINE",
"416 458 LINE",
"572 458 LINE SMOOTH",
"630 458 OFFCURVE",
"630 458 OFFCURVE",
"630 278 CURVE SMOOTH",
"630 0 LINE"
);
},
{
closed = 1;
nodes = (
"400 -175 LINE",
"400 -1 LINE",
"497 -1 LINE",
"498 79 LINE",
"249 78 LINE SMOOTH",
"173 78 OFFCURVE",
"156 85 OFFCURVE",
"156 212 CURVE SMOOTH",
"156 312 OFFCURVE",
"159 478 OFFCURVE",
"159 531 CURVE",
"70 531 LINE",
"70 134 LINE SMOOTH",
"70 39 OFFCURVE",
"111 0 OFFCURVE",
"163 0 CURVE SMOOTH",
"321 0 LINE",
"321 -175 LINE"
);
}
);
width = 994;
},
{
layerId = "5DC7B242-CF95-40E7-B7B6-33B4F09A6622";
paths = (
{
closed = 1;
nodes = (
"577 0 LINE",
"577 273 LINE",
"610 273 LINE",
"610 229 LINE",
"739 229 LINE",
"739 276 LINE",
"649 276 LINE",
"649 391 LINE",
"615 391 LINE",
"615 323 LINE",
"577 323 LINE",
"577 439 LINE SMOOTH",
"577 531 OFFCURVE",
"577 531 OFFCURVE",
"494 531 CURVE SMOOTH",
"405 531 LINE",
"405 727 LINE",
"333 727 LINE",
"333 605 LINE",
"267 605 LINE",
"267 531 LINE",
"333 531 LINE",
"333 458 LINE",
"458 458 LINE SMOOTH",
"504 458 OFFCURVE",
"504 458 OFFCURVE",
"504 278 CURVE SMOOTH",
"504 0 LINE"
);
},
{
closed = 1;
nodes = (
"320 -175 LINE",
"320 -1 LINE",
"398 -1 LINE",
"398 79 LINE",
"199 78 LINE SMOOTH",
"143 78 OFFCURVE",
"125 78 OFFCURVE",
"125 212 CURVE SMOOTH",
"125 312 OFFCURVE",
"127 478 OFFCURVE",
"127 531 CURVE",
"56 531 LINE",
"56 134 LINE SMOOTH",
"56 39 OFFCURVE",
"89 0 OFFCURVE",
"130 0 CURVE SMOOTH",
"257 0 LINE",
"257 -175 LINE"
);
}
);
width = 795;
}
);
},
{
glyphname = "ru_xwaa-ethiopic.liga";
lastChange = "2019-03-09 00:04:35 +0000";
layers = (
{
layerId = "994FE389-9D54-4FAA-B055-C46A67020E78";
paths = (
{
closed = 1;
nodes = (
"988 -182 LINE",
"988 0 LINE",
"843 0 LINE",
"843 439 LINE SMOOTH",
"843 531 OFFCURVE",
"843 531 OFFCURVE",
"739 531 CURVE SMOOTH",
"510 531 LINE",
"510 727 LINE",
"419 727 LINE",
"419 649 LINE",
"302 649 LINE",
"302 555 LINE",
"419 555 LINE",
"419 505 LINE SMOOTH",
"419 477 OFFCURVE",
"437 458 OFFCURVE",
"466 458 CURVE SMOOTH",
"694 458 LINE SMOOTH",
"752 458 OFFCURVE",
"752 458 OFFCURVE",
"752 278 CURVE SMOOTH",
"752 0 LINE",
"631 0 LINE",
"631 -56 LINE",
"891 -56 LINE",
"891 -182 LINE"
);
},
{
closed = 1;
nodes = (
"400 -175 LINE",
"400 -1 LINE",
"498 -1 LINE",
"498 79 LINE",
"249 78 LINE SMOOTH",
"173 78 OFFCURVE",
"157 85 OFFCURVE",
"157 212 CURVE SMOOTH",
"157 312 OFFCURVE",
"159 478 OFFCURVE",
"159 531 CURVE",
"70 531 LINE",
"70 134 LINE SMOOTH",
"70 39 OFFCURVE",
"111 0 OFFCURVE",
"163 0 CURVE SMOOTH",
"321 0 LINE",
"321 -175 LINE"
);
}
);
width = 1058;
},
{
layerId = "5DC7B242-CF95-40E7-B7B6-33B4F09A6622";
paths = (
{
closed = 1;
nodes = (
"790 -182 LINE",
"790 0 LINE",
"674 0 LINE",
"674 439 LINE SMOOTH",
"674 531 OFFCURVE",
"674 531 OFFCURVE",
"591 531 CURVE SMOOTH",
"408 531 LINE",
"408 727 LINE",
"335 727 LINE",
"335 649 LINE",
"242 649 LINE",
"242 555 LINE",
"335 555 LINE",
"335 505 LINE SMOOTH",
"335 477 OFFCURVE",
"350 458 OFFCURVE",
"373 458 CURVE SMOOTH",
"555 458 LINE SMOOTH",
"602 458 OFFCURVE",
"602 458 OFFCURVE",
"602 278 CURVE SMOOTH",
"602 0 LINE",
"505 0 LINE",
"505 -56 LINE",
"713 -56 LINE",
"713 -182 LINE"
);
},
{
closed = 1;
nodes = (
"320 -175 LINE",
"320 -1 LINE",
"398 -1 LINE",
"398 79 LINE",
"199 78 LINE SMOOTH",
"144 78 OFFCURVE",
"126 76 OFFCURVE",
"126 212 CURVE SMOOTH",
"126 312 OFFCURVE",
"127 478 OFFCURVE",
"127 531 CURVE",
"56 531 LINE",
"56 134 LINE SMOOTH",
"56 39 OFFCURVE",
"89 0 OFFCURVE",
"130 0 CURVE SMOOTH",
"257 0 LINE",
"257 -175 LINE"
);
}
);
width = 846;
}
);
},
{
glyphname = "ru_xwee-ethiopic.liga";
lastChange = "2019-03-09 00:04:35 +0000";
layers = (
{
layerId = "994FE389-9D54-4FAA-B055-C46A67020E78";
paths = (
{
closed = 1;
nodes = (
"928 -1 LINE",
"928 6 LINE",
"936 3 OFFCURVE",
"944 0 OFFCURVE",
"953 0 CURVE SMOOTH",
"1008 0 OFFCURVE",
"1050 45 OFFCURVE",
"1050 96 CURVE SMOOTH",
"1050 151 OFFCURVE",
"1009 196 OFFCURVE",
"953 196 CURVE SMOOTH",
"944 196 OFFCURVE",
"936 195 OFFCURVE",
"928 192 CURVE",
"928 439 LINE SMOOTH",
"928 531 OFFCURVE",
"928 531 OFFCURVE",
"824 531 CURVE SMOOTH",
"595 531 LINE",
"595 727 LINE",
"504 727 LINE",
"504 649 LINE",
"387 649 LINE",
"387 555 LINE",
"504 555 LINE",
"504 505 LINE SMOOTH",
"504 477 OFFCURVE",
"521 458 OFFCURVE",
"550 458 CURVE SMOOTH",
"779 458 LINE SMOOTH",
"837 458 OFFCURVE",
"837 458 OFFCURVE",
"837 278 CURVE SMOOTH",
"837 56 LINE",
"685 56 LINE",
"685 -1 LINE"
);
},
{
closed = 1;
nodes = (
"400 -175 LINE",
"400 -1 LINE",
"497 -1 LINE",
"498 79 LINE",
"249 78 LINE SMOOTH",
"172 78 OFFCURVE",
"156 85 OFFCURVE",
"156 212 CURVE SMOOTH",
"156 312 OFFCURVE",
"159 478 OFFCURVE",
"159 531 CURVE",
"70 531 LINE",
"70 134 LINE SMOOTH",
"70 39 OFFCURVE",
"110 0 OFFCURVE",
"162 0 CURVE SMOOTH",
"320 0 LINE",
"320 -175 LINE"
);
},
{
closed = 1;
nodes = (
"943 54 OFFCURVE",
"935 56 OFFCURVE",
"928 62 CURVE",
"928 134 LINE",
"935 139 OFFCURVE",
"943 142 OFFCURVE",
"953 142 CURVE SMOOTH",
"978 142 OFFCURVE",
"998 122 OFFCURVE",
"998 99 CURVE SMOOTH",
"998 73 OFFCURVE",
"978 54 OFFCURVE",
"953 54 CURVE SMOOTH"
);
}
);
width = 1120;
},
{
layerId = "5DC7B242-CF95-40E7-B7B6-33B4F09A6622";
paths = (
{
closed = 1;
nodes = (
"742 -1 LINE",
"742 6 LINE",
"749 3 OFFCURVE",
"755 0 OFFCURVE",
"762 0 CURVE SMOOTH",
"806 0 OFFCURVE",
"840 45 OFFCURVE",
"840 96 CURVE SMOOTH",
"840 151 OFFCURVE",
"807 196 OFFCURVE",
"762 196 CURVE SMOOTH",
"755 196 OFFCURVE",
"749 195 OFFCURVE",
"742 192 CURVE",
"742 439 LINE SMOOTH",
"742 531 OFFCURVE",
"742 531 OFFCURVE",
"659 531 CURVE SMOOTH",
"476 531 LINE",
"476 727 LINE",
"403 727 LINE",
"403 649 LINE",
"310 649 LINE",
"310 555 LINE",
"403 555 LINE",
"403 505 LINE SMOOTH",
"403 477 OFFCURVE",
"417 458 OFFCURVE",
"440 458 CURVE SMOOTH",
"623 458 LINE SMOOTH",
"670 458 OFFCURVE",
"670 458 OFFCURVE",
"670 278 CURVE SMOOTH",
"670 56 LINE",
"548 56 LINE",
"548 -1 LINE"
);
},
{
closed = 1;
nodes = (
"320 -175 LINE",
"320 -1 LINE",
"398 -1 LINE",
"398 79 LINE",
"199 78 LINE SMOOTH",
"142 78 OFFCURVE",
"125 78 OFFCURVE",
"125 212 CURVE SMOOTH",
"125 312 OFFCURVE",
"127 478 OFFCURVE",
"127 531 CURVE",
"56 531 LINE",
"56 134 LINE SMOOTH",
"56 39 OFFCURVE",
"88 0 OFFCURVE",
"130 0 CURVE SMOOTH",
"256 0 LINE",
"256 -175 LINE"
);
},
{
closed = 1;
nodes = (
"754 54 OFFCURVE",
"748 56 OFFCURVE",
"742 62 CURVE",
"742 134 LINE",
"748 139 OFFCURVE",
"754 142 OFFCURVE",
"762 142 CURVE SMOOTH",
"782 142 OFFCURVE",
"798 122 OFFCURVE",
"798 99 CURVE SMOOTH",
"798 73 OFFCURVE",
"782 54 OFFCURVE",
"762 54 CURVE SMOOTH"
);
}
);
width = 896;
}
);
},
{
glyphname = "ru_xwe-ethiopic.liga";
lastChange = "2019-03-09 00:04:35 +0000";
layers = (
{
layerId = "994FE389-9D54-4FAA-B055-C46A67020E78";
paths = (
{
closed = 1;
nodes = (
"1028 -182 LINE",
"1028 0 LINE",
"883 0 LINE",
"883 273 LINE",
"960 273 LINE",
"960 229 LINE",
"1121 229 LINE",
"1121 276 LINE",
"1008 276 LINE",
"1008 391 LINE",
"966 391 LINE",
"966 323 LINE",
"883 323 LINE",
"883 439 LINE SMOOTH",
"883 531 OFFCURVE",
"883 531 OFFCURVE",
"779 531 CURVE SMOOTH",
"550 531 LINE",
"550 727 LINE",
"459 727 LINE",
"459 649 LINE",
"342 649 LINE",
"342 555 LINE",
"459 555 LINE",
"459 505 LINE SMOOTH",
"459 477 OFFCURVE",
"476 458 OFFCURVE",
"505 458 CURVE SMOOTH",
"734 458 LINE SMOOTH",
"792 458 OFFCURVE",
"792 458 OFFCURVE",
"792 278 CURVE SMOOTH",
"792 0 LINE",
"671 0 LINE",
"671 -56 LINE",
"931 -56 LINE",
"931 -182 LINE"
);
},
{
closed = 1;
nodes = (
"400 -175 LINE",
"400 -1 LINE",
"497 -1 LINE",
"498 79 LINE",
"249 78 LINE SMOOTH",
"173 78 OFFCURVE",
"156 85 OFFCURVE",
"156 212 CURVE SMOOTH",
"156 312 OFFCURVE",
"159 478 OFFCURVE",
"159 531 CURVE",
"70 531 LINE",
"70 134 LINE SMOOTH",
"70 39 OFFCURVE",
"111 0 OFFCURVE",
"163 0 CURVE SMOOTH",
"321 0 LINE",
"321 -175 LINE"
);
}
);
width = 1191;
},
{
layerId = "5DC7B242-CF95-40E7-B7B6-33B4F09A6622";
paths = (
{
closed = 1;
nodes = (
"822 -182 LINE",
"822 0 LINE",
"706 0 LINE",
"706 273 LINE",
"768 273 LINE",
"768 229 LINE",
"897 229 LINE",
"897 276 LINE",
"806 276 LINE",
"806 391 LINE",
"773 391 LINE",
"773 323 LINE",
"706 323 LINE",
"706 439 LINE SMOOTH",
"706 531 OFFCURVE",
"706 531 OFFCURVE",
"623 531 CURVE SMOOTH",
"440 531 LINE",
"440 727 LINE",
"367 727 LINE",
"367 649 LINE",
"274 649 LINE",
"274 555 LINE",
"367 555 LINE",
"367 505 LINE SMOOTH",
"367 477 OFFCURVE",
"381 458 OFFCURVE",
"404 458 CURVE SMOOTH",
"587 458 LINE SMOOTH",
"634 458 OFFCURVE",
"634 458 OFFCURVE",
"634 278 CURVE SMOOTH",
"634 0 LINE",
"537 0 LINE",
"537 -56 LINE",
"745 -56 LINE",
"745 -182 LINE"
);
},
{
closed = 1;
nodes = (
"320 -175 LINE",
"320 -1 LINE",
"398 -1 LINE",
"398 79 LINE",
"199 78 LINE SMOOTH",
"143 78 OFFCURVE",
"125 78 OFFCURVE",
"125 212 CURVE SMOOTH",
"125 312 OFFCURVE",
"127 478 OFFCURVE",
"127 531 CURVE",
"56 531 LINE",
"56 134 LINE SMOOTH",
"56 39 OFFCURVE",
"89 0 OFFCURVE",
"130 0 CURVE SMOOTH",
"257 0 LINE",
"257 -175 LINE"
);
}
);
width = 953;
}
);
},
{
glyphname = "ru_na-ethiopic.liga";
lastChange = "2019-03-09 00:04:35 +0000";
layers = (
{
layerId = "994FE389-9D54-4FAA-B055-C46A67020E78";
paths = (
{
closed = 1;
nodes = (
"720 0 LINE",
"720 439 LINE SMOOTH",
"720 531 OFFCURVE",
"720 531 OFFCURVE",
"617 531 CURVE SMOOTH",
"388 531 LINE",
"388 727 LINE",
"297 727 LINE",
"297 505 LINE SMOOTH",
"297 477 OFFCURVE",
"314 458 OFFCURVE",
"343 458 CURVE SMOOTH",
"571 458 LINE SMOOTH",
"630 458 OFFCURVE",
"630 458 OFFCURVE",
"630 278 CURVE SMOOTH",
"630 0 LINE"
);
},
{
closed = 1;
nodes = (
"400 -175 LINE",
"400 -1 LINE",
"497 -1 LINE",
"498 79 LINE",
"249 78 LINE SMOOTH",
"172 78 OFFCURVE",
"156 85 OFFCURVE",
"156 212 CURVE SMOOTH",
"156 312 OFFCURVE",
"159 478 OFFCURVE",
"159 531 CURVE",
"70 531 LINE",
"70 134 LINE SMOOTH",
"70 39 OFFCURVE",
"110 0 OFFCURVE",
"162 0 CURVE SMOOTH",
"320 0 LINE",
"320 -175 LINE"
);
}
);
width = 790;
},
{
layerId = "5DC7B242-CF95-40E7-B7B6-33B4F09A6622";
paths = (
{
closed = 1;
nodes = (
"576 0 LINE",
"576 439 LINE SMOOTH",
"576 531 OFFCURVE",
"576 531 OFFCURVE",
"494 531 CURVE SMOOTH",
"310 531 LINE",
"310 727 LINE",
"238 727 LINE",
"238 505 LINE SMOOTH",
"238 478 OFFCURVE",
"251 458 OFFCURVE",
"274 458 CURVE SMOOTH",
"457 458 LINE SMOOTH",
"504 458 OFFCURVE",
"504 458 OFFCURVE",
"504 278 CURVE SMOOTH",
"504 0 LINE"
);
},
{
closed = 1;
nodes = (
"320 -175 LINE",
"320 -1 LINE",
"398 -1 LINE",
"398 79 LINE",
"199 78 LINE SMOOTH",
"142 78 OFFCURVE",
"125 78 OFFCURVE",
"125 212 CURVE SMOOTH",
"125 312 OFFCURVE",
"127 478 OFFCURVE",
"127 531 CURVE",
"56 531 LINE",
"56 134 LINE SMOOTH",
"56 39 OFFCURVE",
"88 0 OFFCURVE",
"130 0 CURVE SMOOTH",
"256 0 LINE",
"256 -175 LINE"
);
}
);
width = 632;
}
);
},
{
glyphname = "ru_nu-ethiopic.liga";
lastChange = "2019-03-09 00:04:35 +0000";
layers = (
{
layerId = "994FE389-9D54-4FAA-B055-C46A67020E78";
paths = (
{
closed = 1;
nodes = (
"721 0 LINE",
"721 244 LINE",
"825 244 LINE",
"825 348 LINE",
"721 348 LINE",
"721 439 LINE SMOOTH",
"721 531 OFFCURVE",
"721 531 OFFCURVE",
"617 531 CURVE SMOOTH",
"388 531 LINE",
"388 727 LINE",
"297 727 LINE",
"297 505 LINE SMOOTH",
"297 477 OFFCURVE",
"314 458 OFFCURVE",
"343 458 CURVE SMOOTH",
"571 458 LINE SMOOTH",
"630 458 OFFCURVE",
"630 458 OFFCURVE",
"630 278 CURVE SMOOTH",
"630 0 LINE"
);
},
{
closed = 1;
nodes = (
"400 -175 LINE",
"400 -1 LINE",
"497 -1 LINE",
"498 79 LINE",
"249 78 LINE SMOOTH",
"172 78 OFFCURVE",
"156 85 OFFCURVE",
"156 212 CURVE SMOOTH",
"156 312 OFFCURVE",
"159 478 OFFCURVE",
"159 531 CURVE",
"70 531 LINE",
"70 134 LINE SMOOTH",
"70 39 OFFCURVE",
"111 0 OFFCURVE",
"162 0 CURVE SMOOTH",
"321 0 LINE",
"321 -175 LINE"
);
}
);
width = 895;
},
{
layerId = "5DC7B242-CF95-40E7-B7B6-33B4F09A6622";
paths = (
{
closed = 1;
nodes = (
"577 0 LINE",
"577 244 LINE",
"660 244 LINE",
"660 348 LINE",
"577 348 LINE",
"577 439 LINE SMOOTH",
"577 531 OFFCURVE",
"577 531 OFFCURVE",
"494 531 CURVE SMOOTH",
"310 531 LINE",
"310 727 LINE",
"238 727 LINE",
"238 505 LINE SMOOTH",
"238 478 OFFCURVE",
"251 458 OFFCURVE",
"274 458 CURVE SMOOTH",
"457 458 LINE SMOOTH",
"504 458 OFFCURVE",
"504 458 OFFCURVE",
"504 278 CURVE SMOOTH",
"504 0 LINE"
);
},
{
closed = 1;
nodes = (
"320 -175 LINE",
"320 -1 LINE",
"398 -1 LINE",
"398 79 LINE",
"199 78 LINE SMOOTH",
"142 78 OFFCURVE",
"125 78 OFFCURVE",
"125 212 CURVE SMOOTH",
"125 312 OFFCURVE",
"127 478 OFFCURVE",
"127 531 CURVE",
"56 531 LINE",
"56 134 LINE SMOOTH",
"56 39 OFFCURVE",
"89 0 OFFCURVE",
"130 0 CURVE SMOOTH",
"257 0 LINE",
"257 -175 LINE"
);
}
);
width = 716;
}
);
},
